M48
; DRILL file KiCad 10.0.0 date 2026-06-16T20:48:48
; FORMAT={-:-/ absolute / metric / decimal}
; #@! TF.CreationDate,2026-06-16T20:48:48+02:00
; #@! TF.GenerationSoftware,Kicad,Pcbnew,10.0.0
; #@! TF.FileFunction,Plated,1,2,PTH
FMAT,2
METRIC
; #@! TA.AperFunction,Plated,PTH,ComponentDrill
T1C0.700
; #@! TA.AperFunction,Plated,PTH,ComponentDrill
T2C0.800
; #@! TA.AperFunction,Plated,PTH,ComponentDrill
T3C1.000
%
G90
G05
T1
X159.5Y-55.0
X159.5Y-62.62
X160.69Y-39.0
X162.5Y-42.69
X162.5Y-50.31
X168.0Y-42.69
X168.0Y-50.31
X168.31Y-39.0
T2
X162.5Y-55.0
X162.5Y-62.6
X162.5Y-69.5
X162.5Y-74.5
X167.5Y-55.0
X167.5Y-62.6
T3
X118.0Y-62.5
X118.0Y-65.04
X118.0Y-67.58
X118.0Y-70.12
X118.0Y-72.66
X118.0Y-75.2
X129.3Y-44.6
X129.3Y-54.5
X131.84Y-44.6
X131.84Y-54.5
X134.0Y-62.5
X134.0Y-65.04
X134.0Y-67.58
X134.0Y-70.12
X134.0Y-72.66
X134.0Y-75.2
X134.38Y-44.6
X134.38Y-54.5
X136.92Y-44.6
X136.92Y-54.5
X139.46Y-44.6
X139.46Y-54.5
X142.0Y-44.6
X142.0Y-54.5
X144.525Y-62.5
X144.525Y-65.04
X144.525Y-67.58
X144.525Y-70.12
X144.525Y-72.66
X144.525Y-75.2
X144.54Y-44.6
X144.54Y-54.5
X156.5Y-39.56
X156.5Y-42.1
X156.5Y-44.64
X156.5Y-47.18
X156.5Y-49.72
X156.5Y-52.26
X156.5Y-54.8
X156.5Y-57.34
X156.5Y-59.88
X156.5Y-62.42
X156.5Y-64.96
X156.5Y-67.5
X156.5Y-70.04
X156.5Y-72.58
X156.5Y-75.12
X171.5Y-39.5
X171.5Y-42.04
X171.5Y-44.58
X171.5Y-47.12
X171.5Y-49.66
X171.5Y-52.2
X171.5Y-54.74
X171.5Y-57.28
X171.5Y-59.82
X171.5Y-62.36
X171.5Y-64.9
X171.5Y-67.44
X171.5Y-69.98
X171.5Y-72.52
X171.5Y-75.06
X181.5Y-46.0
X181.5Y-48.54
X181.5Y-51.08
X181.5Y-58.0
X181.5Y-60.54
X181.5Y-63.08
X181.5Y-71.0
X181.5Y-73.54
M30
