%TF.GenerationSoftware,KiCad,Pcbnew,10.0.5*%
%TF.CreationDate,2026-08-01T20:43:47+02:00*%
%TF.ProjectId,TX_Modul,54585f4d-6f64-4756-9c2e-6b696361645f,rev?*%
%TF.SameCoordinates,Original*%
%TF.FileFunction,Legend,Top*%
%TF.FilePolarity,Positive*%
%FSLAX46Y46*%
G04 Gerber Fmt 4.6, Leading zero omitted, Abs format (unit mm)*
G04 Created by KiCad (PCBNEW 10.0.5) date 2026-08-01 20:43:47*
%MOMM*%
%LPD*%
G01*
G04 APERTURE LIST*
%ADD10C,0.100000*%
%ADD11C,0.150000*%
%ADD12C,0.120000*%
G04 APERTURE END LIST*
D10*
X139872419Y-72719925D02*
X139872419Y-73196115D01*
X139872419Y-73196115D02*
X138872419Y-73196115D01*
X139824800Y-72005639D02*
X139872419Y-72100877D01*
X139872419Y-72100877D02*
X139872419Y-72291353D01*
X139872419Y-72291353D02*
X139824800Y-72386591D01*
X139824800Y-72386591D02*
X139729561Y-72434210D01*
X139729561Y-72434210D02*
X139348609Y-72434210D01*
X139348609Y-72434210D02*
X139253371Y-72386591D01*
X139253371Y-72386591D02*
X139205752Y-72291353D01*
X139205752Y-72291353D02*
X139205752Y-72100877D01*
X139205752Y-72100877D02*
X139253371Y-72005639D01*
X139253371Y-72005639D02*
X139348609Y-71958020D01*
X139348609Y-71958020D02*
X139443847Y-71958020D01*
X139443847Y-71958020D02*
X139539085Y-72434210D01*
X139205752Y-71624686D02*
X139872419Y-71386591D01*
X139872419Y-71386591D02*
X139205752Y-71148496D01*
X139824800Y-70386591D02*
X139872419Y-70481829D01*
X139872419Y-70481829D02*
X139872419Y-70672305D01*
X139872419Y-70672305D02*
X139824800Y-70767543D01*
X139824800Y-70767543D02*
X139729561Y-70815162D01*
X139729561Y-70815162D02*
X139348609Y-70815162D01*
X139348609Y-70815162D02*
X139253371Y-70767543D01*
X139253371Y-70767543D02*
X139205752Y-70672305D01*
X139205752Y-70672305D02*
X139205752Y-70481829D01*
X139205752Y-70481829D02*
X139253371Y-70386591D01*
X139253371Y-70386591D02*
X139348609Y-70338972D01*
X139348609Y-70338972D02*
X139443847Y-70338972D01*
X139443847Y-70338972D02*
X139539085Y-70815162D01*
X139872419Y-69767543D02*
X139824800Y-69862781D01*
X139824800Y-69862781D02*
X139729561Y-69910400D01*
X139729561Y-69910400D02*
X138872419Y-69910400D01*
X139824800Y-69434209D02*
X139872419Y-69338971D01*
X139872419Y-69338971D02*
X139872419Y-69148495D01*
X139872419Y-69148495D02*
X139824800Y-69053257D01*
X139824800Y-69053257D02*
X139729561Y-69005638D01*
X139729561Y-69005638D02*
X139681942Y-69005638D01*
X139681942Y-69005638D02*
X139586704Y-69053257D01*
X139586704Y-69053257D02*
X139539085Y-69148495D01*
X139539085Y-69148495D02*
X139539085Y-69291352D01*
X139539085Y-69291352D02*
X139491466Y-69386590D01*
X139491466Y-69386590D02*
X139396228Y-69434209D01*
X139396228Y-69434209D02*
X139348609Y-69434209D01*
X139348609Y-69434209D02*
X139253371Y-69386590D01*
X139253371Y-69386590D02*
X139205752Y-69291352D01*
X139205752Y-69291352D02*
X139205752Y-69148495D01*
X139205752Y-69148495D02*
X139253371Y-69053257D01*
X139872419Y-68577066D02*
X138872419Y-68577066D01*
X139872419Y-68148495D02*
X139348609Y-68148495D01*
X139348609Y-68148495D02*
X139253371Y-68196114D01*
X139253371Y-68196114D02*
X139205752Y-68291352D01*
X139205752Y-68291352D02*
X139205752Y-68434209D01*
X139205752Y-68434209D02*
X139253371Y-68529447D01*
X139253371Y-68529447D02*
X139300990Y-68577066D01*
X139872419Y-67672304D02*
X139205752Y-67672304D01*
X138872419Y-67672304D02*
X138920038Y-67719923D01*
X138920038Y-67719923D02*
X138967657Y-67672304D01*
X138967657Y-67672304D02*
X138920038Y-67624685D01*
X138920038Y-67624685D02*
X138872419Y-67672304D01*
X138872419Y-67672304D02*
X138967657Y-67672304D01*
X139205752Y-67338971D02*
X139205752Y-66958019D01*
X139872419Y-67196114D02*
X139015276Y-67196114D01*
X139015276Y-67196114D02*
X138920038Y-67148495D01*
X138920038Y-67148495D02*
X138872419Y-67053257D01*
X138872419Y-67053257D02*
X138872419Y-66958019D01*
X139205752Y-66767542D02*
X139205752Y-66386590D01*
X138872419Y-66624685D02*
X139729561Y-66624685D01*
X139729561Y-66624685D02*
X139824800Y-66577066D01*
X139824800Y-66577066D02*
X139872419Y-66481828D01*
X139872419Y-66481828D02*
X139872419Y-66386590D01*
X139824800Y-65672304D02*
X139872419Y-65767542D01*
X139872419Y-65767542D02*
X139872419Y-65958018D01*
X139872419Y-65958018D02*
X139824800Y-66053256D01*
X139824800Y-66053256D02*
X139729561Y-66100875D01*
X139729561Y-66100875D02*
X139348609Y-66100875D01*
X139348609Y-66100875D02*
X139253371Y-66053256D01*
X139253371Y-66053256D02*
X139205752Y-65958018D01*
X139205752Y-65958018D02*
X139205752Y-65767542D01*
X139205752Y-65767542D02*
X139253371Y-65672304D01*
X139253371Y-65672304D02*
X139348609Y-65624685D01*
X139348609Y-65624685D02*
X139443847Y-65624685D01*
X139443847Y-65624685D02*
X139539085Y-66100875D01*
X139872419Y-65196113D02*
X139205752Y-65196113D01*
X139396228Y-65196113D02*
X139300990Y-65148494D01*
X139300990Y-65148494D02*
X139253371Y-65100875D01*
X139253371Y-65100875D02*
X139205752Y-65005637D01*
X139205752Y-65005637D02*
X139205752Y-64910399D01*
X183791466Y-55296115D02*
X183791466Y-54534211D01*
X183891466Y-46396115D02*
X183891466Y-45634211D01*
X184272419Y-46015163D02*
X183510514Y-46015163D01*
X183891466Y-48896115D02*
X183891466Y-48134211D01*
X184372419Y-57124687D02*
X183896228Y-57458020D01*
X184372419Y-57696115D02*
X183372419Y-57696115D01*
X183372419Y-57696115D02*
X183372419Y-57315163D01*
X183372419Y-57315163D02*
X183420038Y-57219925D01*
X183420038Y-57219925D02*
X183467657Y-57172306D01*
X183467657Y-57172306D02*
X183562895Y-57124687D01*
X183562895Y-57124687D02*
X183705752Y-57124687D01*
X183705752Y-57124687D02*
X183800990Y-57172306D01*
X183800990Y-57172306D02*
X183848609Y-57219925D01*
X183848609Y-57219925D02*
X183896228Y-57315163D01*
X183896228Y-57315163D02*
X183896228Y-57696115D01*
X184372419Y-59719925D02*
X184372419Y-60196115D01*
X184372419Y-60196115D02*
X183372419Y-60196115D01*
X183991466Y-64196115D02*
X183991466Y-63434211D01*
X184372419Y-66624687D02*
X183896228Y-66958020D01*
X184372419Y-67196115D02*
X183372419Y-67196115D01*
X183372419Y-67196115D02*
X183372419Y-66815163D01*
X183372419Y-66815163D02*
X183420038Y-66719925D01*
X183420038Y-66719925D02*
X183467657Y-66672306D01*
X183467657Y-66672306D02*
X183562895Y-66624687D01*
X183562895Y-66624687D02*
X183705752Y-66624687D01*
X183705752Y-66624687D02*
X183800990Y-66672306D01*
X183800990Y-66672306D02*
X183848609Y-66719925D01*
X183848609Y-66719925D02*
X183896228Y-66815163D01*
X183896228Y-66815163D02*
X183896228Y-67196115D01*
X183372419Y-66291353D02*
X184372419Y-65624687D01*
X183372419Y-65624687D02*
X184372419Y-66291353D01*
X183372419Y-69838972D02*
X183372419Y-69267544D01*
X184372419Y-69553258D02*
X183372419Y-69553258D01*
X183372419Y-69029448D02*
X184372419Y-68362782D01*
X183372419Y-68362782D02*
X184372419Y-69029448D01*
X183991466Y-73196115D02*
X183991466Y-72434211D01*
X183991466Y-75696115D02*
X183991466Y-74934211D01*
X184372419Y-75315163D02*
X183610514Y-75315163D01*
X184524800Y-51443734D02*
X184572419Y-51300877D01*
X184572419Y-51300877D02*
X184572419Y-51062782D01*
X184572419Y-51062782D02*
X184524800Y-50967544D01*
X184524800Y-50967544D02*
X184477180Y-50919925D01*
X184477180Y-50919925D02*
X184381942Y-50872306D01*
X184381942Y-50872306D02*
X184286704Y-50872306D01*
X184286704Y-50872306D02*
X184191466Y-50919925D01*
X184191466Y-50919925D02*
X184143847Y-50967544D01*
X184143847Y-50967544D02*
X184096228Y-51062782D01*
X184096228Y-51062782D02*
X184048609Y-51253258D01*
X184048609Y-51253258D02*
X184000990Y-51348496D01*
X184000990Y-51348496D02*
X183953371Y-51396115D01*
X183953371Y-51396115D02*
X183858133Y-51443734D01*
X183858133Y-51443734D02*
X183762895Y-51443734D01*
X183762895Y-51443734D02*
X183667657Y-51396115D01*
X183667657Y-51396115D02*
X183620038Y-51348496D01*
X183620038Y-51348496D02*
X183572419Y-51253258D01*
X183572419Y-51253258D02*
X183572419Y-51015163D01*
X183572419Y-51015163D02*
X183620038Y-50872306D01*
D11*
X179454819Y-67142857D02*
X179454819Y-67619047D01*
X179454819Y-67619047D02*
X178454819Y-67619047D01*
X178931009Y-66809523D02*
X178931009Y-66476190D01*
X179454819Y-66333333D02*
X179454819Y-66809523D01*
X179454819Y-66809523D02*
X178454819Y-66809523D01*
X178454819Y-66809523D02*
X178454819Y-66333333D01*
X179454819Y-65904761D02*
X178454819Y-65904761D01*
X178454819Y-65904761D02*
X178454819Y-65666666D01*
X178454819Y-65666666D02*
X178502438Y-65523809D01*
X178502438Y-65523809D02*
X178597676Y-65428571D01*
X178597676Y-65428571D02*
X178692914Y-65380952D01*
X178692914Y-65380952D02*
X178883390Y-65333333D01*
X178883390Y-65333333D02*
X179026247Y-65333333D01*
X179026247Y-65333333D02*
X179216723Y-65380952D01*
X179216723Y-65380952D02*
X179311961Y-65428571D01*
X179311961Y-65428571D02*
X179407200Y-65523809D01*
X179407200Y-65523809D02*
X179454819Y-65666666D01*
X179454819Y-65666666D02*
X179454819Y-65904761D01*
X179454819Y-74833332D02*
X178454819Y-74833332D01*
X178454819Y-74833332D02*
X178454819Y-74452380D01*
X178454819Y-74452380D02*
X178502438Y-74357142D01*
X178502438Y-74357142D02*
X178550057Y-74309523D01*
X178550057Y-74309523D02*
X178645295Y-74261904D01*
X178645295Y-74261904D02*
X178788152Y-74261904D01*
X178788152Y-74261904D02*
X178883390Y-74309523D01*
X178883390Y-74309523D02*
X178931009Y-74357142D01*
X178931009Y-74357142D02*
X178978628Y-74452380D01*
X178978628Y-74452380D02*
X178978628Y-74833332D01*
X178454819Y-73928570D02*
X179454819Y-73690475D01*
X179454819Y-73690475D02*
X178740533Y-73499999D01*
X178740533Y-73499999D02*
X179454819Y-73309523D01*
X179454819Y-73309523D02*
X178454819Y-73071428D01*
X179454819Y-72119047D02*
X178978628Y-72452380D01*
X179454819Y-72690475D02*
X178454819Y-72690475D01*
X178454819Y-72690475D02*
X178454819Y-72309523D01*
X178454819Y-72309523D02*
X178502438Y-72214285D01*
X178502438Y-72214285D02*
X178550057Y-72166666D01*
X178550057Y-72166666D02*
X178645295Y-72119047D01*
X178645295Y-72119047D02*
X178788152Y-72119047D01*
X178788152Y-72119047D02*
X178883390Y-72166666D01*
X178883390Y-72166666D02*
X178931009Y-72214285D01*
X178931009Y-72214285D02*
X178978628Y-72309523D01*
X178978628Y-72309523D02*
X178978628Y-72690475D01*
X168454819Y-46666666D02*
X167978628Y-46999999D01*
X168454819Y-47238094D02*
X167454819Y-47238094D01*
X167454819Y-47238094D02*
X167454819Y-46857142D01*
X167454819Y-46857142D02*
X167502438Y-46761904D01*
X167502438Y-46761904D02*
X167550057Y-46714285D01*
X167550057Y-46714285D02*
X167645295Y-46666666D01*
X167645295Y-46666666D02*
X167788152Y-46666666D01*
X167788152Y-46666666D02*
X167883390Y-46714285D01*
X167883390Y-46714285D02*
X167931009Y-46761904D01*
X167931009Y-46761904D02*
X167978628Y-46857142D01*
X167978628Y-46857142D02*
X167978628Y-47238094D01*
X167550057Y-46285713D02*
X167502438Y-46238094D01*
X167502438Y-46238094D02*
X167454819Y-46142856D01*
X167454819Y-46142856D02*
X167454819Y-45904761D01*
X167454819Y-45904761D02*
X167502438Y-45809523D01*
X167502438Y-45809523D02*
X167550057Y-45761904D01*
X167550057Y-45761904D02*
X167645295Y-45714285D01*
X167645295Y-45714285D02*
X167740533Y-45714285D01*
X167740533Y-45714285D02*
X167883390Y-45761904D01*
X167883390Y-45761904D02*
X168454819Y-46333332D01*
X168454819Y-46333332D02*
X168454819Y-45714285D01*
X164333333Y-39454819D02*
X164000000Y-38978628D01*
X163761905Y-39454819D02*
X163761905Y-38454819D01*
X163761905Y-38454819D02*
X164142857Y-38454819D01*
X164142857Y-38454819D02*
X164238095Y-38502438D01*
X164238095Y-38502438D02*
X164285714Y-38550057D01*
X164285714Y-38550057D02*
X164333333Y-38645295D01*
X164333333Y-38645295D02*
X164333333Y-38788152D01*
X164333333Y-38788152D02*
X164285714Y-38883390D01*
X164285714Y-38883390D02*
X164238095Y-38931009D01*
X164238095Y-38931009D02*
X164142857Y-38978628D01*
X164142857Y-38978628D02*
X163761905Y-38978628D01*
X165285714Y-39454819D02*
X164714286Y-39454819D01*
X165000000Y-39454819D02*
X165000000Y-38454819D01*
X165000000Y-38454819D02*
X164904762Y-38597676D01*
X164904762Y-38597676D02*
X164809524Y-38692914D01*
X164809524Y-38692914D02*
X164714286Y-38740533D01*
X162859580Y-72166666D02*
X162907200Y-72214285D01*
X162907200Y-72214285D02*
X162954819Y-72357142D01*
X162954819Y-72357142D02*
X162954819Y-72452380D01*
X162954819Y-72452380D02*
X162907200Y-72595237D01*
X162907200Y-72595237D02*
X162811961Y-72690475D01*
X162811961Y-72690475D02*
X162716723Y-72738094D01*
X162716723Y-72738094D02*
X162526247Y-72785713D01*
X162526247Y-72785713D02*
X162383390Y-72785713D01*
X162383390Y-72785713D02*
X162192914Y-72738094D01*
X162192914Y-72738094D02*
X162097676Y-72690475D01*
X162097676Y-72690475D02*
X162002438Y-72595237D01*
X162002438Y-72595237D02*
X161954819Y-72452380D01*
X161954819Y-72452380D02*
X161954819Y-72357142D01*
X161954819Y-72357142D02*
X162002438Y-72214285D01*
X162002438Y-72214285D02*
X162050057Y-72166666D01*
X161954819Y-71833332D02*
X161954819Y-71214285D01*
X161954819Y-71214285D02*
X162335771Y-71547618D01*
X162335771Y-71547618D02*
X162335771Y-71404761D01*
X162335771Y-71404761D02*
X162383390Y-71309523D01*
X162383390Y-71309523D02*
X162431009Y-71261904D01*
X162431009Y-71261904D02*
X162526247Y-71214285D01*
X162526247Y-71214285D02*
X162764342Y-71214285D01*
X162764342Y-71214285D02*
X162859580Y-71261904D01*
X162859580Y-71261904D02*
X162907200Y-71309523D01*
X162907200Y-71309523D02*
X162954819Y-71404761D01*
X162954819Y-71404761D02*
X162954819Y-71690475D01*
X162954819Y-71690475D02*
X162907200Y-71785713D01*
X162907200Y-71785713D02*
X162859580Y-71833332D01*
X178831009Y-60366666D02*
X178831009Y-60699999D01*
X179354819Y-60699999D02*
X178354819Y-60699999D01*
X178354819Y-60699999D02*
X178354819Y-60223809D01*
X179354819Y-59842856D02*
X178688152Y-59842856D01*
X178878628Y-59842856D02*
X178783390Y-59795237D01*
X178783390Y-59795237D02*
X178735771Y-59747618D01*
X178735771Y-59747618D02*
X178688152Y-59652380D01*
X178688152Y-59652380D02*
X178688152Y-59557142D01*
X179354819Y-59080951D02*
X179307200Y-59176189D01*
X179307200Y-59176189D02*
X179259580Y-59223808D01*
X179259580Y-59223808D02*
X179164342Y-59271427D01*
X179164342Y-59271427D02*
X178878628Y-59271427D01*
X178878628Y-59271427D02*
X178783390Y-59223808D01*
X178783390Y-59223808D02*
X178735771Y-59176189D01*
X178735771Y-59176189D02*
X178688152Y-59080951D01*
X178688152Y-59080951D02*
X178688152Y-58938094D01*
X178688152Y-58938094D02*
X178735771Y-58842856D01*
X178735771Y-58842856D02*
X178783390Y-58795237D01*
X178783390Y-58795237D02*
X178878628Y-58747618D01*
X178878628Y-58747618D02*
X179164342Y-58747618D01*
X179164342Y-58747618D02*
X179259580Y-58795237D01*
X179259580Y-58795237D02*
X179307200Y-58842856D01*
X179307200Y-58842856D02*
X179354819Y-58938094D01*
X179354819Y-58938094D02*
X179354819Y-59080951D01*
X179354819Y-58319046D02*
X178688152Y-58319046D01*
X178783390Y-58319046D02*
X178735771Y-58271427D01*
X178735771Y-58271427D02*
X178688152Y-58176189D01*
X178688152Y-58176189D02*
X178688152Y-58033332D01*
X178688152Y-58033332D02*
X178735771Y-57938094D01*
X178735771Y-57938094D02*
X178831009Y-57890475D01*
X178831009Y-57890475D02*
X179354819Y-57890475D01*
X178831009Y-57890475D02*
X178735771Y-57842856D01*
X178735771Y-57842856D02*
X178688152Y-57747618D01*
X178688152Y-57747618D02*
X178688152Y-57604761D01*
X178688152Y-57604761D02*
X178735771Y-57509522D01*
X178735771Y-57509522D02*
X178831009Y-57461903D01*
X178831009Y-57461903D02*
X179354819Y-57461903D01*
X179354819Y-56223808D02*
X178354819Y-56223808D01*
X178354819Y-56223808D02*
X178354819Y-55842856D01*
X178354819Y-55842856D02*
X178402438Y-55747618D01*
X178402438Y-55747618D02*
X178450057Y-55699999D01*
X178450057Y-55699999D02*
X178545295Y-55652380D01*
X178545295Y-55652380D02*
X178688152Y-55652380D01*
X178688152Y-55652380D02*
X178783390Y-55699999D01*
X178783390Y-55699999D02*
X178831009Y-55747618D01*
X178831009Y-55747618D02*
X178878628Y-55842856D01*
X178878628Y-55842856D02*
X178878628Y-56223808D01*
X179259580Y-54652380D02*
X179307200Y-54699999D01*
X179307200Y-54699999D02*
X179354819Y-54842856D01*
X179354819Y-54842856D02*
X179354819Y-54938094D01*
X179354819Y-54938094D02*
X179307200Y-55080951D01*
X179307200Y-55080951D02*
X179211961Y-55176189D01*
X179211961Y-55176189D02*
X179116723Y-55223808D01*
X179116723Y-55223808D02*
X178926247Y-55271427D01*
X178926247Y-55271427D02*
X178783390Y-55271427D01*
X178783390Y-55271427D02*
X178592914Y-55223808D01*
X178592914Y-55223808D02*
X178497676Y-55176189D01*
X178497676Y-55176189D02*
X178402438Y-55080951D01*
X178402438Y-55080951D02*
X178354819Y-54938094D01*
X178354819Y-54938094D02*
X178354819Y-54842856D01*
X178354819Y-54842856D02*
X178402438Y-54699999D01*
X178402438Y-54699999D02*
X178450057Y-54652380D01*
X164833333Y-62959580D02*
X164785714Y-63007200D01*
X164785714Y-63007200D02*
X164642857Y-63054819D01*
X164642857Y-63054819D02*
X164547619Y-63054819D01*
X164547619Y-63054819D02*
X164404762Y-63007200D01*
X164404762Y-63007200D02*
X164309524Y-62911961D01*
X164309524Y-62911961D02*
X164261905Y-62816723D01*
X164261905Y-62816723D02*
X164214286Y-62626247D01*
X164214286Y-62626247D02*
X164214286Y-62483390D01*
X164214286Y-62483390D02*
X164261905Y-62292914D01*
X164261905Y-62292914D02*
X164309524Y-62197676D01*
X164309524Y-62197676D02*
X164404762Y-62102438D01*
X164404762Y-62102438D02*
X164547619Y-62054819D01*
X164547619Y-62054819D02*
X164642857Y-62054819D01*
X164642857Y-62054819D02*
X164785714Y-62102438D01*
X164785714Y-62102438D02*
X164833333Y-62150057D01*
X165214286Y-62150057D02*
X165261905Y-62102438D01*
X165261905Y-62102438D02*
X165357143Y-62054819D01*
X165357143Y-62054819D02*
X165595238Y-62054819D01*
X165595238Y-62054819D02*
X165690476Y-62102438D01*
X165690476Y-62102438D02*
X165738095Y-62150057D01*
X165738095Y-62150057D02*
X165785714Y-62245295D01*
X165785714Y-62245295D02*
X165785714Y-62340533D01*
X165785714Y-62340533D02*
X165738095Y-62483390D01*
X165738095Y-62483390D02*
X165166667Y-63054819D01*
X165166667Y-63054819D02*
X165785714Y-63054819D01*
X162954819Y-46666666D02*
X162478628Y-46999999D01*
X162954819Y-47238094D02*
X161954819Y-47238094D01*
X161954819Y-47238094D02*
X161954819Y-46857142D01*
X161954819Y-46857142D02*
X162002438Y-46761904D01*
X162002438Y-46761904D02*
X162050057Y-46714285D01*
X162050057Y-46714285D02*
X162145295Y-46666666D01*
X162145295Y-46666666D02*
X162288152Y-46666666D01*
X162288152Y-46666666D02*
X162383390Y-46714285D01*
X162383390Y-46714285D02*
X162431009Y-46761904D01*
X162431009Y-46761904D02*
X162478628Y-46857142D01*
X162478628Y-46857142D02*
X162478628Y-47238094D01*
X161954819Y-46333332D02*
X161954819Y-45714285D01*
X161954819Y-45714285D02*
X162335771Y-46047618D01*
X162335771Y-46047618D02*
X162335771Y-45904761D01*
X162335771Y-45904761D02*
X162383390Y-45809523D01*
X162383390Y-45809523D02*
X162431009Y-45761904D01*
X162431009Y-45761904D02*
X162526247Y-45714285D01*
X162526247Y-45714285D02*
X162764342Y-45714285D01*
X162764342Y-45714285D02*
X162859580Y-45761904D01*
X162859580Y-45761904D02*
X162907200Y-45809523D01*
X162907200Y-45809523D02*
X162954819Y-45904761D01*
X162954819Y-45904761D02*
X162954819Y-46190475D01*
X162954819Y-46190475D02*
X162907200Y-46285713D01*
X162907200Y-46285713D02*
X162859580Y-46333332D01*
X164833333Y-55359580D02*
X164785714Y-55407200D01*
X164785714Y-55407200D02*
X164642857Y-55454819D01*
X164642857Y-55454819D02*
X164547619Y-55454819D01*
X164547619Y-55454819D02*
X164404762Y-55407200D01*
X164404762Y-55407200D02*
X164309524Y-55311961D01*
X164309524Y-55311961D02*
X164261905Y-55216723D01*
X164261905Y-55216723D02*
X164214286Y-55026247D01*
X164214286Y-55026247D02*
X164214286Y-54883390D01*
X164214286Y-54883390D02*
X164261905Y-54692914D01*
X164261905Y-54692914D02*
X164309524Y-54597676D01*
X164309524Y-54597676D02*
X164404762Y-54502438D01*
X164404762Y-54502438D02*
X164547619Y-54454819D01*
X164547619Y-54454819D02*
X164642857Y-54454819D01*
X164642857Y-54454819D02*
X164785714Y-54502438D01*
X164785714Y-54502438D02*
X164833333Y-54550057D01*
X165785714Y-55454819D02*
X165214286Y-55454819D01*
X165500000Y-55454819D02*
X165500000Y-54454819D01*
X165500000Y-54454819D02*
X165404762Y-54597676D01*
X165404762Y-54597676D02*
X165309524Y-54692914D01*
X165309524Y-54692914D02*
X165214286Y-54740533D01*
X159954819Y-58976666D02*
X159478628Y-59309999D01*
X159954819Y-59548094D02*
X158954819Y-59548094D01*
X158954819Y-59548094D02*
X158954819Y-59167142D01*
X158954819Y-59167142D02*
X159002438Y-59071904D01*
X159002438Y-59071904D02*
X159050057Y-59024285D01*
X159050057Y-59024285D02*
X159145295Y-58976666D01*
X159145295Y-58976666D02*
X159288152Y-58976666D01*
X159288152Y-58976666D02*
X159383390Y-59024285D01*
X159383390Y-59024285D02*
X159431009Y-59071904D01*
X159431009Y-59071904D02*
X159478628Y-59167142D01*
X159478628Y-59167142D02*
X159478628Y-59548094D01*
X159288152Y-58119523D02*
X159954819Y-58119523D01*
X158907200Y-58357618D02*
X159621485Y-58595713D01*
X159621485Y-58595713D02*
X159621485Y-57976666D01*
X178954819Y-50376190D02*
X178478628Y-50709523D01*
X178954819Y-50947618D02*
X177954819Y-50947618D01*
X177954819Y-50947618D02*
X177954819Y-50566666D01*
X177954819Y-50566666D02*
X178002438Y-50471428D01*
X178002438Y-50471428D02*
X178050057Y-50423809D01*
X178050057Y-50423809D02*
X178145295Y-50376190D01*
X178145295Y-50376190D02*
X178288152Y-50376190D01*
X178288152Y-50376190D02*
X178383390Y-50423809D01*
X178383390Y-50423809D02*
X178431009Y-50471428D01*
X178431009Y-50471428D02*
X178478628Y-50566666D01*
X178478628Y-50566666D02*
X178478628Y-50947618D01*
X178907200Y-49566666D02*
X178954819Y-49661904D01*
X178954819Y-49661904D02*
X178954819Y-49852380D01*
X178954819Y-49852380D02*
X178907200Y-49947618D01*
X178907200Y-49947618D02*
X178811961Y-49995237D01*
X178811961Y-49995237D02*
X178431009Y-49995237D01*
X178431009Y-49995237D02*
X178335771Y-49947618D01*
X178335771Y-49947618D02*
X178288152Y-49852380D01*
X178288152Y-49852380D02*
X178288152Y-49661904D01*
X178288152Y-49661904D02*
X178335771Y-49566666D01*
X178335771Y-49566666D02*
X178431009Y-49519047D01*
X178431009Y-49519047D02*
X178526247Y-49519047D01*
X178526247Y-49519047D02*
X178621485Y-49995237D01*
X178954819Y-48947618D02*
X178907200Y-49042856D01*
X178907200Y-49042856D02*
X178811961Y-49090475D01*
X178811961Y-49090475D02*
X177954819Y-49090475D01*
X178954819Y-48138094D02*
X178431009Y-48138094D01*
X178431009Y-48138094D02*
X178335771Y-48185713D01*
X178335771Y-48185713D02*
X178288152Y-48280951D01*
X178288152Y-48280951D02*
X178288152Y-48471427D01*
X178288152Y-48471427D02*
X178335771Y-48566665D01*
X178907200Y-48138094D02*
X178954819Y-48233332D01*
X178954819Y-48233332D02*
X178954819Y-48471427D01*
X178954819Y-48471427D02*
X178907200Y-48566665D01*
X178907200Y-48566665D02*
X178811961Y-48614284D01*
X178811961Y-48614284D02*
X178716723Y-48614284D01*
X178716723Y-48614284D02*
X178621485Y-48566665D01*
X178621485Y-48566665D02*
X178573866Y-48471427D01*
X178573866Y-48471427D02*
X178573866Y-48233332D01*
X178573866Y-48233332D02*
X178526247Y-48138094D01*
X178954819Y-47661903D02*
X178288152Y-47661903D01*
X177954819Y-47661903D02*
X178002438Y-47709522D01*
X178002438Y-47709522D02*
X178050057Y-47661903D01*
X178050057Y-47661903D02*
X178002438Y-47614284D01*
X178002438Y-47614284D02*
X177954819Y-47661903D01*
X177954819Y-47661903D02*
X178050057Y-47661903D01*
X178907200Y-47233332D02*
X178954819Y-47138094D01*
X178954819Y-47138094D02*
X178954819Y-46947618D01*
X178954819Y-46947618D02*
X178907200Y-46852380D01*
X178907200Y-46852380D02*
X178811961Y-46804761D01*
X178811961Y-46804761D02*
X178764342Y-46804761D01*
X178764342Y-46804761D02*
X178669104Y-46852380D01*
X178669104Y-46852380D02*
X178621485Y-46947618D01*
X178621485Y-46947618D02*
X178621485Y-47090475D01*
X178621485Y-47090475D02*
X178573866Y-47185713D01*
X178573866Y-47185713D02*
X178478628Y-47233332D01*
X178478628Y-47233332D02*
X178431009Y-47233332D01*
X178431009Y-47233332D02*
X178335771Y-47185713D01*
X178335771Y-47185713D02*
X178288152Y-47090475D01*
X178288152Y-47090475D02*
X178288152Y-46947618D01*
X178288152Y-46947618D02*
X178335771Y-46852380D01*
X134451429Y-50907200D02*
X134594286Y-50954819D01*
X134594286Y-50954819D02*
X134832381Y-50954819D01*
X134832381Y-50954819D02*
X134927619Y-50907200D01*
X134927619Y-50907200D02*
X134975238Y-50859580D01*
X134975238Y-50859580D02*
X135022857Y-50764342D01*
X135022857Y-50764342D02*
X135022857Y-50669104D01*
X135022857Y-50669104D02*
X134975238Y-50573866D01*
X134975238Y-50573866D02*
X134927619Y-50526247D01*
X134927619Y-50526247D02*
X134832381Y-50478628D01*
X134832381Y-50478628D02*
X134641905Y-50431009D01*
X134641905Y-50431009D02*
X134546667Y-50383390D01*
X134546667Y-50383390D02*
X134499048Y-50335771D01*
X134499048Y-50335771D02*
X134451429Y-50240533D01*
X134451429Y-50240533D02*
X134451429Y-50145295D01*
X134451429Y-50145295D02*
X134499048Y-50050057D01*
X134499048Y-50050057D02*
X134546667Y-50002438D01*
X134546667Y-50002438D02*
X134641905Y-49954819D01*
X134641905Y-49954819D02*
X134880000Y-49954819D01*
X134880000Y-49954819D02*
X135022857Y-50002438D01*
X135451429Y-50954819D02*
X135451429Y-50288152D01*
X135451429Y-49954819D02*
X135403810Y-50002438D01*
X135403810Y-50002438D02*
X135451429Y-50050057D01*
X135451429Y-50050057D02*
X135499048Y-50002438D01*
X135499048Y-50002438D02*
X135451429Y-49954819D01*
X135451429Y-49954819D02*
X135451429Y-50050057D01*
X136403809Y-49954819D02*
X135927619Y-49954819D01*
X135927619Y-49954819D02*
X135880000Y-50431009D01*
X135880000Y-50431009D02*
X135927619Y-50383390D01*
X135927619Y-50383390D02*
X136022857Y-50335771D01*
X136022857Y-50335771D02*
X136260952Y-50335771D01*
X136260952Y-50335771D02*
X136356190Y-50383390D01*
X136356190Y-50383390D02*
X136403809Y-50431009D01*
X136403809Y-50431009D02*
X136451428Y-50526247D01*
X136451428Y-50526247D02*
X136451428Y-50764342D01*
X136451428Y-50764342D02*
X136403809Y-50859580D01*
X136403809Y-50859580D02*
X136356190Y-50907200D01*
X136356190Y-50907200D02*
X136260952Y-50954819D01*
X136260952Y-50954819D02*
X136022857Y-50954819D01*
X136022857Y-50954819D02*
X135927619Y-50907200D01*
X135927619Y-50907200D02*
X135880000Y-50859580D01*
X136784762Y-49954819D02*
X137403809Y-49954819D01*
X137403809Y-49954819D02*
X137070476Y-50335771D01*
X137070476Y-50335771D02*
X137213333Y-50335771D01*
X137213333Y-50335771D02*
X137308571Y-50383390D01*
X137308571Y-50383390D02*
X137356190Y-50431009D01*
X137356190Y-50431009D02*
X137403809Y-50526247D01*
X137403809Y-50526247D02*
X137403809Y-50764342D01*
X137403809Y-50764342D02*
X137356190Y-50859580D01*
X137356190Y-50859580D02*
X137308571Y-50907200D01*
X137308571Y-50907200D02*
X137213333Y-50954819D01*
X137213333Y-50954819D02*
X136927619Y-50954819D01*
X136927619Y-50954819D02*
X136832381Y-50907200D01*
X136832381Y-50907200D02*
X136784762Y-50859580D01*
X138308571Y-49954819D02*
X137832381Y-49954819D01*
X137832381Y-49954819D02*
X137784762Y-50431009D01*
X137784762Y-50431009D02*
X137832381Y-50383390D01*
X137832381Y-50383390D02*
X137927619Y-50335771D01*
X137927619Y-50335771D02*
X138165714Y-50335771D01*
X138165714Y-50335771D02*
X138260952Y-50383390D01*
X138260952Y-50383390D02*
X138308571Y-50431009D01*
X138308571Y-50431009D02*
X138356190Y-50526247D01*
X138356190Y-50526247D02*
X138356190Y-50764342D01*
X138356190Y-50764342D02*
X138308571Y-50859580D01*
X138308571Y-50859580D02*
X138260952Y-50907200D01*
X138260952Y-50907200D02*
X138165714Y-50954819D01*
X138165714Y-50954819D02*
X137927619Y-50954819D01*
X137927619Y-50954819D02*
X137832381Y-50907200D01*
X137832381Y-50907200D02*
X137784762Y-50859580D01*
X139308571Y-50954819D02*
X138737143Y-50954819D01*
X139022857Y-50954819D02*
X139022857Y-49954819D01*
X139022857Y-49954819D02*
X138927619Y-50097676D01*
X138927619Y-50097676D02*
X138832381Y-50192914D01*
X138832381Y-50192914D02*
X138737143Y-50240533D01*
%TO.C,5V1*%
D12*
X180170000Y-73770000D02*
X180170000Y-76370000D01*
X180170000Y-73770000D02*
X182830000Y-73770000D01*
X180170000Y-76370000D02*
X182830000Y-76370000D01*
X181500000Y-71170000D02*
X182830000Y-71170000D01*
X182830000Y-71170000D02*
X182830000Y-72500000D01*
X182830000Y-73770000D02*
X182830000Y-76370000D01*
%TO.C,R2*%
X168000000Y-43630000D02*
X168000000Y-44580000D01*
X168000000Y-49370000D02*
X168000000Y-48420000D01*
X167080000Y-44580000D02*
X168920000Y-44580000D01*
X168920000Y-48420000D01*
X167080000Y-48420000D01*
X167080000Y-44580000D01*
%TO.C,Si1*%
X127970000Y-43270000D02*
X129300000Y-43270000D01*
X127970000Y-44600000D02*
X127970000Y-43270000D01*
X130570000Y-43270000D02*
X145870000Y-43270000D01*
X130570000Y-45930000D02*
X130570000Y-43270000D01*
X130570000Y-45930000D02*
X145870000Y-45930000D01*
X145870000Y-45930000D02*
X145870000Y-43270000D01*
%TO.C,R1*%
X161630000Y-39000000D02*
X162580000Y-39000000D01*
X167370000Y-39000000D02*
X166420000Y-39000000D01*
X162580000Y-38080000D02*
X166420000Y-38080000D01*
X166420000Y-39920000D01*
X162580000Y-39920000D01*
X162580000Y-38080000D01*
%TO.C,C3*%
X161130000Y-69530000D02*
X161460000Y-69530000D01*
X161130000Y-74470000D02*
X161130000Y-69530000D01*
X161460000Y-74470000D02*
X161130000Y-74470000D01*
X163540000Y-69530000D02*
X163870000Y-69530000D01*
X163870000Y-69530000D02*
X163870000Y-74470000D01*
X163870000Y-74470000D02*
X163540000Y-74470000D01*
%TO.C,J3*%
X180120000Y-58810000D02*
X180120000Y-53620000D01*
X182880000Y-53620000D02*
X180120000Y-53620000D01*
X182880000Y-58810000D02*
X180120000Y-58810000D01*
X182880000Y-58810000D02*
X182880000Y-53620000D01*
X182880000Y-60080000D02*
X182880000Y-61460000D01*
X182880000Y-61460000D02*
X181500000Y-61460000D01*
%TO.C,C2*%
X162530000Y-61230000D02*
X167470000Y-61230000D01*
X162530000Y-61560000D02*
X162530000Y-61230000D01*
X162530000Y-63970000D02*
X162530000Y-63640000D01*
X167470000Y-61230000D02*
X167470000Y-61560000D01*
X167470000Y-63640000D02*
X167470000Y-63970000D01*
X167470000Y-63970000D02*
X162530000Y-63970000D01*
%TO.C,R3*%
X162500000Y-43630000D02*
X162500000Y-44580000D01*
X162500000Y-49370000D02*
X162500000Y-48420000D01*
X161580000Y-44580000D02*
X163420000Y-44580000D01*
X163420000Y-48420000D01*
X161580000Y-48420000D01*
X161580000Y-44580000D01*
%TO.C,J7*%
X143195000Y-63770000D02*
X143195000Y-76530000D01*
X143195000Y-63770000D02*
X145855000Y-63770000D01*
X143195000Y-76530000D02*
X145855000Y-76530000D01*
X144525000Y-61170000D02*
X145855000Y-61170000D01*
X145855000Y-61170000D02*
X145855000Y-62500000D01*
X145855000Y-63770000D02*
X145855000Y-76530000D01*
%TO.C,J1*%
X155170000Y-40830000D02*
X155170000Y-76450000D01*
X155170000Y-40830000D02*
X157830000Y-40830000D01*
X155170000Y-76450000D02*
X157830000Y-76450000D01*
X156500000Y-38230000D02*
X157830000Y-38230000D01*
X157830000Y-38230000D02*
X157830000Y-39560000D01*
X157830000Y-40830000D02*
X157830000Y-76450000D01*
%TO.C,J2*%
X170170000Y-73790000D02*
X170170000Y-38170000D01*
X170170000Y-76390000D02*
X170170000Y-75060000D01*
X171500000Y-76390000D02*
X170170000Y-76390000D01*
X172830000Y-38170000D02*
X170170000Y-38170000D01*
X172830000Y-73790000D02*
X170170000Y-73790000D01*
X172830000Y-73790000D02*
X172830000Y-38170000D01*
%TO.C,J9*%
X180170000Y-65065000D02*
X180170000Y-70205000D01*
X180170000Y-65065000D02*
X182830000Y-65065000D01*
X180170000Y-70205000D02*
X182830000Y-70205000D01*
X181500000Y-62465000D02*
X182830000Y-62465000D01*
X182830000Y-62465000D02*
X182830000Y-63795000D01*
X182830000Y-65065000D02*
X182830000Y-70205000D01*
%TO.C,C1*%
X162530000Y-53630000D02*
X167470000Y-53630000D01*
X162530000Y-53960000D02*
X162530000Y-53630000D01*
X162530000Y-56370000D02*
X162530000Y-56040000D01*
X167470000Y-53630000D02*
X167470000Y-53960000D01*
X167470000Y-56040000D02*
X167470000Y-56370000D01*
X167470000Y-56370000D02*
X162530000Y-56370000D01*
%TO.C,J8*%
X116670000Y-63770000D02*
X116670000Y-76530000D01*
X116670000Y-63770000D02*
X119330000Y-63770000D01*
X116670000Y-76530000D02*
X119330000Y-76530000D01*
X118000000Y-61170000D02*
X119330000Y-61170000D01*
X119330000Y-61170000D02*
X119330000Y-62500000D01*
X119330000Y-63770000D02*
X119330000Y-76530000D01*
%TO.C,R4*%
X159500000Y-55940000D02*
X159500000Y-56890000D01*
X159500000Y-61680000D02*
X159500000Y-60730000D01*
X158580000Y-56890000D02*
X160420000Y-56890000D01*
X160420000Y-60730000D01*
X158580000Y-60730000D01*
X158580000Y-56890000D01*
%TO.C,J4*%
X180120000Y-44620000D02*
X181500000Y-44620000D01*
X180120000Y-46000000D02*
X180120000Y-44620000D01*
X180120000Y-47270000D02*
X180120000Y-52460000D01*
X180120000Y-47270000D02*
X182880000Y-47270000D01*
X180120000Y-52460000D02*
X182880000Y-52460000D01*
X182880000Y-47270000D02*
X182880000Y-52460000D01*
%TO.C,Si5351*%
X127970000Y-53170000D02*
X129300000Y-53170000D01*
X127970000Y-54500000D02*
X127970000Y-53170000D01*
X130570000Y-53170000D02*
X145870000Y-53170000D01*
X130570000Y-55830000D02*
X130570000Y-53170000D01*
X130570000Y-55830000D02*
X145870000Y-55830000D01*
X145870000Y-55830000D02*
X145870000Y-53170000D01*
%TO.C,J6*%
X132670000Y-63770000D02*
X132670000Y-76530000D01*
X132670000Y-63770000D02*
X135330000Y-63770000D01*
X132670000Y-76530000D02*
X135330000Y-76530000D01*
X134000000Y-61170000D02*
X135330000Y-61170000D01*
X135330000Y-61170000D02*
X135330000Y-62500000D01*
X135330000Y-63770000D02*
X135330000Y-76530000D01*
%TD*%
M02*
