%TF.GenerationSoftware,KiCad,Pcbnew,10.0.5*%
%TF.CreationDate,2026-08-01T20:43:47+02:00*%
%TF.ProjectId,TX_Modul,54585f4d-6f64-4756-9c2e-6b696361645f,rev?*%
%TF.SameCoordinates,Original*%
%TF.FileFunction,Copper,L2,Bot*%
%TF.FilePolarity,Positive*%
%FSLAX46Y46*%
G04 Gerber Fmt 4.6, Leading zero omitted, Abs format (unit mm)*
G04 Created by KiCad (PCBNEW 10.0.5) date 2026-08-01 20:43:47*
%MOMM*%
%LPD*%
G01*
G04 APERTURE LIST*
%TA.AperFunction,ComponentPad*%
%ADD10R,1.700000X1.700000*%
%TD*%
%TA.AperFunction,ComponentPad*%
%ADD11C,1.700000*%
%TD*%
%TA.AperFunction,ComponentPad*%
%ADD12C,1.400000*%
%TD*%
%TA.AperFunction,ComponentPad*%
%ADD13C,1.600000*%
%TD*%
%TA.AperFunction,Conductor*%
%ADD14C,0.180000*%
%TD*%
%TA.AperFunction,Conductor*%
%ADD15C,0.200000*%
%TD*%
%TA.AperFunction,Conductor*%
%ADD16C,1.500000*%
%TD*%
G04 APERTURE END LIST*
D10*
%TO.P,5V1,1,Pin_1_1*%
%TO.N,GND*%
X181500000Y-72500000D03*
D11*
%TO.P,5V1,2,Pin_2_2*%
%TO.N,Net-(5V1-Pin_2)*%
X181500000Y-75040000D03*
%TD*%
D12*
%TO.P,R2,1,+_1*%
%TO.N,Net-(C3--)*%
X168000000Y-42690000D03*
%TO.P,R2,2,-_2*%
%TO.N,GND*%
X168000000Y-50310000D03*
%TD*%
D10*
%TO.P,Si1,1,Pin_1_1*%
%TO.N,unconnected-(Si1-Pin_1-Pad1)*%
X129300000Y-44600000D03*
D11*
%TO.P,Si1,2,Pin_2_2*%
%TO.N,unconnected-(Si1-Pin_2-Pad2)*%
X131840000Y-44600000D03*
%TO.P,Si1,3,Pin_3_3*%
%TO.N,unconnected-(Si1-Pin_3-Pad3)*%
X134380000Y-44600000D03*
%TO.P,Si1,4,Pin_4_4*%
%TO.N,unconnected-(Si1-Pin_4-Pad4)*%
X136920000Y-44600000D03*
%TO.P,Si1,5,Pin_5_5*%
%TO.N,unconnected-(Si1-Pin_5-Pad5)*%
X139460000Y-44600000D03*
%TO.P,Si1,6,Pin_6_6*%
%TO.N,unconnected-(Si1-Pin_6-Pad6)*%
X142000000Y-44600000D03*
%TO.P,Si1,7,Pin_7_7*%
%TO.N,unconnected-(Si1-Pin_7-Pad7)*%
X144540000Y-44600000D03*
%TD*%
D12*
%TO.P,R1,1,+_1*%
%TO.N,Net-(J1-Pin_2)*%
X160690000Y-39000000D03*
%TO.P,R1,2,-_2*%
%TO.N,Net-(C3--)*%
X168310000Y-39000000D03*
%TD*%
D13*
%TO.P,C3,1,+_1*%
%TO.N,Net-(C3-+)*%
X162500000Y-74500000D03*
%TO.P,C3,2,-_2*%
%TO.N,Net-(C3--)*%
X162500000Y-69500000D03*
%TD*%
D10*
%TO.P,J3,1,Pin_1_1*%
%TO.N,Net-(C3-+)*%
X181500000Y-60080000D03*
D11*
%TO.P,J3,2,Pin_2_2*%
X181500000Y-57540000D03*
%TO.P,J3,3,Pin_3_3*%
%TO.N,GND*%
X181500000Y-55000000D03*
%TD*%
D13*
%TO.P,C2,1,+_1*%
%TO.N,Net-(C2-+)*%
X162500000Y-62600000D03*
%TO.P,C2,2,-_2*%
%TO.N,GND*%
X167500000Y-62600000D03*
%TD*%
D12*
%TO.P,R3,1,+_1*%
%TO.N,Net-(C3--)*%
X162500000Y-42690000D03*
%TO.P,R3,2,-_2*%
%TO.N,Net-(C1-+)*%
X162500000Y-50310000D03*
%TD*%
D10*
%TO.P,J7,1,Pin_1_1*%
%TO.N,Net-(J2-Pin_1)*%
X144525000Y-62500000D03*
D11*
%TO.P,J7,2,Pin_2_2*%
%TO.N,Net-(J2-Pin_2)*%
X144525000Y-65040000D03*
%TO.P,J7,3,Pin_3_3*%
%TO.N,GND*%
X144525000Y-67580000D03*
%TO.P,J7,4,Pin_4_4*%
%TO.N,Net-(5V1-Pin_2)*%
X144525000Y-70120000D03*
%TO.P,J7,5,Pin_5_5*%
%TO.N,unconnected-(J7-Pin_5-Pad5)*%
X144525000Y-72660000D03*
%TO.P,J7,6,Pin_6_6*%
%TO.N,unconnected-(J7-Pin_6-Pad6)*%
X144525000Y-75200000D03*
%TD*%
D10*
%TO.P,J1,1,Pin_1_1*%
%TO.N,unconnected-(J1-Pin_1-Pad1)*%
X156500000Y-39560000D03*
D11*
%TO.P,J1,2,Pin_2_2*%
%TO.N,Net-(J1-Pin_2)*%
X156500000Y-42100000D03*
%TO.P,J1,3,Pin_3_3*%
%TO.N,unconnected-(J1-Pin_3-Pad3)*%
X156500000Y-44640000D03*
%TO.P,J1,4,Pin_4_4*%
%TO.N,unconnected-(J1-Pin_4-Pad4)*%
X156500000Y-47180000D03*
%TO.P,J1,5,Pin_5_5*%
%TO.N,unconnected-(J1-Pin_5-Pad5)*%
X156500000Y-49720000D03*
%TO.P,J1,6,Pin_6_6*%
%TO.N,unconnected-(J1-Pin_6-Pad6)*%
X156500000Y-52260000D03*
%TO.P,J1,7,Pin_7_7*%
%TO.N,unconnected-(J1-Pin_7-Pad7)*%
X156500000Y-54800000D03*
%TO.P,J1,8,Pin_8_8*%
%TO.N,Net-(J1-Pin_8)*%
X156500000Y-57340000D03*
%TO.P,J1,9,Pin_9_9*%
%TO.N,Net-(J1-Pin_9)*%
X156500000Y-59880000D03*
%TO.P,J1,10,Pin_10_10*%
%TO.N,unconnected-(J1-Pin_10-Pad10)*%
X156500000Y-62420000D03*
%TO.P,J1,11,Pin_11_11*%
%TO.N,unconnected-(J1-Pin_11-Pad11)*%
X156500000Y-64960000D03*
%TO.P,J1,12,Pin_12_12*%
%TO.N,unconnected-(J1-Pin_12-Pad12)*%
X156500000Y-67500000D03*
%TO.P,J1,13,Pin_13_13*%
%TO.N,unconnected-(J1-Pin_13-Pad13)*%
X156500000Y-70040000D03*
%TO.P,J1,14,Pin_14_14*%
%TO.N,GND*%
X156500000Y-72580000D03*
%TO.P,J1,15,Pin_15_15*%
%TO.N,Net-(5V1-Pin_2)*%
X156500000Y-75120000D03*
%TD*%
D10*
%TO.P,J2,1,Pin_1_1*%
%TO.N,Net-(J2-Pin_1)*%
X171500000Y-75060000D03*
D11*
%TO.P,J2,2,Pin_2_2*%
%TO.N,Net-(J2-Pin_2)*%
X171500000Y-72520000D03*
%TO.P,J2,3,Pin_3_3*%
%TO.N,unconnected-(J2-Pin_3-Pad3)*%
X171500000Y-69980000D03*
%TO.P,J2,4,Pin_4_4*%
%TO.N,Net-(C2-+)*%
X171500000Y-67440000D03*
%TO.P,J2,5,Pin_5_5*%
%TO.N,unconnected-(J2-Pin_5-Pad5)*%
X171500000Y-64900000D03*
%TO.P,J2,6,Pin_6_6*%
%TO.N,unconnected-(J2-Pin_6-Pad6)*%
X171500000Y-62360000D03*
%TO.P,J2,7,Pin_7_7*%
%TO.N,Net-(J2-Pin_12)*%
X171500000Y-59820000D03*
%TO.P,J2,8,Pin_8_8*%
%TO.N,Net-(J2-Pin_8)*%
X171500000Y-57280000D03*
%TO.P,J2,9,Pin_9_9*%
%TO.N,GND*%
X171500000Y-54740000D03*
%TO.P,J2,10,Pin_10_10*%
%TO.N,Net-(C2-+)*%
X171500000Y-52200000D03*
%TO.P,J2,11,Pin_11_11*%
%TO.N,unconnected-(J2-Pin_11-Pad11)*%
X171500000Y-49660000D03*
%TO.P,J2,12,Pin_12_12*%
%TO.N,Net-(J2-Pin_12)*%
X171500000Y-47120000D03*
%TO.P,J2,13,Pin_13_13*%
%TO.N,unconnected-(J2-Pin_13-Pad13)*%
X171500000Y-44580000D03*
%TO.P,J2,14,Pin_14_14*%
%TO.N,unconnected-(J2-Pin_14-Pad14)*%
X171500000Y-42040000D03*
%TO.P,J2,15,Pin_15_15*%
%TO.N,unconnected-(J2-Pin_15-Pad15)*%
X171500000Y-39500000D03*
%TD*%
D10*
%TO.P,J9,1,Pin_1_1*%
%TO.N,Net-(J2-Pin_12)*%
X181500000Y-63795000D03*
D11*
%TO.P,J9,2,Pin_2_2*%
%TO.N,Net-(C2-+)*%
X181500000Y-66335000D03*
%TO.P,J9,3,Pin_3_3*%
%TO.N,Net-(J2-Pin_8)*%
X181500000Y-68875000D03*
%TD*%
D13*
%TO.P,C1,1,+_1*%
%TO.N,Net-(C1-+)*%
X162500000Y-55000000D03*
%TO.P,C1,2,-_2*%
%TO.N,GND*%
X167500000Y-55000000D03*
%TD*%
D10*
%TO.P,J8,1,Pin_1_1*%
%TO.N,Net-(J6-Pin_1)*%
X118000000Y-62500000D03*
D11*
%TO.P,J8,2,Pin_2_2*%
%TO.N,Net-(J6-Pin_2)*%
X118000000Y-65040000D03*
%TO.P,J8,3,Pin_3_3*%
%TO.N,GND*%
X118000000Y-67580000D03*
%TO.P,J8,4,Pin_4_4*%
%TO.N,Net-(J6-Pin_4)*%
X118000000Y-70120000D03*
%TO.P,J8,5,Pin_5_5*%
%TO.N,Net-(J6-Pin_5)*%
X118000000Y-72660000D03*
%TO.P,J8,6,Pin_6_6*%
%TO.N,Net-(J6-Pin_6)*%
X118000000Y-75200000D03*
%TD*%
D12*
%TO.P,R4,1,+_1*%
%TO.N,Net-(C1-+)*%
X159500000Y-55000000D03*
%TO.P,R4,2,-_2*%
%TO.N,Net-(C2-+)*%
X159500000Y-62620000D03*
%TD*%
D10*
%TO.P,J4,1,Pin_1_1*%
%TO.N,Net-(5V1-Pin_2)*%
X181500000Y-46000000D03*
D11*
%TO.P,J4,2,Pin_2_2*%
%TO.N,GND*%
X181500000Y-48540000D03*
%TO.P,J4,3,Pin_3_3*%
%TO.N,Net-(J2-Pin_12)*%
X181500000Y-51080000D03*
%TD*%
D10*
%TO.P,Si5351,1,Pin_1_1*%
%TO.N,unconnected-(Si5351-Pin_1-Pad1)*%
X129300000Y-54500000D03*
D11*
%TO.P,Si5351,2,Pin_2_2*%
%TO.N,unconnected-(Si5351-Pin_2-Pad2)*%
X131840000Y-54500000D03*
%TO.P,Si5351,3,Pin_3_3*%
%TO.N,unconnected-(Si5351-Pin_3-Pad3)*%
X134380000Y-54500000D03*
%TO.P,Si5351,4,Pin_4_4*%
%TO.N,Net-(J1-Pin_9)*%
X136920000Y-54500000D03*
%TO.P,Si5351,5,Pin_5_5*%
%TO.N,Net-(J1-Pin_8)*%
X139460000Y-54500000D03*
%TO.P,Si5351,6,Pin_6_6*%
%TO.N,GND*%
X142000000Y-54500000D03*
%TO.P,Si5351,7,Pin_7_7*%
%TO.N,Net-(5V1-Pin_2)*%
X144540000Y-54500000D03*
%TD*%
D10*
%TO.P,J6,1,Pin_1_1*%
%TO.N,Net-(J6-Pin_1)*%
X134000000Y-62500000D03*
D11*
%TO.P,J6,2,Pin_2_2*%
%TO.N,Net-(J6-Pin_2)*%
X134000000Y-65040000D03*
%TO.P,J6,3,Pin_3_3*%
%TO.N,GND*%
X134000000Y-67580000D03*
%TO.P,J6,4,Pin_4_4*%
%TO.N,Net-(J6-Pin_4)*%
X134000000Y-70120000D03*
%TO.P,J6,5,Pin_5_5*%
%TO.N,Net-(J6-Pin_5)*%
X134000000Y-72660000D03*
%TO.P,J6,6,Pin_6_6*%
%TO.N,Net-(J6-Pin_6)*%
X134000000Y-75200000D03*
%TD*%
%TO.N,GND*%
D14*
X168000000Y-54500000D02*
X167500000Y-55000000D01*
%TO.N,Net-(5V1-Pin_2)*%
D15*
X181500000Y-75040000D02*
X185460000Y-75040000D01*
X185500000Y-74500000D02*
X185700000Y-74300000D01*
X185200000Y-46000000D02*
X181500000Y-46000000D01*
X185700000Y-45500000D02*
X185200000Y-46000000D01*
X185460000Y-75040000D02*
X185500000Y-75000000D01*
X185500000Y-75000000D02*
X185500000Y-74500000D01*
X185700000Y-74300000D02*
X185700000Y-45500000D01*
%TO.N,Net-(C3--)*%
D14*
X168310000Y-39000000D02*
X168310000Y-42380000D01*
X168310000Y-42380000D02*
X168000000Y-42690000D01*
%TO.N,Net-(J1-Pin_2)*%
X156500000Y-42100000D02*
X159600000Y-39000000D01*
X159600000Y-39000000D02*
X160690000Y-39000000D01*
%TO.N,Net-(C2-+)*%
X159500000Y-62620000D02*
X162480000Y-62620000D01*
D16*
X162380000Y-62620000D02*
X162500000Y-62500000D01*
D14*
X171500000Y-67440000D02*
X172941000Y-65999000D01*
X165600000Y-65700000D02*
X169760000Y-65700000D01*
X172941000Y-65999000D02*
X172941000Y-53641000D01*
X169760000Y-65700000D02*
X171500000Y-67440000D01*
X162500000Y-62600000D02*
X165600000Y-65700000D01*
X162480000Y-62620000D02*
X162500000Y-62600000D01*
X172941000Y-53641000D02*
X171500000Y-52200000D01*
%TO.N,Net-(C1-+)*%
X162500000Y-50310000D02*
X162500000Y-55000000D01*
X159500000Y-55000000D02*
X162500000Y-55000000D01*
%TO.N,Net-(J2-Pin_1)*%
X138600000Y-79200000D02*
X171100000Y-79200000D01*
X171100000Y-79200000D02*
X171500000Y-78800000D01*
X138500000Y-79100000D02*
X138600000Y-79200000D01*
X138500000Y-64500000D02*
X138500000Y-79100000D01*
X139825000Y-63175000D02*
X138500000Y-64500000D01*
X144525000Y-63175000D02*
X139825000Y-63175000D01*
X171500000Y-78800000D02*
X171500000Y-75060000D01*
%TO.N,Net-(J2-Pin_2)*%
X144525000Y-65715000D02*
X141285000Y-65715000D01*
X140400000Y-66600000D02*
X140400000Y-78400000D01*
X140400000Y-78400000D02*
X165620000Y-78400000D01*
X141285000Y-65715000D02*
X140400000Y-66600000D01*
X165620000Y-78400000D02*
X171500000Y-72520000D01*
%TO.N,Net-(J1-Pin_8)*%
X139460000Y-54500000D02*
X140901000Y-55941000D01*
X155101000Y-55941000D02*
X156500000Y-57340000D01*
X140901000Y-55941000D02*
X155101000Y-55941000D01*
%TO.N,Net-(J2-Pin_8)*%
D15*
X172100610Y-38050000D02*
X180050000Y-45999390D01*
X170899390Y-38050000D02*
X172100610Y-38050000D01*
X170050000Y-38899390D02*
X170899390Y-38050000D01*
X180050000Y-45999390D02*
X180050000Y-62345000D01*
X170050000Y-55830000D02*
X170050000Y-38899390D01*
X182950000Y-62345000D02*
X182950000Y-67425000D01*
X171500000Y-57280000D02*
X170050000Y-55830000D01*
X182950000Y-67425000D02*
X181500000Y-68875000D01*
X180050000Y-62345000D02*
X182950000Y-62345000D01*
%TD*%
%TA.AperFunction,Conductor*%
%TO.N,GND*%
G36*
X185742539Y-35520185D02*
G01*
X185788294Y-35572989D01*
X185799500Y-35624500D01*
X185799500Y-44775499D01*
X185779815Y-44842538D01*
X185727011Y-44888293D01*
X185675500Y-44899499D01*
X185620943Y-44899499D01*
X185558470Y-44916239D01*
X185468214Y-44940423D01*
X185468209Y-44940426D01*
X185331290Y-45019475D01*
X185331282Y-45019481D01*
X184987584Y-45363181D01*
X184926261Y-45396666D01*
X184899903Y-45399500D01*
X182974499Y-45399500D01*
X182907460Y-45379815D01*
X182861705Y-45327011D01*
X182850499Y-45275500D01*
X182850499Y-45102129D01*
X182850498Y-45102123D01*
X182850099Y-45098414D01*
X182844091Y-45042517D01*
X182811911Y-44956239D01*
X182793797Y-44907671D01*
X182793793Y-44907664D01*
X182707547Y-44792455D01*
X182707544Y-44792452D01*
X182592335Y-44706206D01*
X182592328Y-44706202D01*
X182457482Y-44655908D01*
X182457483Y-44655908D01*
X182397883Y-44649501D01*
X182397881Y-44649500D01*
X182397873Y-44649500D01*
X182397864Y-44649500D01*
X180602129Y-44649500D01*
X180602123Y-44649501D01*
X180542516Y-44655908D01*
X180407671Y-44706202D01*
X180407664Y-44706206D01*
X180292455Y-44792452D01*
X180292452Y-44792455D01*
X180206206Y-44907664D01*
X180206202Y-44907671D01*
X180165325Y-45017269D01*
X180123454Y-45073203D01*
X180057989Y-45097620D01*
X179989716Y-45082768D01*
X179961462Y-45061617D01*
X173778556Y-38878711D01*
X180649500Y-38878711D01*
X180649500Y-39121288D01*
X180681161Y-39361785D01*
X180743947Y-39596104D01*
X180835132Y-39816243D01*
X180836776Y-39820212D01*
X180958064Y-40030289D01*
X180958066Y-40030292D01*
X180958067Y-40030293D01*
X181105733Y-40222736D01*
X181105739Y-40222743D01*
X181277256Y-40394260D01*
X181277262Y-40394265D01*
X181469711Y-40541936D01*
X181679788Y-40663224D01*
X181903900Y-40756054D01*
X182138211Y-40818838D01*
X182318586Y-40842584D01*
X182378711Y-40850500D01*
X182378712Y-40850500D01*
X182621289Y-40850500D01*
X182669388Y-40844167D01*
X182861789Y-40818838D01*
X183096100Y-40756054D01*
X183320212Y-40663224D01*
X183530289Y-40541936D01*
X183722738Y-40394265D01*
X183894265Y-40222738D01*
X184041936Y-40030289D01*
X184163224Y-39820212D01*
X184256054Y-39596100D01*
X184318838Y-39361789D01*
X184350500Y-39121288D01*
X184350500Y-38878712D01*
X184318838Y-38638211D01*
X184256054Y-38403900D01*
X184163224Y-38179788D01*
X184041936Y-37969711D01*
X183894265Y-37777262D01*
X183894260Y-37777256D01*
X183722743Y-37605739D01*
X183722736Y-37605733D01*
X183530293Y-37458067D01*
X183530292Y-37458066D01*
X183530289Y-37458064D01*
X183320212Y-37336776D01*
X183320205Y-37336773D01*
X183096104Y-37243947D01*
X182861785Y-37181161D01*
X182621289Y-37149500D01*
X182621288Y-37149500D01*
X182378712Y-37149500D01*
X182378711Y-37149500D01*
X182138214Y-37181161D01*
X181903895Y-37243947D01*
X181679794Y-37336773D01*
X181679785Y-37336777D01*
X181469706Y-37458067D01*
X181277263Y-37605733D01*
X181277256Y-37605739D01*
X181105739Y-37777256D01*
X181105733Y-37777263D01*
X180958067Y-37969706D01*
X180836777Y-38179785D01*
X180836773Y-38179794D01*
X180743947Y-38403895D01*
X180681161Y-38638214D01*
X180649500Y-38878711D01*
X173778556Y-38878711D01*
X172588200Y-37688355D01*
X172588198Y-37688352D01*
X172469327Y-37569481D01*
X172469326Y-37569480D01*
X172382514Y-37519360D01*
X172382514Y-37519359D01*
X172382510Y-37519358D01*
X172332395Y-37490423D01*
X172179667Y-37449499D01*
X172021553Y-37449499D01*
X172013957Y-37449499D01*
X172013941Y-37449500D01*
X170986059Y-37449500D01*
X170986043Y-37449499D01*
X170978447Y-37449499D01*
X170820333Y-37449499D01*
X170712977Y-37478265D01*
X170667600Y-37490424D01*
X170667599Y-37490425D01*
X170617486Y-37519359D01*
X170617485Y-37519360D01*
X170574079Y-37544420D01*
X170530675Y-37569479D01*
X170530672Y-37569481D01*
X170015844Y-38084310D01*
X169681286Y-38418868D01*
X169681284Y-38418870D01*
X169632490Y-38467664D01*
X169589958Y-38510196D01*
X169528634Y-38543680D01*
X169458943Y-38538696D01*
X169403009Y-38496824D01*
X169391792Y-38478808D01*
X169386117Y-38467671D01*
X169361253Y-38418871D01*
X169336761Y-38370802D01*
X169320075Y-38347836D01*
X169225690Y-38217927D01*
X169092073Y-38084310D01*
X168939199Y-37973240D01*
X168932263Y-37969706D01*
X168770836Y-37887454D01*
X168591118Y-37829059D01*
X168404486Y-37799500D01*
X168404481Y-37799500D01*
X168215519Y-37799500D01*
X168215514Y-37799500D01*
X168028881Y-37829059D01*
X167849163Y-37887454D01*
X167680800Y-37973240D01*
X167593579Y-38036610D01*
X167527927Y-38084310D01*
X167527925Y-38084312D01*
X167527924Y-38084312D01*
X167394312Y-38217924D01*
X167394312Y-38217925D01*
X167394310Y-38217927D01*
X167359236Y-38266202D01*
X167283240Y-38370800D01*
X167197454Y-38539163D01*
X167139059Y-38718881D01*
X167109500Y-38905513D01*
X167109500Y-39094486D01*
X167139059Y-39281118D01*
X167197454Y-39460836D01*
X167266375Y-39596100D01*
X167283240Y-39629199D01*
X167394310Y-39782073D01*
X167527927Y-39915690D01*
X167527930Y-39915692D01*
X167668385Y-40017739D01*
X167711051Y-40073069D01*
X167719500Y-40118057D01*
X167719500Y-41428768D01*
X167699815Y-41495807D01*
X167647011Y-41541562D01*
X167633821Y-41546697D01*
X167613083Y-41553436D01*
X167539163Y-41577454D01*
X167370800Y-41663240D01*
X167287507Y-41723757D01*
X167217927Y-41774310D01*
X167217925Y-41774312D01*
X167217924Y-41774312D01*
X167084312Y-41907924D01*
X167084312Y-41907925D01*
X167084310Y-41907927D01*
X167036610Y-41973579D01*
X166973240Y-42060800D01*
X166887454Y-42229163D01*
X166829059Y-42408881D01*
X166799500Y-42595513D01*
X166799500Y-42784486D01*
X166829059Y-42971118D01*
X166887454Y-43150836D01*
X166940992Y-43255909D01*
X166973240Y-43319199D01*
X167084310Y-43472073D01*
X167217927Y-43605690D01*
X167370801Y-43716760D01*
X167450347Y-43757290D01*
X167539163Y-43802545D01*
X167539165Y-43802545D01*
X167539168Y-43802547D01*
X167635497Y-43833846D01*
X167718881Y-43860940D01*
X167905514Y-43890500D01*
X167905519Y-43890500D01*
X168094486Y-43890500D01*
X168281118Y-43860940D01*
X168460832Y-43802547D01*
X168629199Y-43716760D01*
X168782073Y-43605690D01*
X168915690Y-43472073D01*
X169026760Y-43319199D01*
X169112547Y-43150832D01*
X169170940Y-42971118D01*
X169196804Y-42807820D01*
X169200500Y-42784486D01*
X169200500Y-42595513D01*
X169170940Y-42408881D01*
X169112545Y-42229163D01*
X169026759Y-42060800D01*
X168978017Y-41993713D01*
X168924181Y-41919614D01*
X168900702Y-41853810D01*
X168900500Y-41846730D01*
X168900500Y-40118057D01*
X168920185Y-40051018D01*
X168951615Y-40017739D01*
X169092073Y-39915690D01*
X169225690Y-39782073D01*
X169225697Y-39782062D01*
X169228854Y-39778368D01*
X169229821Y-39779194D01*
X169280508Y-39740107D01*
X169350121Y-39734126D01*
X169411917Y-39766730D01*
X169446276Y-39827567D01*
X169449500Y-39855657D01*
X169449500Y-55743330D01*
X169449499Y-55743348D01*
X169449499Y-55909054D01*
X169449498Y-55909054D01*
X169490424Y-56061789D01*
X169490425Y-56061790D01*
X169505813Y-56088442D01*
X169505814Y-56088443D01*
X169569477Y-56198712D01*
X169569481Y-56198717D01*
X169688349Y-56317585D01*
X169688355Y-56317590D01*
X170166241Y-56795476D01*
X170199726Y-56856799D01*
X170196492Y-56921473D01*
X170182753Y-56963757D01*
X170173250Y-57023760D01*
X170149500Y-57173713D01*
X170149500Y-57386287D01*
X170182754Y-57596243D01*
X170202249Y-57656243D01*
X170248444Y-57798414D01*
X170344951Y-57987820D01*
X170469890Y-58159786D01*
X170620213Y-58310109D01*
X170792182Y-58435050D01*
X170800946Y-58439516D01*
X170851742Y-58487491D01*
X170868536Y-58555312D01*
X170845998Y-58621447D01*
X170800946Y-58660484D01*
X170792182Y-58664949D01*
X170620213Y-58789890D01*
X170469890Y-58940213D01*
X170344951Y-59112179D01*
X170248444Y-59301585D01*
X170182753Y-59503760D01*
X170173250Y-59563760D01*
X170149500Y-59713713D01*
X170149500Y-59926287D01*
X170182754Y-60136243D01*
X170202249Y-60196243D01*
X170248444Y-60338414D01*
X170344951Y-60527820D01*
X170469890Y-60699786D01*
X170620213Y-60850109D01*
X170792182Y-60975050D01*
X170800946Y-60979516D01*
X170851742Y-61027491D01*
X170868536Y-61095312D01*
X170845998Y-61161447D01*
X170800946Y-61200484D01*
X170792182Y-61204949D01*
X170620213Y-61329890D01*
X170469890Y-61480213D01*
X170344951Y-61652179D01*
X170248444Y-61841585D01*
X170182753Y-62043760D01*
X170158007Y-62200000D01*
X170149500Y-62253713D01*
X170149500Y-62466287D01*
X170182754Y-62676243D01*
X170231257Y-62825520D01*
X170248444Y-62878414D01*
X170344951Y-63067820D01*
X170469890Y-63239786D01*
X170620213Y-63390109D01*
X170792182Y-63515050D01*
X170800946Y-63519516D01*
X170851742Y-63567491D01*
X170868536Y-63635312D01*
X170845998Y-63701447D01*
X170800946Y-63740484D01*
X170792182Y-63744949D01*
X170620213Y-63869890D01*
X170469890Y-64020213D01*
X170344951Y-64192179D01*
X170248444Y-64381585D01*
X170182753Y-64583760D01*
X170159763Y-64728916D01*
X170149500Y-64793713D01*
X170149500Y-65006287D01*
X170150524Y-65012750D01*
X170141567Y-65082044D01*
X170096569Y-65135494D01*
X170029817Y-65156132D01*
X169996343Y-65149733D01*
X169995777Y-65151846D01*
X169987891Y-65149733D01*
X169956188Y-65141237D01*
X169893723Y-65124500D01*
X169837741Y-65109500D01*
X169837740Y-65109500D01*
X165895955Y-65109500D01*
X165828916Y-65089815D01*
X165808274Y-65073181D01*
X163790609Y-63055516D01*
X163757124Y-62994193D01*
X163760358Y-62929518D01*
X163768477Y-62904534D01*
X163800500Y-62702352D01*
X163800500Y-62497682D01*
X166200000Y-62497682D01*
X166200000Y-62702317D01*
X166232009Y-62904417D01*
X166295244Y-63099031D01*
X166388141Y-63281350D01*
X166388147Y-63281359D01*
X166420523Y-63325921D01*
X166420524Y-63325922D01*
X167100000Y-62646446D01*
X167100000Y-62652661D01*
X167127259Y-62754394D01*
X167179920Y-62845606D01*
X167254394Y-62920080D01*
X167345606Y-62972741D01*
X167447339Y-63000000D01*
X167453553Y-63000000D01*
X166774076Y-63679474D01*
X166818650Y-63711859D01*
X167000968Y-63804755D01*
X167195582Y-63867990D01*
X167397683Y-63900000D01*
X167602317Y-63900000D01*
X167804417Y-63867990D01*
X167999031Y-63804755D01*
X168181349Y-63711859D01*
X168225921Y-63679474D01*
X167546447Y-63000000D01*
X167552661Y-63000000D01*
X167654394Y-62972741D01*
X167745606Y-62920080D01*
X167820080Y-62845606D01*
X167872741Y-62754394D01*
X167900000Y-62652661D01*
X167900000Y-62646447D01*
X168579474Y-63325921D01*
X168611859Y-63281349D01*
X168704755Y-63099031D01*
X168767990Y-62904417D01*
X168800000Y-62702317D01*
X168800000Y-62497682D01*
X168767990Y-62295582D01*
X168704755Y-62100968D01*
X168611859Y-61918650D01*
X168579474Y-61874077D01*
X168579474Y-61874076D01*
X167900000Y-62553551D01*
X167900000Y-62547339D01*
X167872741Y-62445606D01*
X167820080Y-62354394D01*
X167745606Y-62279920D01*
X167654394Y-62227259D01*
X167552661Y-62200000D01*
X167546446Y-62200000D01*
X168225922Y-61520524D01*
X168225921Y-61520523D01*
X168181359Y-61488147D01*
X168181350Y-61488141D01*
X167999031Y-61395244D01*
X167804417Y-61332009D01*
X167602317Y-61300000D01*
X167397683Y-61300000D01*
X167195582Y-61332009D01*
X167000968Y-61395244D01*
X166818644Y-61488143D01*
X166774077Y-61520523D01*
X166774077Y-61520524D01*
X167453554Y-62200000D01*
X167447339Y-62200000D01*
X167345606Y-62227259D01*
X167254394Y-62279920D01*
X167179920Y-62354394D01*
X167127259Y-62445606D01*
X167100000Y-62547339D01*
X167100000Y-62553553D01*
X166420524Y-61874077D01*
X166420523Y-61874077D01*
X166388143Y-61918644D01*
X166295244Y-62100968D01*
X166232009Y-62295582D01*
X166200000Y-62497682D01*
X163800500Y-62497682D01*
X163800500Y-62497648D01*
X163788844Y-62424056D01*
X163768477Y-62295465D01*
X163706187Y-62103757D01*
X163705220Y-62100781D01*
X163705218Y-62100778D01*
X163705218Y-62100776D01*
X163649182Y-61990801D01*
X163612287Y-61918390D01*
X163610868Y-61916437D01*
X163600740Y-61902496D01*
X163590573Y-61885906D01*
X163584546Y-61874077D01*
X163569524Y-61844594D01*
X163453829Y-61685354D01*
X163314646Y-61546171D01*
X163155406Y-61430476D01*
X163133864Y-61419500D01*
X162980030Y-61341117D01*
X162792827Y-61280290D01*
X162598422Y-61249500D01*
X162598417Y-61249500D01*
X162401584Y-61249500D01*
X162401579Y-61249500D01*
X162207173Y-61280290D01*
X162019969Y-61341117D01*
X161844594Y-61430476D01*
X161765226Y-61488141D01*
X161685355Y-61546171D01*
X161685353Y-61546173D01*
X161685352Y-61546173D01*
X161426174Y-61805351D01*
X161426174Y-61805352D01*
X161426172Y-61805354D01*
X161376242Y-61874076D01*
X161310471Y-61964601D01*
X161307931Y-61968747D01*
X161306285Y-61967738D01*
X161263938Y-62012585D01*
X161201418Y-62029500D01*
X160618058Y-62029500D01*
X160551019Y-62009815D01*
X160517740Y-61978386D01*
X160474339Y-61918650D01*
X160415690Y-61837927D01*
X160282073Y-61704310D01*
X160129199Y-61593240D01*
X159960836Y-61507454D01*
X159781118Y-61449059D01*
X159594486Y-61419500D01*
X159594481Y-61419500D01*
X159405519Y-61419500D01*
X159405514Y-61419500D01*
X159218881Y-61449059D01*
X159039163Y-61507454D01*
X158870800Y-61593240D01*
X158789679Y-61652179D01*
X158717927Y-61704310D01*
X158717925Y-61704312D01*
X158717924Y-61704312D01*
X158584312Y-61837924D01*
X158584312Y-61837925D01*
X158584310Y-61837927D01*
X158549451Y-61885906D01*
X158473240Y-61990800D01*
X158387454Y-62159163D01*
X158329059Y-62338881D01*
X158299500Y-62525513D01*
X158299500Y-62714486D01*
X158329059Y-62901118D01*
X158387454Y-63080836D01*
X158453522Y-63210500D01*
X158473240Y-63249199D01*
X158584310Y-63402073D01*
X158717927Y-63535690D01*
X158870801Y-63646760D01*
X158919468Y-63671557D01*
X159039163Y-63732545D01*
X159039165Y-63732545D01*
X159039168Y-63732547D01*
X159135497Y-63763846D01*
X159218881Y-63790940D01*
X159405514Y-63820500D01*
X159405519Y-63820500D01*
X159594486Y-63820500D01*
X159781118Y-63790940D01*
X159818228Y-63778882D01*
X159960832Y-63732547D01*
X160129199Y-63646760D01*
X160282073Y-63535690D01*
X160415690Y-63402073D01*
X160517740Y-63261614D01*
X160573071Y-63218949D01*
X160618058Y-63210500D01*
X161201418Y-63210500D01*
X161268457Y-63230185D01*
X161306437Y-63272168D01*
X161307931Y-63271253D01*
X161310471Y-63275398D01*
X161310475Y-63275404D01*
X161310476Y-63275405D01*
X161426172Y-63434646D01*
X161565354Y-63573828D01*
X161724595Y-63689524D01*
X161899974Y-63778884D01*
X162078461Y-63836878D01*
X162087174Y-63839709D01*
X162116070Y-63844285D01*
X162134991Y-63848827D01*
X162195466Y-63868477D01*
X162397648Y-63900500D01*
X162397649Y-63900500D01*
X162602351Y-63900500D01*
X162602352Y-63900500D01*
X162804534Y-63868477D01*
X162829518Y-63860358D01*
X162899357Y-63858364D01*
X162955516Y-63890609D01*
X165237425Y-66172518D01*
X165372075Y-66250258D01*
X165387943Y-66254510D01*
X165403810Y-66258762D01*
X165403811Y-66258762D01*
X165428842Y-66265468D01*
X165522259Y-66290500D01*
X169464045Y-66290500D01*
X169531084Y-66310185D01*
X169551726Y-66326819D01*
X170169709Y-66944802D01*
X170203194Y-67006125D01*
X170199960Y-67070799D01*
X170182753Y-67123757D01*
X170159117Y-67272993D01*
X170149500Y-67333713D01*
X170149500Y-67546287D01*
X170154840Y-67580000D01*
X170177005Y-67719949D01*
X170182754Y-67756243D01*
X170228206Y-67896130D01*
X170248444Y-67958414D01*
X170344951Y-68147820D01*
X170469890Y-68319786D01*
X170620213Y-68470109D01*
X170792182Y-68595050D01*
X170800946Y-68599516D01*
X170851742Y-68647491D01*
X170868536Y-68715312D01*
X170845998Y-68781447D01*
X170800946Y-68820484D01*
X170792182Y-68824949D01*
X170620213Y-68949890D01*
X170469890Y-69100213D01*
X170344951Y-69272179D01*
X170248444Y-69461585D01*
X170182753Y-69663760D01*
X170160457Y-69804534D01*
X170149500Y-69873713D01*
X170149500Y-70086287D01*
X170182754Y-70296243D01*
X170246350Y-70491971D01*
X170248444Y-70498414D01*
X170344951Y-70687820D01*
X170469890Y-70859786D01*
X170620213Y-71010109D01*
X170792182Y-71135050D01*
X170800946Y-71139516D01*
X170851742Y-71187491D01*
X170868536Y-71255312D01*
X170845998Y-71321447D01*
X170800946Y-71360484D01*
X170792182Y-71364949D01*
X170620213Y-71489890D01*
X170469890Y-71640213D01*
X170344951Y-71812179D01*
X170248444Y-72001585D01*
X170182753Y-72203760D01*
X170149500Y-72413713D01*
X170149500Y-72626286D01*
X170182754Y-72836244D01*
X170182754Y-72836247D01*
X170199959Y-72889197D01*
X170201954Y-72959038D01*
X170169709Y-73015196D01*
X165411726Y-77773181D01*
X165350403Y-77806666D01*
X165324045Y-77809500D01*
X141114500Y-77809500D01*
X141047461Y-77789815D01*
X141001706Y-77737011D01*
X140990500Y-77685500D01*
X140990500Y-66895955D01*
X141010185Y-66828916D01*
X141026819Y-66808274D01*
X141493274Y-66341819D01*
X141554597Y-66308334D01*
X141580955Y-66305500D01*
X143641671Y-66305500D01*
X143708710Y-66325185D01*
X143754465Y-66377989D01*
X143765289Y-66439229D01*
X143763282Y-66464728D01*
X144395591Y-67097037D01*
X144332007Y-67114075D01*
X144217993Y-67179901D01*
X144124901Y-67272993D01*
X144059075Y-67387007D01*
X144042037Y-67450591D01*
X143409728Y-66818282D01*
X143409727Y-66818282D01*
X143370380Y-66872439D01*
X143273904Y-67061782D01*
X143208242Y-67263869D01*
X143208242Y-67263872D01*
X143175000Y-67473753D01*
X143175000Y-67686246D01*
X143208242Y-67896127D01*
X143208242Y-67896130D01*
X143273904Y-68098217D01*
X143370375Y-68287550D01*
X143409728Y-68341716D01*
X144042037Y-67709408D01*
X144059075Y-67772993D01*
X144124901Y-67887007D01*
X144217993Y-67980099D01*
X144332007Y-68045925D01*
X144395590Y-68062962D01*
X143763282Y-68695269D01*
X143763282Y-68695270D01*
X143817452Y-68734626D01*
X143817451Y-68734626D01*
X143826495Y-68739234D01*
X143877292Y-68787208D01*
X143894087Y-68855029D01*
X143871550Y-68921164D01*
X143826499Y-68960202D01*
X143817182Y-68964949D01*
X143645213Y-69089890D01*
X143494890Y-69240213D01*
X143369951Y-69412179D01*
X143273444Y-69601585D01*
X143207753Y-69803760D01*
X143174500Y-70013713D01*
X143174500Y-70226286D01*
X143195082Y-70356239D01*
X143207754Y-70436243D01*
X143264954Y-70612287D01*
X143273444Y-70638414D01*
X143369951Y-70827820D01*
X143494890Y-70999786D01*
X143645213Y-71150109D01*
X143817182Y-71275050D01*
X143825946Y-71279516D01*
X143876742Y-71327491D01*
X143893536Y-71395312D01*
X143870998Y-71461447D01*
X143825946Y-71500484D01*
X143817182Y-71504949D01*
X143645213Y-71629890D01*
X143494890Y-71780213D01*
X143369951Y-71952179D01*
X143273444Y-72141585D01*
X143207753Y-72343760D01*
X143184864Y-72488279D01*
X143174500Y-72553713D01*
X143174500Y-72766287D01*
X143184534Y-72829644D01*
X143207753Y-72976239D01*
X143273444Y-73178414D01*
X143369951Y-73367820D01*
X143494890Y-73539786D01*
X143645213Y-73690109D01*
X143817182Y-73815050D01*
X143825946Y-73819516D01*
X143876742Y-73867491D01*
X143893536Y-73935312D01*
X143870998Y-74001447D01*
X143825946Y-74040484D01*
X143817182Y-74044949D01*
X143645213Y-74169890D01*
X143494890Y-74320213D01*
X143369951Y-74492179D01*
X143273444Y-74681585D01*
X143207753Y-74883760D01*
X143174500Y-75093713D01*
X143174500Y-75306286D01*
X143203909Y-75491971D01*
X143207754Y-75516243D01*
X143271681Y-75712990D01*
X143273444Y-75718414D01*
X143369951Y-75907820D01*
X143494890Y-76079786D01*
X143645213Y-76230109D01*
X143817179Y-76355048D01*
X143817181Y-76355049D01*
X143817184Y-76355051D01*
X144006588Y-76451557D01*
X144208757Y-76517246D01*
X144418713Y-76550500D01*
X144418714Y-76550500D01*
X144631286Y-76550500D01*
X144631287Y-76550500D01*
X144841243Y-76517246D01*
X145043412Y-76451557D01*
X145232816Y-76355051D01*
X145320209Y-76291557D01*
X145404786Y-76230109D01*
X145404788Y-76230106D01*
X145404792Y-76230104D01*
X145555104Y-76079792D01*
X145555106Y-76079788D01*
X145555109Y-76079786D01*
X145680048Y-75907820D01*
X145680047Y-75907820D01*
X145680051Y-75907816D01*
X145776557Y-75718412D01*
X145842246Y-75516243D01*
X145875500Y-75306287D01*
X145875500Y-75093713D01*
X145842246Y-74883757D01*
X145776557Y-74681588D01*
X145680051Y-74492184D01*
X145680049Y-74492181D01*
X145680048Y-74492179D01*
X145555109Y-74320213D01*
X145404786Y-74169890D01*
X145232820Y-74044951D01*
X145232115Y-74044591D01*
X145224054Y-74040485D01*
X145173259Y-73992512D01*
X145156463Y-73924692D01*
X145178999Y-73858556D01*
X145224054Y-73819515D01*
X145232816Y-73815051D01*
X145300049Y-73766204D01*
X145404786Y-73690109D01*
X145404788Y-73690106D01*
X145404792Y-73690104D01*
X145555104Y-73539792D01*
X145555106Y-73539788D01*
X145555109Y-73539786D01*
X145680048Y-73367820D01*
X145680047Y-73367820D01*
X145680051Y-73367816D01*
X145776557Y-73178412D01*
X145842246Y-72976243D01*
X145875500Y-72766287D01*
X145875500Y-72553713D01*
X145842246Y-72343757D01*
X145776557Y-72141588D01*
X145680051Y-71952184D01*
X145680049Y-71952181D01*
X145680048Y-71952179D01*
X145555109Y-71780213D01*
X145404786Y-71629890D01*
X145232820Y-71504951D01*
X145232115Y-71504591D01*
X145224054Y-71500485D01*
X145173259Y-71452512D01*
X145156463Y-71384692D01*
X145178999Y-71318556D01*
X145224054Y-71279515D01*
X145232816Y-71275051D01*
X145326964Y-71206649D01*
X145404786Y-71150109D01*
X145404788Y-71150106D01*
X145404792Y-71150104D01*
X145555104Y-70999792D01*
X145555106Y-70999788D01*
X145555109Y-70999786D01*
X145680048Y-70827820D01*
X145680047Y-70827820D01*
X145680051Y-70827816D01*
X145776557Y-70638412D01*
X145842246Y-70436243D01*
X145875500Y-70226287D01*
X145875500Y-70013713D01*
X145842246Y-69803757D01*
X145776557Y-69601588D01*
X145680051Y-69412184D01*
X145680049Y-69412181D01*
X145680048Y-69412179D01*
X145555109Y-69240213D01*
X145404786Y-69089890D01*
X145232817Y-68964949D01*
X145223504Y-68960204D01*
X145172707Y-68912230D01*
X145155912Y-68844409D01*
X145178449Y-68778274D01*
X145223507Y-68739232D01*
X145232555Y-68734622D01*
X145286716Y-68695270D01*
X145286717Y-68695270D01*
X144654408Y-68062962D01*
X144717993Y-68045925D01*
X144832007Y-67980099D01*
X144925099Y-67887007D01*
X144990925Y-67772993D01*
X145007962Y-67709408D01*
X145640270Y-68341717D01*
X145640270Y-68341716D01*
X145679622Y-68287554D01*
X145776095Y-68098217D01*
X145841757Y-67896130D01*
X145841757Y-67896127D01*
X145875000Y-67686246D01*
X145875000Y-67473753D01*
X145841757Y-67263872D01*
X145841757Y-67263869D01*
X145776095Y-67061782D01*
X145679624Y-66872449D01*
X145640270Y-66818282D01*
X145640269Y-66818282D01*
X145007962Y-67450590D01*
X144990925Y-67387007D01*
X144925099Y-67272993D01*
X144832007Y-67179901D01*
X144717993Y-67114075D01*
X144654409Y-67097037D01*
X145286716Y-66464728D01*
X145232547Y-66425373D01*
X145232547Y-66425372D01*
X145223500Y-66420763D01*
X145172706Y-66372788D01*
X145155912Y-66304966D01*
X145178451Y-66238832D01*
X145223508Y-66199793D01*
X145232816Y-66195051D01*
X145336782Y-66119516D01*
X145404786Y-66070109D01*
X145404788Y-66070106D01*
X145404792Y-66070104D01*
X145555104Y-65919792D01*
X145555106Y-65919788D01*
X145555109Y-65919786D01*
X145680048Y-65747820D01*
X145680047Y-65747820D01*
X145680051Y-65747816D01*
X145776557Y-65558412D01*
X145842246Y-65356243D01*
X145875500Y-65146287D01*
X145875500Y-64933713D01*
X145842246Y-64723757D01*
X145776557Y-64521588D01*
X145680051Y-64332184D01*
X145680049Y-64332181D01*
X145680048Y-64332179D01*
X145555109Y-64160213D01*
X145441569Y-64046673D01*
X145408084Y-63985350D01*
X145413068Y-63915658D01*
X145454940Y-63859725D01*
X145485915Y-63842810D01*
X145617331Y-63793796D01*
X145732546Y-63707546D01*
X145818796Y-63592331D01*
X145869091Y-63457483D01*
X145875500Y-63397873D01*
X145875499Y-61602128D01*
X145869091Y-61542517D01*
X145860888Y-61520524D01*
X145818797Y-61407671D01*
X145818793Y-61407664D01*
X145732547Y-61292455D01*
X145732544Y-61292452D01*
X145617335Y-61206206D01*
X145617328Y-61206202D01*
X145482482Y-61155908D01*
X145482483Y-61155908D01*
X145422883Y-61149501D01*
X145422881Y-61149500D01*
X145422873Y-61149500D01*
X145422864Y-61149500D01*
X143627129Y-61149500D01*
X143627123Y-61149501D01*
X143567516Y-61155908D01*
X143432671Y-61206202D01*
X143432664Y-61206206D01*
X143317455Y-61292452D01*
X143317452Y-61292455D01*
X143231206Y-61407664D01*
X143231202Y-61407671D01*
X143180908Y-61542517D01*
X143175455Y-61593240D01*
X143174500Y-61602127D01*
X143174500Y-62043760D01*
X143174501Y-62460500D01*
X143154817Y-62527539D01*
X143102013Y-62573294D01*
X143050501Y-62584500D01*
X139747259Y-62584500D01*
X139628813Y-62616236D01*
X139628812Y-62616237D01*
X139612943Y-62620489D01*
X139597073Y-62624742D01*
X139462431Y-62702477D01*
X139462423Y-62702483D01*
X138027483Y-64137423D01*
X138027479Y-64137428D01*
X137949741Y-64272074D01*
X137949742Y-64272074D01*
X137949742Y-64272075D01*
X137949742Y-64272076D01*
X137909500Y-64422259D01*
X137909500Y-79177741D01*
X137910417Y-79181162D01*
X137927240Y-79243946D01*
X137949742Y-79327926D01*
X137949743Y-79327927D01*
X138027479Y-79462571D01*
X138027481Y-79462574D01*
X138027482Y-79462575D01*
X138237424Y-79672517D01*
X138237425Y-79672518D01*
X138237427Y-79672519D01*
X138372071Y-79750256D01*
X138372072Y-79750256D01*
X138372075Y-79750258D01*
X138390396Y-79755167D01*
X138403810Y-79758762D01*
X138403811Y-79758762D01*
X138428842Y-79765468D01*
X138522259Y-79790500D01*
X138522261Y-79790500D01*
X171177739Y-79790500D01*
X171177741Y-79790500D01*
X171296187Y-79758762D01*
X171327925Y-79750258D01*
X171462575Y-79672518D01*
X171972517Y-79162576D01*
X172042096Y-79042060D01*
X172042098Y-79042058D01*
X172050256Y-79027927D01*
X172050257Y-79027925D01*
X172050258Y-79027924D01*
X172090500Y-78877741D01*
X172090500Y-76534499D01*
X172110185Y-76467460D01*
X172162989Y-76421705D01*
X172214500Y-76410499D01*
X172397871Y-76410499D01*
X172397872Y-76410499D01*
X172457483Y-76404091D01*
X172592331Y-76353796D01*
X172707546Y-76267546D01*
X172793796Y-76152331D01*
X172844091Y-76017483D01*
X172850500Y-75957873D01*
X172850499Y-74162128D01*
X172844091Y-74102517D01*
X172839381Y-74089890D01*
X172793797Y-73967671D01*
X172793793Y-73967664D01*
X172707547Y-73852455D01*
X172707544Y-73852452D01*
X172592335Y-73766206D01*
X172592328Y-73766202D01*
X172460917Y-73717189D01*
X172404983Y-73675318D01*
X172380566Y-73609853D01*
X172395418Y-73541580D01*
X172416563Y-73513332D01*
X172530104Y-73399792D01*
X172538879Y-73387715D01*
X172655048Y-73227820D01*
X172655047Y-73227820D01*
X172655051Y-73227816D01*
X172751557Y-73038412D01*
X172817246Y-72836243D01*
X172850500Y-72626287D01*
X172850500Y-72413713D01*
X172817246Y-72203757D01*
X172751557Y-72001588D01*
X172655051Y-71812184D01*
X172631819Y-71780208D01*
X172553013Y-71671739D01*
X172553010Y-71671736D01*
X172530104Y-71640208D01*
X172379792Y-71489896D01*
X172379786Y-71489890D01*
X172207820Y-71364951D01*
X172207115Y-71364591D01*
X172199054Y-71360485D01*
X172148259Y-71312512D01*
X172131463Y-71244692D01*
X172153999Y-71178556D01*
X172199054Y-71139515D01*
X172207816Y-71135051D01*
X172297209Y-71070104D01*
X172379786Y-71010109D01*
X172379788Y-71010106D01*
X172379792Y-71010104D01*
X172530104Y-70859792D01*
X172530106Y-70859788D01*
X172530109Y-70859786D01*
X172655048Y-70687820D01*
X172655047Y-70687820D01*
X172655051Y-70687816D01*
X172751557Y-70498412D01*
X172817246Y-70296243D01*
X172850500Y-70086287D01*
X172850500Y-69873713D01*
X172817246Y-69663757D01*
X172751557Y-69461588D01*
X172655051Y-69272184D01*
X172655049Y-69272181D01*
X172655048Y-69272179D01*
X172530109Y-69100213D01*
X172379786Y-68949890D01*
X172207820Y-68824951D01*
X172207115Y-68824591D01*
X172199054Y-68820485D01*
X172148259Y-68772512D01*
X172131463Y-68704692D01*
X172153999Y-68638556D01*
X172199054Y-68599515D01*
X172207816Y-68595051D01*
X172315966Y-68516476D01*
X172379786Y-68470109D01*
X172379788Y-68470106D01*
X172379792Y-68470104D01*
X172530104Y-68319792D01*
X172530106Y-68319788D01*
X172530109Y-68319786D01*
X172655048Y-68147820D01*
X172655047Y-68147820D01*
X172655051Y-68147816D01*
X172751557Y-67958412D01*
X172817246Y-67756243D01*
X172850500Y-67546287D01*
X172850500Y-67333713D01*
X172817246Y-67123757D01*
X172800038Y-67070799D01*
X172798044Y-67000960D01*
X172830287Y-66944804D01*
X173413518Y-66361575D01*
X173491258Y-66226924D01*
X173505836Y-66172518D01*
X173531500Y-66076741D01*
X173531500Y-53563259D01*
X173491258Y-53413076D01*
X173488136Y-53407669D01*
X173413518Y-53278425D01*
X172830289Y-52695196D01*
X172796804Y-52633873D01*
X172800040Y-52569195D01*
X172817246Y-52516243D01*
X172850500Y-52306287D01*
X172850500Y-52093713D01*
X172817246Y-51883757D01*
X172751557Y-51681588D01*
X172655051Y-51492184D01*
X172655049Y-51492181D01*
X172655048Y-51492179D01*
X172530109Y-51320213D01*
X172379786Y-51169890D01*
X172207820Y-51044951D01*
X172207115Y-51044591D01*
X172199054Y-51040485D01*
X172148259Y-50992512D01*
X172131463Y-50924692D01*
X172153999Y-50858556D01*
X172199054Y-50819515D01*
X172207816Y-50815051D01*
X172297209Y-50750104D01*
X172379786Y-50690109D01*
X172379788Y-50690106D01*
X172379792Y-50690104D01*
X172530104Y-50539792D01*
X172530106Y-50539788D01*
X172530109Y-50539786D01*
X172655048Y-50367820D01*
X172655047Y-50367820D01*
X172655051Y-50367816D01*
X172751557Y-50178412D01*
X172817246Y-49976243D01*
X172850500Y-49766287D01*
X172850500Y-49553713D01*
X172817246Y-49343757D01*
X172751557Y-49141588D01*
X172655051Y-48952184D01*
X172655049Y-48952181D01*
X172655048Y-48952179D01*
X172530109Y-48780213D01*
X172379786Y-48629890D01*
X172207820Y-48504951D01*
X172207115Y-48504591D01*
X172199054Y-48500485D01*
X172148259Y-48452512D01*
X172131463Y-48384692D01*
X172153999Y-48318556D01*
X172199054Y-48279515D01*
X172207816Y-48275051D01*
X172265704Y-48232993D01*
X172379786Y-48150109D01*
X172379788Y-48150106D01*
X172379792Y-48150104D01*
X172530104Y-47999792D01*
X172530106Y-47999788D01*
X172530109Y-47999786D01*
X172655048Y-47827820D01*
X172655047Y-47827820D01*
X172655051Y-47827816D01*
X172751557Y-47638412D01*
X172817246Y-47436243D01*
X172850500Y-47226287D01*
X172850500Y-47013713D01*
X172817246Y-46803757D01*
X172751557Y-46601588D01*
X172655051Y-46412184D01*
X172655049Y-46412181D01*
X172655048Y-46412179D01*
X172530109Y-46240213D01*
X172379786Y-46089890D01*
X172207820Y-45964951D01*
X172207115Y-45964591D01*
X172199054Y-45960485D01*
X172148259Y-45912512D01*
X172131463Y-45844692D01*
X172153999Y-45778556D01*
X172199054Y-45739515D01*
X172207816Y-45735051D01*
X172266610Y-45692335D01*
X172379786Y-45610109D01*
X172379788Y-45610106D01*
X172379792Y-45610104D01*
X172530104Y-45459792D01*
X172530106Y-45459788D01*
X172530109Y-45459786D01*
X172655048Y-45287820D01*
X172655047Y-45287820D01*
X172655051Y-45287816D01*
X172751557Y-45098412D01*
X172817246Y-44896243D01*
X172850500Y-44686287D01*
X172850500Y-44473713D01*
X172817246Y-44263757D01*
X172751557Y-44061588D01*
X172655051Y-43872184D01*
X172655049Y-43872181D01*
X172655048Y-43872179D01*
X172530109Y-43700213D01*
X172379786Y-43549890D01*
X172207820Y-43424951D01*
X172207115Y-43424591D01*
X172199054Y-43420485D01*
X172148259Y-43372512D01*
X172131463Y-43304692D01*
X172153999Y-43238556D01*
X172199054Y-43199515D01*
X172207816Y-43195051D01*
X172297209Y-43130104D01*
X172379786Y-43070109D01*
X172379788Y-43070106D01*
X172379792Y-43070104D01*
X172530104Y-42919792D01*
X172530106Y-42919788D01*
X172530109Y-42919786D01*
X172655048Y-42747820D01*
X172655047Y-42747820D01*
X172655051Y-42747816D01*
X172751557Y-42558412D01*
X172817246Y-42356243D01*
X172850500Y-42146287D01*
X172850500Y-41933713D01*
X172817246Y-41723757D01*
X172751557Y-41521588D01*
X172655051Y-41332184D01*
X172655049Y-41332181D01*
X172655048Y-41332179D01*
X172530109Y-41160213D01*
X172379786Y-41009890D01*
X172207820Y-40884951D01*
X172207115Y-40884591D01*
X172199054Y-40880485D01*
X172148259Y-40832512D01*
X172131463Y-40764692D01*
X172153999Y-40698556D01*
X172199054Y-40659515D01*
X172207816Y-40655051D01*
X172229789Y-40639086D01*
X172379786Y-40530109D01*
X172379788Y-40530106D01*
X172379792Y-40530104D01*
X172530104Y-40379792D01*
X172530106Y-40379788D01*
X172530109Y-40379786D01*
X172655048Y-40207820D01*
X172655047Y-40207820D01*
X172655051Y-40207816D01*
X172751557Y-40018412D01*
X172803855Y-39857454D01*
X172843293Y-39799779D01*
X172907651Y-39772581D01*
X172976498Y-39784496D01*
X173009467Y-39808092D01*
X179413181Y-46211806D01*
X179446666Y-46273129D01*
X179449500Y-46299487D01*
X179449500Y-62265943D01*
X179449500Y-62424057D01*
X179482534Y-62547339D01*
X179490423Y-62576783D01*
X179490426Y-62576790D01*
X179569475Y-62713709D01*
X179569479Y-62713714D01*
X179569480Y-62713716D01*
X179681284Y-62825520D01*
X179681286Y-62825521D01*
X179681290Y-62825524D01*
X179818209Y-62904573D01*
X179818216Y-62904577D01*
X179970943Y-62945500D01*
X180025500Y-62945500D01*
X180092539Y-62965185D01*
X180138294Y-63017989D01*
X180149500Y-63069500D01*
X180149500Y-64692870D01*
X180149501Y-64692876D01*
X180155908Y-64752483D01*
X180206202Y-64887328D01*
X180206206Y-64887335D01*
X180292452Y-65002544D01*
X180292455Y-65002547D01*
X180407664Y-65088793D01*
X180407671Y-65088797D01*
X180539082Y-65137810D01*
X180595016Y-65179681D01*
X180619433Y-65245145D01*
X180604582Y-65313418D01*
X180583431Y-65341673D01*
X180469889Y-65455215D01*
X180344951Y-65627179D01*
X180248444Y-65816585D01*
X180182753Y-66018760D01*
X180149500Y-66228713D01*
X180149500Y-66441286D01*
X180182753Y-66651239D01*
X180248444Y-66853414D01*
X180344951Y-67042820D01*
X180469890Y-67214786D01*
X180620213Y-67365109D01*
X180792182Y-67490050D01*
X180800946Y-67494516D01*
X180851742Y-67542491D01*
X180868536Y-67610312D01*
X180845998Y-67676447D01*
X180800946Y-67715484D01*
X180792182Y-67719949D01*
X180620213Y-67844890D01*
X180469890Y-67995213D01*
X180344951Y-68167179D01*
X180248444Y-68356585D01*
X180182753Y-68558760D01*
X180149500Y-68768713D01*
X180149500Y-68981286D01*
X180177838Y-69160208D01*
X180182754Y-69191243D01*
X180228547Y-69332180D01*
X180248444Y-69393414D01*
X180344951Y-69582820D01*
X180469890Y-69754786D01*
X180620213Y-69905109D01*
X180792179Y-70030048D01*
X180792181Y-70030049D01*
X180792184Y-70030051D01*
X180981588Y-70126557D01*
X181183757Y-70192246D01*
X181393713Y-70225500D01*
X181393714Y-70225500D01*
X181606286Y-70225500D01*
X181606287Y-70225500D01*
X181816243Y-70192246D01*
X182018412Y-70126557D01*
X182207816Y-70030051D01*
X182230303Y-70013713D01*
X182379786Y-69905109D01*
X182379788Y-69905106D01*
X182379792Y-69905104D01*
X182530104Y-69754792D01*
X182530106Y-69754788D01*
X182530109Y-69754786D01*
X182655048Y-69582820D01*
X182655047Y-69582820D01*
X182655051Y-69582816D01*
X182751557Y-69393412D01*
X182817246Y-69191243D01*
X182850500Y-68981287D01*
X182850500Y-68768713D01*
X182817246Y-68558757D01*
X182803506Y-68516473D01*
X182801512Y-68446635D01*
X182833755Y-68390478D01*
X183430520Y-67793716D01*
X183509577Y-67656784D01*
X183550501Y-67504057D01*
X183550501Y-67345942D01*
X183550501Y-67338347D01*
X183550500Y-67338329D01*
X183550500Y-62265945D01*
X183550500Y-62265943D01*
X183509577Y-62113216D01*
X183461244Y-62029500D01*
X183430524Y-61976290D01*
X183430518Y-61976282D01*
X183318717Y-61864481D01*
X183318709Y-61864475D01*
X183181790Y-61785426D01*
X183181786Y-61785424D01*
X183181784Y-61785423D01*
X183029057Y-61744500D01*
X183029056Y-61744500D01*
X180774500Y-61744500D01*
X180707461Y-61724815D01*
X180661706Y-61672011D01*
X180650500Y-61620500D01*
X180650500Y-61554499D01*
X180670185Y-61487460D01*
X180722989Y-61441705D01*
X180774500Y-61430499D01*
X182397871Y-61430499D01*
X182397872Y-61430499D01*
X182457483Y-61424091D01*
X182592331Y-61373796D01*
X182707546Y-61287546D01*
X182793796Y-61172331D01*
X182844091Y-61037483D01*
X182850500Y-60977873D01*
X182850499Y-59182128D01*
X182844091Y-59122517D01*
X182840235Y-59112179D01*
X182793797Y-58987671D01*
X182793793Y-58987664D01*
X182707547Y-58872455D01*
X182707544Y-58872452D01*
X182592335Y-58786206D01*
X182592328Y-58786202D01*
X182460917Y-58737189D01*
X182404983Y-58695318D01*
X182380566Y-58629853D01*
X182395418Y-58561580D01*
X182416563Y-58533332D01*
X182530104Y-58419792D01*
X182655051Y-58247816D01*
X182751557Y-58058412D01*
X182817246Y-57856243D01*
X182850500Y-57646287D01*
X182850500Y-57433713D01*
X182817246Y-57223757D01*
X182751557Y-57021588D01*
X182655051Y-56832184D01*
X182655049Y-56832181D01*
X182655048Y-56832179D01*
X182530109Y-56660213D01*
X182379786Y-56509890D01*
X182207817Y-56384949D01*
X182198504Y-56380204D01*
X182147707Y-56332230D01*
X182130912Y-56264409D01*
X182153449Y-56198274D01*
X182198507Y-56159232D01*
X182207555Y-56154622D01*
X182261716Y-56115270D01*
X182261717Y-56115270D01*
X181629409Y-55482962D01*
X181692993Y-55465925D01*
X181807007Y-55400099D01*
X181900099Y-55307007D01*
X181965925Y-55192993D01*
X181982962Y-55129409D01*
X182615270Y-55761717D01*
X182615270Y-55761716D01*
X182654622Y-55707554D01*
X182751095Y-55518217D01*
X182816757Y-55316130D01*
X182816757Y-55316127D01*
X182850000Y-55106246D01*
X182850000Y-54893753D01*
X182816757Y-54683872D01*
X182816757Y-54683869D01*
X182751095Y-54481782D01*
X182654624Y-54292449D01*
X182615270Y-54238282D01*
X182615269Y-54238282D01*
X181982962Y-54870590D01*
X181965925Y-54807007D01*
X181900099Y-54692993D01*
X181807007Y-54599901D01*
X181692993Y-54534075D01*
X181629407Y-54517036D01*
X182261716Y-53884728D01*
X182207550Y-53845375D01*
X182018217Y-53748904D01*
X181816129Y-53683242D01*
X181606246Y-53650000D01*
X181393754Y-53650000D01*
X181183872Y-53683242D01*
X181183869Y-53683242D01*
X180981782Y-53748904D01*
X180830795Y-53825837D01*
X180762126Y-53838733D01*
X180697385Y-53812457D01*
X180657128Y-53755350D01*
X180650500Y-53715352D01*
X180650500Y-52365209D01*
X180670185Y-52298170D01*
X180722989Y-52252415D01*
X180792147Y-52242471D01*
X180830793Y-52254723D01*
X180981588Y-52331557D01*
X181183757Y-52397246D01*
X181393713Y-52430500D01*
X181393714Y-52430500D01*
X181606286Y-52430500D01*
X181606287Y-52430500D01*
X181816243Y-52397246D01*
X182018412Y-52331557D01*
X182207816Y-52235051D01*
X182319769Y-52153713D01*
X182379786Y-52110109D01*
X182379788Y-52110106D01*
X182379792Y-52110104D01*
X182530104Y-51959792D01*
X182530106Y-51959788D01*
X182530109Y-51959786D01*
X182655048Y-51787820D01*
X182655047Y-51787820D01*
X182655051Y-51787816D01*
X182751557Y-51598412D01*
X182817246Y-51396243D01*
X182850500Y-51186287D01*
X182850500Y-50973713D01*
X182817246Y-50763757D01*
X182751557Y-50561588D01*
X182655051Y-50372184D01*
X182655049Y-50372181D01*
X182655048Y-50372179D01*
X182530109Y-50200213D01*
X182379786Y-50049890D01*
X182207817Y-49924949D01*
X182198504Y-49920204D01*
X182147707Y-49872230D01*
X182130912Y-49804409D01*
X182153449Y-49738274D01*
X182198507Y-49699232D01*
X182207555Y-49694622D01*
X182261716Y-49655270D01*
X182261717Y-49655270D01*
X181629409Y-49022962D01*
X181692993Y-49005925D01*
X181807007Y-48940099D01*
X181900099Y-48847007D01*
X181965925Y-48732993D01*
X181982962Y-48669409D01*
X182615270Y-49301717D01*
X182615270Y-49301716D01*
X182654622Y-49247554D01*
X182751095Y-49058217D01*
X182816757Y-48856130D01*
X182816757Y-48856127D01*
X182850000Y-48646246D01*
X182850000Y-48433753D01*
X182816757Y-48223872D01*
X182816757Y-48223869D01*
X182751095Y-48021782D01*
X182654624Y-47832449D01*
X182615270Y-47778282D01*
X182615269Y-47778282D01*
X181982962Y-48410590D01*
X181965925Y-48347007D01*
X181900099Y-48232993D01*
X181807007Y-48139901D01*
X181692993Y-48074075D01*
X181629407Y-48057036D01*
X182299627Y-47386818D01*
X182360950Y-47353333D01*
X182387308Y-47350499D01*
X182397871Y-47350499D01*
X182397872Y-47350499D01*
X182457483Y-47344091D01*
X182592331Y-47293796D01*
X182707546Y-47207546D01*
X182793796Y-47092331D01*
X182844091Y-46957483D01*
X182850500Y-46897873D01*
X182850500Y-46724500D01*
X182870185Y-46657461D01*
X182922989Y-46611706D01*
X182974500Y-46600500D01*
X184975500Y-46600500D01*
X185042539Y-46620185D01*
X185088294Y-46672989D01*
X185099500Y-46724500D01*
X185099500Y-73999902D01*
X185079815Y-74066941D01*
X185063181Y-74087583D01*
X185019481Y-74131282D01*
X185019479Y-74131284D01*
X185002781Y-74160208D01*
X184982425Y-74195466D01*
X184940423Y-74268215D01*
X184919152Y-74347596D01*
X184882789Y-74407254D01*
X184819942Y-74437783D01*
X184799379Y-74439500D01*
X182785719Y-74439500D01*
X182718680Y-74419815D01*
X182675235Y-74371795D01*
X182655052Y-74332185D01*
X182655051Y-74332184D01*
X182530109Y-74160213D01*
X182416181Y-74046285D01*
X182382696Y-73984962D01*
X182387680Y-73915270D01*
X182429552Y-73859337D01*
X182460529Y-73842422D01*
X182592086Y-73793354D01*
X182592093Y-73793350D01*
X182707187Y-73707190D01*
X182707190Y-73707187D01*
X182793350Y-73592093D01*
X182793354Y-73592086D01*
X182843596Y-73457379D01*
X182843598Y-73457372D01*
X182849999Y-73397844D01*
X182850000Y-73397827D01*
X182850000Y-72750000D01*
X181933012Y-72750000D01*
X181965925Y-72692993D01*
X182000000Y-72565826D01*
X182000000Y-72434174D01*
X181965925Y-72307007D01*
X181933012Y-72250000D01*
X182850000Y-72250000D01*
X182850000Y-71602172D01*
X182849999Y-71602155D01*
X182843598Y-71542627D01*
X182843596Y-71542620D01*
X182793354Y-71407913D01*
X182793350Y-71407906D01*
X182707190Y-71292812D01*
X182707187Y-71292809D01*
X182592093Y-71206649D01*
X182592086Y-71206645D01*
X182457379Y-71156403D01*
X182457372Y-71156401D01*
X182397844Y-71150000D01*
X181750000Y-71150000D01*
X181750000Y-72066988D01*
X181692993Y-72034075D01*
X181565826Y-72000000D01*
X181434174Y-72000000D01*
X181307007Y-72034075D01*
X181250000Y-72066988D01*
X181250000Y-71150000D01*
X180602155Y-71150000D01*
X180542627Y-71156401D01*
X180542620Y-71156403D01*
X180407913Y-71206645D01*
X180407906Y-71206649D01*
X180292812Y-71292809D01*
X180292809Y-71292812D01*
X180206649Y-71407906D01*
X180206645Y-71407913D01*
X180156403Y-71542620D01*
X180156401Y-71542627D01*
X180150000Y-71602155D01*
X180150000Y-72250000D01*
X181066988Y-72250000D01*
X181034075Y-72307007D01*
X181000000Y-72434174D01*
X181000000Y-72565826D01*
X181034075Y-72692993D01*
X181066988Y-72750000D01*
X180150000Y-72750000D01*
X180150000Y-73397844D01*
X180156401Y-73457372D01*
X180156403Y-73457379D01*
X180206645Y-73592086D01*
X180206649Y-73592093D01*
X180292809Y-73707187D01*
X180292812Y-73707190D01*
X180407906Y-73793350D01*
X180407913Y-73793354D01*
X180539470Y-73842422D01*
X180595404Y-73884293D01*
X180619821Y-73949758D01*
X180604969Y-74018031D01*
X180583819Y-74046285D01*
X180469889Y-74160215D01*
X180344951Y-74332179D01*
X180248444Y-74521585D01*
X180182753Y-74723760D01*
X180149500Y-74933713D01*
X180149500Y-75146286D01*
X180181324Y-75347219D01*
X180182754Y-75356243D01*
X180234741Y-75516243D01*
X180248444Y-75558414D01*
X180344951Y-75747820D01*
X180469890Y-75919786D01*
X180620213Y-76070109D01*
X180792179Y-76195048D01*
X180792181Y-76195049D01*
X180792184Y-76195051D01*
X180981588Y-76291557D01*
X181183757Y-76357246D01*
X181393713Y-76390500D01*
X181393714Y-76390500D01*
X181606286Y-76390500D01*
X181606287Y-76390500D01*
X181816243Y-76357246D01*
X182018412Y-76291557D01*
X182207816Y-76195051D01*
X182266610Y-76152335D01*
X182379786Y-76070109D01*
X182379788Y-76070106D01*
X182379792Y-76070104D01*
X182530104Y-75919792D01*
X182530106Y-75919788D01*
X182530109Y-75919786D01*
X182616774Y-75800500D01*
X182655051Y-75747816D01*
X182655349Y-75747230D01*
X182675235Y-75708205D01*
X182723209Y-75657409D01*
X182785719Y-75640500D01*
X185373331Y-75640500D01*
X185373347Y-75640501D01*
X185465130Y-75640501D01*
X185532169Y-75660186D01*
X185577924Y-75712990D01*
X185589124Y-75765766D01*
X185501257Y-84376765D01*
X185480889Y-84443600D01*
X185427621Y-84488814D01*
X185377263Y-84499500D01*
X114124000Y-84499500D01*
X114056961Y-84479815D01*
X114011206Y-84427011D01*
X114000000Y-84375500D01*
X114000000Y-80878711D01*
X115649500Y-80878711D01*
X115649500Y-81121288D01*
X115681161Y-81361785D01*
X115743947Y-81596104D01*
X115836773Y-81820205D01*
X115836776Y-81820212D01*
X115958064Y-82030289D01*
X115958066Y-82030292D01*
X115958067Y-82030293D01*
X116105733Y-82222736D01*
X116105739Y-82222743D01*
X116277256Y-82394260D01*
X116277262Y-82394265D01*
X116469711Y-82541936D01*
X116679788Y-82663224D01*
X116903900Y-82756054D01*
X117138211Y-82818838D01*
X117318586Y-82842584D01*
X117378711Y-82850500D01*
X117378712Y-82850500D01*
X117621289Y-82850500D01*
X117669388Y-82844167D01*
X117861789Y-82818838D01*
X118096100Y-82756054D01*
X118320212Y-82663224D01*
X118530289Y-82541936D01*
X118722738Y-82394265D01*
X118894265Y-82222738D01*
X119041936Y-82030289D01*
X119163224Y-81820212D01*
X119256054Y-81596100D01*
X119318838Y-81361789D01*
X119350500Y-81121288D01*
X119350500Y-80878712D01*
X119350500Y-80878711D01*
X180649500Y-80878711D01*
X180649500Y-81121288D01*
X180681161Y-81361785D01*
X180743947Y-81596104D01*
X180836773Y-81820205D01*
X180836776Y-81820212D01*
X180958064Y-82030289D01*
X180958066Y-82030292D01*
X180958067Y-82030293D01*
X181105733Y-82222736D01*
X181105739Y-82222743D01*
X181277256Y-82394260D01*
X181277262Y-82394265D01*
X181469711Y-82541936D01*
X181679788Y-82663224D01*
X181903900Y-82756054D01*
X182138211Y-82818838D01*
X182318586Y-82842584D01*
X182378711Y-82850500D01*
X182378712Y-82850500D01*
X182621289Y-82850500D01*
X182669388Y-82844167D01*
X182861789Y-82818838D01*
X183096100Y-82756054D01*
X183320212Y-82663224D01*
X183530289Y-82541936D01*
X183722738Y-82394265D01*
X183894265Y-82222738D01*
X184041936Y-82030289D01*
X184163224Y-81820212D01*
X184256054Y-81596100D01*
X184318838Y-81361789D01*
X184350500Y-81121288D01*
X184350500Y-80878712D01*
X184318838Y-80638211D01*
X184256054Y-80403900D01*
X184163224Y-80179788D01*
X184041936Y-79969711D01*
X183894265Y-79777262D01*
X183894260Y-79777256D01*
X183722743Y-79605739D01*
X183722736Y-79605733D01*
X183530293Y-79458067D01*
X183530292Y-79458066D01*
X183530289Y-79458064D01*
X183320212Y-79336776D01*
X183298849Y-79327927D01*
X183096104Y-79243947D01*
X182861785Y-79181161D01*
X182621289Y-79149500D01*
X182621288Y-79149500D01*
X182378712Y-79149500D01*
X182378711Y-79149500D01*
X182138214Y-79181161D01*
X181903895Y-79243947D01*
X181679794Y-79336773D01*
X181679785Y-79336777D01*
X181469706Y-79458067D01*
X181277263Y-79605733D01*
X181277256Y-79605739D01*
X181105739Y-79777256D01*
X181105733Y-79777263D01*
X180958067Y-79969706D01*
X180836777Y-80179785D01*
X180836773Y-80179794D01*
X180743947Y-80403895D01*
X180681161Y-80638214D01*
X180649500Y-80878711D01*
X119350500Y-80878711D01*
X119318838Y-80638211D01*
X119256054Y-80403900D01*
X119163224Y-80179788D01*
X119041936Y-79969711D01*
X118894265Y-79777262D01*
X118894260Y-79777256D01*
X118722743Y-79605739D01*
X118722736Y-79605733D01*
X118530293Y-79458067D01*
X118530292Y-79458066D01*
X118530289Y-79458064D01*
X118320212Y-79336776D01*
X118298849Y-79327927D01*
X118096104Y-79243947D01*
X117861785Y-79181161D01*
X117621289Y-79149500D01*
X117621288Y-79149500D01*
X117378712Y-79149500D01*
X117378711Y-79149500D01*
X117138214Y-79181161D01*
X116903895Y-79243947D01*
X116679794Y-79336773D01*
X116679785Y-79336777D01*
X116469706Y-79458067D01*
X116277263Y-79605733D01*
X116277256Y-79605739D01*
X116105739Y-79777256D01*
X116105733Y-79777263D01*
X115958067Y-79969706D01*
X115836777Y-80179785D01*
X115836773Y-80179794D01*
X115743947Y-80403895D01*
X115681161Y-80638214D01*
X115649500Y-80878711D01*
X114000000Y-80878711D01*
X114000000Y-61602135D01*
X116649500Y-61602135D01*
X116649500Y-63397870D01*
X116649501Y-63397876D01*
X116655908Y-63457483D01*
X116706202Y-63592328D01*
X116706206Y-63592335D01*
X116792452Y-63707544D01*
X116792455Y-63707547D01*
X116907664Y-63793793D01*
X116907671Y-63793797D01*
X117039082Y-63842810D01*
X117095016Y-63884681D01*
X117119433Y-63950145D01*
X117104582Y-64018418D01*
X117083431Y-64046673D01*
X116969889Y-64160215D01*
X116844951Y-64332179D01*
X116748444Y-64521585D01*
X116682753Y-64723760D01*
X116649500Y-64933713D01*
X116649500Y-65146287D01*
X116651059Y-65156132D01*
X116670082Y-65276239D01*
X116682754Y-65356243D01*
X116722449Y-65478412D01*
X116748444Y-65558414D01*
X116844951Y-65747820D01*
X116969890Y-65919786D01*
X117120213Y-66070109D01*
X117292179Y-66195048D01*
X117292181Y-66195049D01*
X117292184Y-66195051D01*
X117301493Y-66199794D01*
X117352290Y-66247766D01*
X117369087Y-66315587D01*
X117346552Y-66381722D01*
X117301505Y-66420760D01*
X117292446Y-66425376D01*
X117292440Y-66425380D01*
X117238282Y-66464727D01*
X117238282Y-66464728D01*
X117870591Y-67097037D01*
X117807007Y-67114075D01*
X117692993Y-67179901D01*
X117599901Y-67272993D01*
X117534075Y-67387007D01*
X117517037Y-67450591D01*
X116884728Y-66818282D01*
X116884727Y-66818282D01*
X116845380Y-66872439D01*
X116748904Y-67061782D01*
X116683242Y-67263869D01*
X116683242Y-67263872D01*
X116650000Y-67473753D01*
X116650000Y-67686246D01*
X116683242Y-67896127D01*
X116683242Y-67896130D01*
X116748904Y-68098217D01*
X116845375Y-68287550D01*
X116884728Y-68341716D01*
X117517037Y-67709408D01*
X117534075Y-67772993D01*
X117599901Y-67887007D01*
X117692993Y-67980099D01*
X117807007Y-68045925D01*
X117870590Y-68062962D01*
X117238282Y-68695269D01*
X117238282Y-68695270D01*
X117292452Y-68734626D01*
X117292451Y-68734626D01*
X117301495Y-68739234D01*
X117352292Y-68787208D01*
X117369087Y-68855029D01*
X117346550Y-68921164D01*
X117301499Y-68960202D01*
X117292182Y-68964949D01*
X117120213Y-69089890D01*
X116969890Y-69240213D01*
X116844951Y-69412179D01*
X116748444Y-69601585D01*
X116682753Y-69803760D01*
X116649500Y-70013713D01*
X116649500Y-70226286D01*
X116670082Y-70356239D01*
X116682754Y-70436243D01*
X116739954Y-70612287D01*
X116748444Y-70638414D01*
X116844951Y-70827820D01*
X116969890Y-70999786D01*
X117120213Y-71150109D01*
X117292182Y-71275050D01*
X117300946Y-71279516D01*
X117351742Y-71327491D01*
X117368536Y-71395312D01*
X117345998Y-71461447D01*
X117300946Y-71500484D01*
X117292182Y-71504949D01*
X117120213Y-71629890D01*
X116969890Y-71780213D01*
X116844951Y-71952179D01*
X116748444Y-72141585D01*
X116682753Y-72343760D01*
X116659864Y-72488279D01*
X116649500Y-72553713D01*
X116649500Y-72766287D01*
X116659534Y-72829644D01*
X116682753Y-72976239D01*
X116748444Y-73178414D01*
X116844951Y-73367820D01*
X116969890Y-73539786D01*
X117120213Y-73690109D01*
X117292182Y-73815050D01*
X117300946Y-73819516D01*
X117351742Y-73867491D01*
X117368536Y-73935312D01*
X117345998Y-74001447D01*
X117300946Y-74040484D01*
X117292182Y-74044949D01*
X117120213Y-74169890D01*
X116969890Y-74320213D01*
X116844951Y-74492179D01*
X116748444Y-74681585D01*
X116682753Y-74883760D01*
X116649500Y-75093713D01*
X116649500Y-75306286D01*
X116678909Y-75491971D01*
X116682754Y-75516243D01*
X116746681Y-75712990D01*
X116748444Y-75718414D01*
X116844951Y-75907820D01*
X116969890Y-76079786D01*
X117120213Y-76230109D01*
X117292179Y-76355048D01*
X117292181Y-76355049D01*
X117292184Y-76355051D01*
X117481588Y-76451557D01*
X117683757Y-76517246D01*
X117893713Y-76550500D01*
X117893714Y-76550500D01*
X118106286Y-76550500D01*
X118106287Y-76550500D01*
X118316243Y-76517246D01*
X118518412Y-76451557D01*
X118707816Y-76355051D01*
X118795209Y-76291557D01*
X118879786Y-76230109D01*
X118879788Y-76230106D01*
X118879792Y-76230104D01*
X119030104Y-76079792D01*
X119030106Y-76079788D01*
X119030109Y-76079786D01*
X119155048Y-75907820D01*
X119155047Y-75907820D01*
X119155051Y-75907816D01*
X119251557Y-75718412D01*
X119317246Y-75516243D01*
X119350500Y-75306287D01*
X119350500Y-75093713D01*
X119317246Y-74883757D01*
X119251557Y-74681588D01*
X119155051Y-74492184D01*
X119155049Y-74492181D01*
X119155048Y-74492179D01*
X119030109Y-74320213D01*
X118879786Y-74169890D01*
X118707820Y-74044951D01*
X118707115Y-74044591D01*
X118699054Y-74040485D01*
X118648259Y-73992512D01*
X118631463Y-73924692D01*
X118653999Y-73858556D01*
X118699054Y-73819515D01*
X118707816Y-73815051D01*
X118775049Y-73766204D01*
X118879786Y-73690109D01*
X118879788Y-73690106D01*
X118879792Y-73690104D01*
X119030104Y-73539792D01*
X119030106Y-73539788D01*
X119030109Y-73539786D01*
X119155048Y-73367820D01*
X119155047Y-73367820D01*
X119155051Y-73367816D01*
X119251557Y-73178412D01*
X119317246Y-72976243D01*
X119350500Y-72766287D01*
X119350500Y-72553713D01*
X119317246Y-72343757D01*
X119251557Y-72141588D01*
X119155051Y-71952184D01*
X119155049Y-71952181D01*
X119155048Y-71952179D01*
X119030109Y-71780213D01*
X118879786Y-71629890D01*
X118707820Y-71504951D01*
X118707115Y-71504591D01*
X118699054Y-71500485D01*
X118648259Y-71452512D01*
X118631463Y-71384692D01*
X118653999Y-71318556D01*
X118699054Y-71279515D01*
X118707816Y-71275051D01*
X118801964Y-71206649D01*
X118879786Y-71150109D01*
X118879788Y-71150106D01*
X118879792Y-71150104D01*
X119030104Y-70999792D01*
X119030106Y-70999788D01*
X119030109Y-70999786D01*
X119155048Y-70827820D01*
X119155047Y-70827820D01*
X119155051Y-70827816D01*
X119251557Y-70638412D01*
X119317246Y-70436243D01*
X119350500Y-70226287D01*
X119350500Y-70013713D01*
X119317246Y-69803757D01*
X119251557Y-69601588D01*
X119155051Y-69412184D01*
X119155049Y-69412181D01*
X119155048Y-69412179D01*
X119030109Y-69240213D01*
X118879786Y-69089890D01*
X118707817Y-68964949D01*
X118698504Y-68960204D01*
X118647707Y-68912230D01*
X118630912Y-68844409D01*
X118653449Y-68778274D01*
X118698507Y-68739232D01*
X118707555Y-68734622D01*
X118761716Y-68695270D01*
X118761717Y-68695270D01*
X118129408Y-68062962D01*
X118192993Y-68045925D01*
X118307007Y-67980099D01*
X118400099Y-67887007D01*
X118465925Y-67772993D01*
X118482962Y-67709409D01*
X119115270Y-68341717D01*
X119115270Y-68341716D01*
X119154622Y-68287554D01*
X119251095Y-68098217D01*
X119316757Y-67896130D01*
X119316757Y-67896127D01*
X119350000Y-67686246D01*
X119350000Y-67473753D01*
X119316757Y-67263872D01*
X119316757Y-67263869D01*
X119251095Y-67061782D01*
X119154624Y-66872449D01*
X119115270Y-66818282D01*
X119115269Y-66818282D01*
X118482962Y-67450590D01*
X118465925Y-67387007D01*
X118400099Y-67272993D01*
X118307007Y-67179901D01*
X118192993Y-67114075D01*
X118129409Y-67097037D01*
X118761716Y-66464728D01*
X118707547Y-66425373D01*
X118707547Y-66425372D01*
X118698500Y-66420763D01*
X118647706Y-66372788D01*
X118630912Y-66304966D01*
X118653451Y-66238832D01*
X118698508Y-66199793D01*
X118707816Y-66195051D01*
X118811782Y-66119516D01*
X118879786Y-66070109D01*
X118879788Y-66070106D01*
X118879792Y-66070104D01*
X119030104Y-65919792D01*
X119030106Y-65919788D01*
X119030109Y-65919786D01*
X119155048Y-65747820D01*
X119155047Y-65747820D01*
X119155051Y-65747816D01*
X119251557Y-65558412D01*
X119317246Y-65356243D01*
X119350500Y-65146287D01*
X119350500Y-64933713D01*
X119317246Y-64723757D01*
X119251557Y-64521588D01*
X119155051Y-64332184D01*
X119155049Y-64332181D01*
X119155048Y-64332179D01*
X119030109Y-64160213D01*
X118916569Y-64046673D01*
X118883084Y-63985350D01*
X118888068Y-63915658D01*
X118929940Y-63859725D01*
X118960915Y-63842810D01*
X119092331Y-63793796D01*
X119207546Y-63707546D01*
X119293796Y-63592331D01*
X119344091Y-63457483D01*
X119350500Y-63397873D01*
X119350499Y-61602135D01*
X132649500Y-61602135D01*
X132649500Y-63397870D01*
X132649501Y-63397876D01*
X132655908Y-63457483D01*
X132706202Y-63592328D01*
X132706206Y-63592335D01*
X132792452Y-63707544D01*
X132792455Y-63707547D01*
X132907664Y-63793793D01*
X132907671Y-63793797D01*
X133039082Y-63842810D01*
X133095016Y-63884681D01*
X133119433Y-63950145D01*
X133104582Y-64018418D01*
X133083431Y-64046673D01*
X132969889Y-64160215D01*
X132844951Y-64332179D01*
X132748444Y-64521585D01*
X132682753Y-64723760D01*
X132649500Y-64933713D01*
X132649500Y-65146287D01*
X132651059Y-65156132D01*
X132670082Y-65276239D01*
X132682754Y-65356243D01*
X132722449Y-65478412D01*
X132748444Y-65558414D01*
X132844951Y-65747820D01*
X132969890Y-65919786D01*
X133120213Y-66070109D01*
X133292179Y-66195048D01*
X133292181Y-66195049D01*
X133292184Y-66195051D01*
X133301493Y-66199794D01*
X133352290Y-66247766D01*
X133369087Y-66315587D01*
X133346552Y-66381722D01*
X133301505Y-66420760D01*
X133292446Y-66425376D01*
X133292440Y-66425380D01*
X133238282Y-66464727D01*
X133238282Y-66464728D01*
X133870591Y-67097037D01*
X133807007Y-67114075D01*
X133692993Y-67179901D01*
X133599901Y-67272993D01*
X133534075Y-67387007D01*
X133517037Y-67450591D01*
X132884728Y-66818282D01*
X132884727Y-66818282D01*
X132845380Y-66872439D01*
X132748904Y-67061782D01*
X132683242Y-67263869D01*
X132683242Y-67263872D01*
X132650000Y-67473753D01*
X132650000Y-67686246D01*
X132683242Y-67896127D01*
X132683242Y-67896130D01*
X132748904Y-68098217D01*
X132845375Y-68287550D01*
X132884728Y-68341716D01*
X133517037Y-67709408D01*
X133534075Y-67772993D01*
X133599901Y-67887007D01*
X133692993Y-67980099D01*
X133807007Y-68045925D01*
X133870590Y-68062962D01*
X133238282Y-68695269D01*
X133238282Y-68695270D01*
X133292452Y-68734626D01*
X133292451Y-68734626D01*
X133301495Y-68739234D01*
X133352292Y-68787208D01*
X133369087Y-68855029D01*
X133346550Y-68921164D01*
X133301499Y-68960202D01*
X133292182Y-68964949D01*
X133120213Y-69089890D01*
X132969890Y-69240213D01*
X132844951Y-69412179D01*
X132748444Y-69601585D01*
X132682753Y-69803760D01*
X132649500Y-70013713D01*
X132649500Y-70226286D01*
X132670082Y-70356239D01*
X132682754Y-70436243D01*
X132739954Y-70612287D01*
X132748444Y-70638414D01*
X132844951Y-70827820D01*
X132969890Y-70999786D01*
X133120213Y-71150109D01*
X133292182Y-71275050D01*
X133300946Y-71279516D01*
X133351742Y-71327491D01*
X133368536Y-71395312D01*
X133345998Y-71461447D01*
X133300946Y-71500484D01*
X133292182Y-71504949D01*
X133120213Y-71629890D01*
X132969890Y-71780213D01*
X132844951Y-71952179D01*
X132748444Y-72141585D01*
X132682753Y-72343760D01*
X132659864Y-72488279D01*
X132649500Y-72553713D01*
X132649500Y-72766287D01*
X132659534Y-72829644D01*
X132682753Y-72976239D01*
X132748444Y-73178414D01*
X132844951Y-73367820D01*
X132969890Y-73539786D01*
X133120213Y-73690109D01*
X133292182Y-73815050D01*
X133300946Y-73819516D01*
X133351742Y-73867491D01*
X133368536Y-73935312D01*
X133345998Y-74001447D01*
X133300946Y-74040484D01*
X133292182Y-74044949D01*
X133120213Y-74169890D01*
X132969890Y-74320213D01*
X132844951Y-74492179D01*
X132748444Y-74681585D01*
X132682753Y-74883760D01*
X132649500Y-75093713D01*
X132649500Y-75306286D01*
X132678909Y-75491971D01*
X132682754Y-75516243D01*
X132746681Y-75712990D01*
X132748444Y-75718414D01*
X132844951Y-75907820D01*
X132969890Y-76079786D01*
X133120213Y-76230109D01*
X133292179Y-76355048D01*
X133292181Y-76355049D01*
X133292184Y-76355051D01*
X133481588Y-76451557D01*
X133683757Y-76517246D01*
X133893713Y-76550500D01*
X133893714Y-76550500D01*
X134106286Y-76550500D01*
X134106287Y-76550500D01*
X134316243Y-76517246D01*
X134518412Y-76451557D01*
X134707816Y-76355051D01*
X134795209Y-76291557D01*
X134879786Y-76230109D01*
X134879788Y-76230106D01*
X134879792Y-76230104D01*
X135030104Y-76079792D01*
X135030106Y-76079788D01*
X135030109Y-76079786D01*
X135155048Y-75907820D01*
X135155047Y-75907820D01*
X135155051Y-75907816D01*
X135251557Y-75718412D01*
X135317246Y-75516243D01*
X135350500Y-75306287D01*
X135350500Y-75093713D01*
X135317246Y-74883757D01*
X135251557Y-74681588D01*
X135155051Y-74492184D01*
X135155049Y-74492181D01*
X135155048Y-74492179D01*
X135030109Y-74320213D01*
X134879786Y-74169890D01*
X134707820Y-74044951D01*
X134707115Y-74044591D01*
X134699054Y-74040485D01*
X134648259Y-73992512D01*
X134631463Y-73924692D01*
X134653999Y-73858556D01*
X134699054Y-73819515D01*
X134707816Y-73815051D01*
X134775049Y-73766204D01*
X134879786Y-73690109D01*
X134879788Y-73690106D01*
X134879792Y-73690104D01*
X135030104Y-73539792D01*
X135030106Y-73539788D01*
X135030109Y-73539786D01*
X135155048Y-73367820D01*
X135155047Y-73367820D01*
X135155051Y-73367816D01*
X135251557Y-73178412D01*
X135317246Y-72976243D01*
X135350500Y-72766287D01*
X135350500Y-72553713D01*
X135317246Y-72343757D01*
X135251557Y-72141588D01*
X135155051Y-71952184D01*
X135155049Y-71952181D01*
X135155048Y-71952179D01*
X135030109Y-71780213D01*
X134879786Y-71629890D01*
X134707820Y-71504951D01*
X134707115Y-71504591D01*
X134699054Y-71500485D01*
X134648259Y-71452512D01*
X134631463Y-71384692D01*
X134653999Y-71318556D01*
X134699054Y-71279515D01*
X134707816Y-71275051D01*
X134801964Y-71206649D01*
X134879786Y-71150109D01*
X134879788Y-71150106D01*
X134879792Y-71150104D01*
X135030104Y-70999792D01*
X135030106Y-70999788D01*
X135030109Y-70999786D01*
X135155048Y-70827820D01*
X135155047Y-70827820D01*
X135155051Y-70827816D01*
X135251557Y-70638412D01*
X135317246Y-70436243D01*
X135350500Y-70226287D01*
X135350500Y-70013713D01*
X135317246Y-69803757D01*
X135251557Y-69601588D01*
X135155051Y-69412184D01*
X135155049Y-69412181D01*
X135155048Y-69412179D01*
X135030109Y-69240213D01*
X134879786Y-69089890D01*
X134707817Y-68964949D01*
X134698504Y-68960204D01*
X134647707Y-68912230D01*
X134630912Y-68844409D01*
X134653449Y-68778274D01*
X134698507Y-68739232D01*
X134707555Y-68734622D01*
X134761716Y-68695270D01*
X134761717Y-68695270D01*
X134129408Y-68062962D01*
X134192993Y-68045925D01*
X134307007Y-67980099D01*
X134400099Y-67887007D01*
X134465925Y-67772993D01*
X134482962Y-67709408D01*
X135115270Y-68341717D01*
X135115270Y-68341716D01*
X135154622Y-68287554D01*
X135251095Y-68098217D01*
X135316757Y-67896130D01*
X135316757Y-67896127D01*
X135350000Y-67686246D01*
X135350000Y-67473753D01*
X135316757Y-67263872D01*
X135316757Y-67263869D01*
X135251095Y-67061782D01*
X135154624Y-66872449D01*
X135115270Y-66818282D01*
X135115269Y-66818282D01*
X134482962Y-67450590D01*
X134465925Y-67387007D01*
X134400099Y-67272993D01*
X134307007Y-67179901D01*
X134192993Y-67114075D01*
X134129409Y-67097037D01*
X134761716Y-66464728D01*
X134707547Y-66425373D01*
X134707547Y-66425372D01*
X134698500Y-66420763D01*
X134647706Y-66372788D01*
X134630912Y-66304966D01*
X134653451Y-66238832D01*
X134698508Y-66199793D01*
X134707816Y-66195051D01*
X134811782Y-66119516D01*
X134879786Y-66070109D01*
X134879788Y-66070106D01*
X134879792Y-66070104D01*
X135030104Y-65919792D01*
X135030106Y-65919788D01*
X135030109Y-65919786D01*
X135155048Y-65747820D01*
X135155047Y-65747820D01*
X135155051Y-65747816D01*
X135251557Y-65558412D01*
X135317246Y-65356243D01*
X135350500Y-65146287D01*
X135350500Y-64933713D01*
X135317246Y-64723757D01*
X135251557Y-64521588D01*
X135155051Y-64332184D01*
X135155049Y-64332181D01*
X135155048Y-64332179D01*
X135030109Y-64160213D01*
X134916569Y-64046673D01*
X134883084Y-63985350D01*
X134888068Y-63915658D01*
X134929940Y-63859725D01*
X134960915Y-63842810D01*
X135092331Y-63793796D01*
X135207546Y-63707546D01*
X135293796Y-63592331D01*
X135344091Y-63457483D01*
X135350500Y-63397873D01*
X135350499Y-61602128D01*
X135344091Y-61542517D01*
X135335888Y-61520524D01*
X135293797Y-61407671D01*
X135293793Y-61407664D01*
X135207547Y-61292455D01*
X135207544Y-61292452D01*
X135092335Y-61206206D01*
X135092328Y-61206202D01*
X134957482Y-61155908D01*
X134957483Y-61155908D01*
X134897883Y-61149501D01*
X134897881Y-61149500D01*
X134897873Y-61149500D01*
X134897864Y-61149500D01*
X133102129Y-61149500D01*
X133102123Y-61149501D01*
X133042516Y-61155908D01*
X132907671Y-61206202D01*
X132907664Y-61206206D01*
X132792455Y-61292452D01*
X132792452Y-61292455D01*
X132706206Y-61407664D01*
X132706202Y-61407671D01*
X132655908Y-61542517D01*
X132650455Y-61593240D01*
X132649501Y-61602123D01*
X132649500Y-61602135D01*
X119350499Y-61602135D01*
X119350499Y-61602128D01*
X119344091Y-61542517D01*
X119335888Y-61520524D01*
X119293797Y-61407671D01*
X119293793Y-61407664D01*
X119207547Y-61292455D01*
X119207544Y-61292452D01*
X119092335Y-61206206D01*
X119092328Y-61206202D01*
X118957482Y-61155908D01*
X118957483Y-61155908D01*
X118897883Y-61149501D01*
X118897881Y-61149500D01*
X118897873Y-61149500D01*
X118897864Y-61149500D01*
X117102129Y-61149500D01*
X117102123Y-61149501D01*
X117042516Y-61155908D01*
X116907671Y-61206202D01*
X116907664Y-61206206D01*
X116792455Y-61292452D01*
X116792452Y-61292455D01*
X116706206Y-61407664D01*
X116706202Y-61407671D01*
X116655908Y-61542517D01*
X116650455Y-61593240D01*
X116649501Y-61602123D01*
X116649500Y-61602135D01*
X114000000Y-61602135D01*
X114000000Y-53602135D01*
X127949500Y-53602135D01*
X127949500Y-55397870D01*
X127949501Y-55397876D01*
X127955908Y-55457483D01*
X128006202Y-55592328D01*
X128006206Y-55592335D01*
X128092452Y-55707544D01*
X128092455Y-55707547D01*
X128207664Y-55793793D01*
X128207671Y-55793797D01*
X128342517Y-55844091D01*
X128342516Y-55844091D01*
X128349444Y-55844835D01*
X128402127Y-55850500D01*
X130197872Y-55850499D01*
X130257483Y-55844091D01*
X130392331Y-55793796D01*
X130507546Y-55707546D01*
X130593796Y-55592331D01*
X130642810Y-55460916D01*
X130684681Y-55404984D01*
X130750145Y-55380566D01*
X130818418Y-55395417D01*
X130846673Y-55416569D01*
X130960213Y-55530109D01*
X131132179Y-55655048D01*
X131132181Y-55655049D01*
X131132184Y-55655051D01*
X131321588Y-55751557D01*
X131523757Y-55817246D01*
X131733713Y-55850500D01*
X131733714Y-55850500D01*
X131946286Y-55850500D01*
X131946287Y-55850500D01*
X132156243Y-55817246D01*
X132358412Y-55751557D01*
X132547816Y-55655051D01*
X132569789Y-55639086D01*
X132719786Y-55530109D01*
X132719788Y-55530106D01*
X132719792Y-55530104D01*
X132870104Y-55379792D01*
X132870106Y-55379788D01*
X132870109Y-55379786D01*
X132979086Y-55229789D01*
X132995051Y-55207816D01*
X132999514Y-55199054D01*
X133047488Y-55148259D01*
X133115308Y-55131463D01*
X133181444Y-55153999D01*
X133220484Y-55199054D01*
X133224591Y-55207115D01*
X133224951Y-55207820D01*
X133349890Y-55379786D01*
X133500213Y-55530109D01*
X133672179Y-55655048D01*
X133672181Y-55655049D01*
X133672184Y-55655051D01*
X133861588Y-55751557D01*
X134063757Y-55817246D01*
X134273713Y-55850500D01*
X134273714Y-55850500D01*
X134486286Y-55850500D01*
X134486287Y-55850500D01*
X134696243Y-55817246D01*
X134898412Y-55751557D01*
X135087816Y-55655051D01*
X135109789Y-55639086D01*
X135259786Y-55530109D01*
X135259788Y-55530106D01*
X135259792Y-55530104D01*
X135410104Y-55379792D01*
X135410106Y-55379788D01*
X135410109Y-55379786D01*
X135519086Y-55229789D01*
X135535051Y-55207816D01*
X135539514Y-55199054D01*
X135587488Y-55148259D01*
X135655308Y-55131463D01*
X135721444Y-55153999D01*
X135760484Y-55199054D01*
X135764591Y-55207115D01*
X135764951Y-55207820D01*
X135889890Y-55379786D01*
X136040213Y-55530109D01*
X136212179Y-55655048D01*
X136212181Y-55655049D01*
X136212184Y-55655051D01*
X136401588Y-55751557D01*
X136603757Y-55817246D01*
X136813713Y-55850500D01*
X136813714Y-55850500D01*
X137026286Y-55850500D01*
X137026287Y-55850500D01*
X137236243Y-55817246D01*
X137438412Y-55751557D01*
X137627816Y-55655051D01*
X137649789Y-55639086D01*
X137799786Y-55530109D01*
X137799788Y-55530106D01*
X137799792Y-55530104D01*
X137950104Y-55379792D01*
X137950106Y-55379788D01*
X137950109Y-55379786D01*
X138059086Y-55229789D01*
X138075051Y-55207816D01*
X138079514Y-55199054D01*
X138127488Y-55148259D01*
X138195308Y-55131463D01*
X138261444Y-55153999D01*
X138300484Y-55199054D01*
X138304591Y-55207115D01*
X138304951Y-55207820D01*
X138429890Y-55379786D01*
X138580213Y-55530109D01*
X138752179Y-55655048D01*
X138752181Y-55655049D01*
X138752184Y-55655051D01*
X138941588Y-55751557D01*
X139143757Y-55817246D01*
X139353713Y-55850500D01*
X139353714Y-55850500D01*
X139566286Y-55850500D01*
X139566287Y-55850500D01*
X139776243Y-55817246D01*
X139829196Y-55800039D01*
X139899036Y-55798043D01*
X139955196Y-55830289D01*
X140538425Y-56413518D01*
X140673076Y-56491258D01*
X140823259Y-56531500D01*
X154805045Y-56531500D01*
X154872084Y-56551185D01*
X154892726Y-56567819D01*
X155169709Y-56844802D01*
X155203194Y-56906125D01*
X155199960Y-56970799D01*
X155182753Y-57023757D01*
X155159003Y-57173713D01*
X155149500Y-57233713D01*
X155149500Y-57446287D01*
X155182754Y-57656243D01*
X155247738Y-57856243D01*
X155248444Y-57858414D01*
X155344951Y-58047820D01*
X155469890Y-58219786D01*
X155620213Y-58370109D01*
X155792182Y-58495050D01*
X155800946Y-58499516D01*
X155851742Y-58547491D01*
X155868536Y-58615312D01*
X155845998Y-58681447D01*
X155800946Y-58720484D01*
X155792182Y-58724949D01*
X155620213Y-58849890D01*
X155469890Y-59000213D01*
X155344951Y-59172179D01*
X155248444Y-59361585D01*
X155182753Y-59563760D01*
X155159003Y-59713713D01*
X155149500Y-59773713D01*
X155149500Y-59986287D01*
X155182754Y-60196243D01*
X155228948Y-60338414D01*
X155248444Y-60398414D01*
X155344951Y-60587820D01*
X155469890Y-60759786D01*
X155620213Y-60910109D01*
X155792182Y-61035050D01*
X155800946Y-61039516D01*
X155851742Y-61087491D01*
X155868536Y-61155312D01*
X155845998Y-61221447D01*
X155800946Y-61260484D01*
X155792182Y-61264949D01*
X155620213Y-61389890D01*
X155469890Y-61540213D01*
X155344951Y-61712179D01*
X155248444Y-61901585D01*
X155182753Y-62103760D01*
X155149500Y-62313713D01*
X155149500Y-62526286D01*
X155177406Y-62702482D01*
X155182754Y-62736243D01*
X155237449Y-62904577D01*
X155248444Y-62938414D01*
X155344951Y-63127820D01*
X155469890Y-63299786D01*
X155620213Y-63450109D01*
X155792182Y-63575050D01*
X155800946Y-63579516D01*
X155851742Y-63627491D01*
X155868536Y-63695312D01*
X155845998Y-63761447D01*
X155800946Y-63800484D01*
X155792182Y-63804949D01*
X155620213Y-63929890D01*
X155469890Y-64080213D01*
X155344951Y-64252179D01*
X155248444Y-64441585D01*
X155182753Y-64643760D01*
X155169266Y-64728916D01*
X155149500Y-64853713D01*
X155149500Y-65066287D01*
X155156344Y-65109500D01*
X155177828Y-65245145D01*
X155182754Y-65276243D01*
X155208746Y-65356239D01*
X155248444Y-65478414D01*
X155344951Y-65667820D01*
X155469890Y-65839786D01*
X155620213Y-65990109D01*
X155792182Y-66115050D01*
X155800946Y-66119516D01*
X155851742Y-66167491D01*
X155868536Y-66235312D01*
X155845998Y-66301447D01*
X155800946Y-66340484D01*
X155792182Y-66344949D01*
X155620213Y-66469890D01*
X155469890Y-66620213D01*
X155344951Y-66792179D01*
X155248444Y-66981585D01*
X155182753Y-67183760D01*
X155170065Y-67263869D01*
X155149500Y-67393713D01*
X155149500Y-67606287D01*
X155182754Y-67816243D01*
X155235994Y-67980099D01*
X155248444Y-68018414D01*
X155344951Y-68207820D01*
X155469890Y-68379786D01*
X155620213Y-68530109D01*
X155792182Y-68655050D01*
X155800946Y-68659516D01*
X155851742Y-68707491D01*
X155868536Y-68775312D01*
X155845998Y-68841447D01*
X155800946Y-68880484D01*
X155792182Y-68884949D01*
X155620213Y-69009890D01*
X155469890Y-69160213D01*
X155344951Y-69332179D01*
X155248444Y-69521585D01*
X155182753Y-69723760D01*
X155149500Y-69933713D01*
X155149500Y-70146286D01*
X155181324Y-70347219D01*
X155182754Y-70356243D01*
X155228948Y-70498414D01*
X155248444Y-70558414D01*
X155344951Y-70747820D01*
X155469890Y-70919786D01*
X155620213Y-71070109D01*
X155792179Y-71195048D01*
X155792181Y-71195049D01*
X155792184Y-71195051D01*
X155801493Y-71199794D01*
X155852290Y-71247766D01*
X155869087Y-71315587D01*
X155846552Y-71381722D01*
X155801505Y-71420760D01*
X155792446Y-71425376D01*
X155792440Y-71425380D01*
X155738282Y-71464727D01*
X155738282Y-71464728D01*
X156370591Y-72097037D01*
X156307007Y-72114075D01*
X156192993Y-72179901D01*
X156099901Y-72272993D01*
X156034075Y-72387007D01*
X156017037Y-72450591D01*
X155384728Y-71818282D01*
X155384727Y-71818282D01*
X155345380Y-71872439D01*
X155248904Y-72061782D01*
X155183242Y-72263869D01*
X155183242Y-72263872D01*
X155150000Y-72473753D01*
X155150000Y-72686246D01*
X155183242Y-72896127D01*
X155183242Y-72896130D01*
X155248904Y-73098217D01*
X155345375Y-73287550D01*
X155384728Y-73341716D01*
X156017037Y-72709408D01*
X156034075Y-72772993D01*
X156099901Y-72887007D01*
X156192993Y-72980099D01*
X156307007Y-73045925D01*
X156370590Y-73062962D01*
X155738282Y-73695269D01*
X155738282Y-73695270D01*
X155792452Y-73734626D01*
X155792451Y-73734626D01*
X155801495Y-73739234D01*
X155852292Y-73787208D01*
X155869087Y-73855029D01*
X155846550Y-73921164D01*
X155801499Y-73960202D01*
X155792182Y-73964949D01*
X155620213Y-74089890D01*
X155469890Y-74240213D01*
X155344951Y-74412179D01*
X155248444Y-74601585D01*
X155182753Y-74803760D01*
X155149500Y-75013713D01*
X155149500Y-75226286D01*
X155170082Y-75356239D01*
X155182754Y-75436243D01*
X155239954Y-75612287D01*
X155248444Y-75638414D01*
X155344951Y-75827820D01*
X155469890Y-75999786D01*
X155620213Y-76150109D01*
X155792179Y-76275048D01*
X155792181Y-76275049D01*
X155792184Y-76275051D01*
X155981588Y-76371557D01*
X156183757Y-76437246D01*
X156393713Y-76470500D01*
X156393714Y-76470500D01*
X156606286Y-76470500D01*
X156606287Y-76470500D01*
X156816243Y-76437246D01*
X157018412Y-76371557D01*
X157207816Y-76275051D01*
X157269681Y-76230104D01*
X157379786Y-76150109D01*
X157379788Y-76150106D01*
X157379792Y-76150104D01*
X157530104Y-75999792D01*
X157530106Y-75999788D01*
X157530109Y-75999786D01*
X157655048Y-75827820D01*
X157655047Y-75827820D01*
X157655051Y-75827816D01*
X157751557Y-75638412D01*
X157817246Y-75436243D01*
X157850500Y-75226287D01*
X157850500Y-75013713D01*
X157817246Y-74803757D01*
X157751557Y-74601588D01*
X157655051Y-74412184D01*
X157644490Y-74397648D01*
X161199500Y-74397648D01*
X161199500Y-74602351D01*
X161231522Y-74804534D01*
X161294781Y-74999223D01*
X161309566Y-75028239D01*
X161369714Y-75146286D01*
X161387715Y-75181613D01*
X161508028Y-75347213D01*
X161652786Y-75491971D01*
X161800896Y-75599577D01*
X161818390Y-75612287D01*
X161906947Y-75657409D01*
X162000776Y-75705218D01*
X162000778Y-75705218D01*
X162000781Y-75705220D01*
X162105137Y-75739127D01*
X162195465Y-75768477D01*
X162296557Y-75784488D01*
X162397648Y-75800500D01*
X162397649Y-75800500D01*
X162602351Y-75800500D01*
X162602352Y-75800500D01*
X162804534Y-75768477D01*
X162999219Y-75705220D01*
X163181610Y-75612287D01*
X163284702Y-75537387D01*
X163347213Y-75491971D01*
X163347215Y-75491968D01*
X163347219Y-75491966D01*
X163491966Y-75347219D01*
X163491968Y-75347215D01*
X163491971Y-75347213D01*
X163544732Y-75274590D01*
X163612287Y-75181610D01*
X163705220Y-74999219D01*
X163768477Y-74804534D01*
X163800500Y-74602352D01*
X163800500Y-74397648D01*
X163788235Y-74320208D01*
X163768477Y-74195465D01*
X163720005Y-74046285D01*
X163705220Y-74000781D01*
X163705218Y-74000778D01*
X163705218Y-74000776D01*
X163659758Y-73911557D01*
X163612287Y-73818390D01*
X163600927Y-73802754D01*
X163491971Y-73652786D01*
X163347213Y-73508028D01*
X163181613Y-73387715D01*
X163181612Y-73387714D01*
X163181610Y-73387713D01*
X163091336Y-73341716D01*
X162999223Y-73294781D01*
X162804534Y-73231522D01*
X162629995Y-73203878D01*
X162602352Y-73199500D01*
X162397648Y-73199500D01*
X162373329Y-73203351D01*
X162195465Y-73231522D01*
X162000776Y-73294781D01*
X161818386Y-73387715D01*
X161652786Y-73508028D01*
X161508028Y-73652786D01*
X161387715Y-73818386D01*
X161294781Y-74000776D01*
X161231522Y-74195465D01*
X161199500Y-74397648D01*
X157644490Y-74397648D01*
X157596929Y-74332185D01*
X157530109Y-74240213D01*
X157379786Y-74089890D01*
X157207817Y-73964949D01*
X157198504Y-73960204D01*
X157147707Y-73912230D01*
X157130912Y-73844409D01*
X157153449Y-73778274D01*
X157198507Y-73739232D01*
X157207555Y-73734622D01*
X157261716Y-73695270D01*
X157261717Y-73695270D01*
X156629408Y-73062962D01*
X156692993Y-73045925D01*
X156807007Y-72980099D01*
X156900099Y-72887007D01*
X156965925Y-72772993D01*
X156982962Y-72709408D01*
X157615270Y-73341717D01*
X157615270Y-73341716D01*
X157654622Y-73287554D01*
X157751095Y-73098217D01*
X157816757Y-72896130D01*
X157816757Y-72896127D01*
X157850000Y-72686246D01*
X157850000Y-72473753D01*
X157816757Y-72263872D01*
X157816757Y-72263869D01*
X157751095Y-72061782D01*
X157654624Y-71872449D01*
X157615270Y-71818282D01*
X157615269Y-71818282D01*
X156982962Y-72450590D01*
X156965925Y-72387007D01*
X156900099Y-72272993D01*
X156807007Y-72179901D01*
X156692993Y-72114075D01*
X156629409Y-72097037D01*
X157261716Y-71464728D01*
X157207547Y-71425373D01*
X157207547Y-71425372D01*
X157198500Y-71420763D01*
X157147706Y-71372788D01*
X157130912Y-71304966D01*
X157153451Y-71238832D01*
X157198508Y-71199793D01*
X157207816Y-71195051D01*
X157287007Y-71137515D01*
X157379786Y-71070109D01*
X157379788Y-71070106D01*
X157379792Y-71070104D01*
X157530104Y-70919792D01*
X157530106Y-70919788D01*
X157530109Y-70919786D01*
X157655048Y-70747820D01*
X157655047Y-70747820D01*
X157655051Y-70747816D01*
X157751557Y-70558412D01*
X157817246Y-70356243D01*
X157850500Y-70146287D01*
X157850500Y-69933713D01*
X157817246Y-69723757D01*
X157751557Y-69521588D01*
X157688407Y-69397648D01*
X161199500Y-69397648D01*
X161199500Y-69602351D01*
X161231522Y-69804534D01*
X161294781Y-69999223D01*
X161339143Y-70086286D01*
X161369714Y-70146286D01*
X161387715Y-70181613D01*
X161508028Y-70347213D01*
X161652786Y-70491971D01*
X161807749Y-70604556D01*
X161818390Y-70612287D01*
X161934607Y-70671503D01*
X162000776Y-70705218D01*
X162000778Y-70705218D01*
X162000781Y-70705220D01*
X162105137Y-70739127D01*
X162195465Y-70768477D01*
X162296557Y-70784488D01*
X162397648Y-70800500D01*
X162397649Y-70800500D01*
X162602351Y-70800500D01*
X162602352Y-70800500D01*
X162804534Y-70768477D01*
X162999219Y-70705220D01*
X163181610Y-70612287D01*
X163274590Y-70544732D01*
X163347213Y-70491971D01*
X163347215Y-70491968D01*
X163347219Y-70491966D01*
X163491966Y-70347219D01*
X163491968Y-70347215D01*
X163491971Y-70347213D01*
X163544732Y-70274590D01*
X163612287Y-70181610D01*
X163705220Y-69999219D01*
X163768477Y-69804534D01*
X163800500Y-69602352D01*
X163800500Y-69397648D01*
X163768477Y-69195466D01*
X163705220Y-69000781D01*
X163705218Y-69000778D01*
X163705218Y-69000776D01*
X163660101Y-68912230D01*
X163612287Y-68818390D01*
X163600927Y-68802754D01*
X163491971Y-68652786D01*
X163347213Y-68508028D01*
X163181613Y-68387715D01*
X163181612Y-68387714D01*
X163181610Y-68387713D01*
X163091336Y-68341716D01*
X162999223Y-68294781D01*
X162804534Y-68231522D01*
X162629995Y-68203878D01*
X162602352Y-68199500D01*
X162397648Y-68199500D01*
X162373329Y-68203351D01*
X162195465Y-68231522D01*
X162000776Y-68294781D01*
X161818386Y-68387715D01*
X161652786Y-68508028D01*
X161508028Y-68652786D01*
X161387715Y-68818386D01*
X161294781Y-69000776D01*
X161231522Y-69195465D01*
X161199500Y-69397648D01*
X157688407Y-69397648D01*
X157655051Y-69332184D01*
X157611459Y-69272184D01*
X157530109Y-69160213D01*
X157379786Y-69009890D01*
X157207820Y-68884951D01*
X157207115Y-68884591D01*
X157199054Y-68880485D01*
X157148259Y-68832512D01*
X157131463Y-68764692D01*
X157153999Y-68698556D01*
X157199054Y-68659515D01*
X157207816Y-68655051D01*
X157284257Y-68599514D01*
X157379786Y-68530109D01*
X157379788Y-68530106D01*
X157379792Y-68530104D01*
X157530104Y-68379792D01*
X157530106Y-68379788D01*
X157530109Y-68379786D01*
X157655048Y-68207820D01*
X157655047Y-68207820D01*
X157655051Y-68207816D01*
X157751557Y-68018412D01*
X157817246Y-67816243D01*
X157850500Y-67606287D01*
X157850500Y-67393713D01*
X157817246Y-67183757D01*
X157751557Y-66981588D01*
X157655051Y-66792184D01*
X157655049Y-66792181D01*
X157655048Y-66792179D01*
X157530109Y-66620213D01*
X157379786Y-66469890D01*
X157207820Y-66344951D01*
X157207115Y-66344591D01*
X157199054Y-66340485D01*
X157148259Y-66292512D01*
X157131463Y-66224692D01*
X157153999Y-66158556D01*
X157199054Y-66119515D01*
X157207816Y-66115051D01*
X157269681Y-66070104D01*
X157379786Y-65990109D01*
X157379788Y-65990106D01*
X157379792Y-65990104D01*
X157530104Y-65839792D01*
X157530106Y-65839788D01*
X157530109Y-65839786D01*
X157655048Y-65667820D01*
X157655047Y-65667820D01*
X157655051Y-65667816D01*
X157751557Y-65478412D01*
X157817246Y-65276243D01*
X157850500Y-65066287D01*
X157850500Y-64853713D01*
X157817246Y-64643757D01*
X157751557Y-64441588D01*
X157655051Y-64252184D01*
X157655049Y-64252181D01*
X157655048Y-64252179D01*
X157530109Y-64080213D01*
X157379786Y-63929890D01*
X157207820Y-63804951D01*
X157207115Y-63804591D01*
X157199054Y-63800485D01*
X157148259Y-63752512D01*
X157131463Y-63684692D01*
X157153999Y-63618556D01*
X157199054Y-63579515D01*
X157207816Y-63575051D01*
X157284254Y-63519516D01*
X157379786Y-63450109D01*
X157379788Y-63450106D01*
X157379792Y-63450104D01*
X157530104Y-63299792D01*
X157530106Y-63299788D01*
X157530109Y-63299786D01*
X157655048Y-63127820D01*
X157655047Y-63127820D01*
X157655051Y-63127816D01*
X157751557Y-62938412D01*
X157817246Y-62736243D01*
X157850500Y-62526287D01*
X157850500Y-62313713D01*
X157817246Y-62103757D01*
X157751557Y-61901588D01*
X157655051Y-61712184D01*
X157655049Y-61712181D01*
X157655048Y-61712179D01*
X157530109Y-61540213D01*
X157379786Y-61389890D01*
X157207820Y-61264951D01*
X157207115Y-61264591D01*
X157199054Y-61260485D01*
X157148259Y-61212512D01*
X157131463Y-61144692D01*
X157153999Y-61078556D01*
X157199054Y-61039515D01*
X157207816Y-61035051D01*
X157286502Y-60977883D01*
X157379786Y-60910109D01*
X157379788Y-60910106D01*
X157379792Y-60910104D01*
X157530104Y-60759792D01*
X157530106Y-60759788D01*
X157530109Y-60759786D01*
X157655048Y-60587820D01*
X157655047Y-60587820D01*
X157655051Y-60587816D01*
X157751557Y-60398412D01*
X157817246Y-60196243D01*
X157850500Y-59986287D01*
X157850500Y-59773713D01*
X157817246Y-59563757D01*
X157751557Y-59361588D01*
X157655051Y-59172184D01*
X157655049Y-59172181D01*
X157655048Y-59172179D01*
X157530109Y-59000213D01*
X157379786Y-58849890D01*
X157207820Y-58724951D01*
X157207115Y-58724591D01*
X157199054Y-58720485D01*
X157148259Y-58672512D01*
X157131463Y-58604692D01*
X157153999Y-58538556D01*
X157199054Y-58499515D01*
X157207816Y-58495051D01*
X157284254Y-58439516D01*
X157379786Y-58370109D01*
X157379788Y-58370106D01*
X157379792Y-58370104D01*
X157530104Y-58219792D01*
X157530106Y-58219788D01*
X157530109Y-58219786D01*
X157655048Y-58047820D01*
X157655047Y-58047820D01*
X157655051Y-58047816D01*
X157751557Y-57858412D01*
X157817246Y-57656243D01*
X157850500Y-57446287D01*
X157850500Y-57233713D01*
X157817246Y-57023757D01*
X157751557Y-56821588D01*
X157655051Y-56632184D01*
X157655049Y-56632181D01*
X157655048Y-56632179D01*
X157530109Y-56460213D01*
X157379786Y-56309890D01*
X157207820Y-56184951D01*
X157207115Y-56184591D01*
X157199054Y-56180485D01*
X157148259Y-56132512D01*
X157131463Y-56064692D01*
X157153999Y-55998556D01*
X157199054Y-55959515D01*
X157207816Y-55955051D01*
X157271126Y-55909054D01*
X157379786Y-55830109D01*
X157379788Y-55830106D01*
X157379792Y-55830104D01*
X157530104Y-55679792D01*
X157530106Y-55679788D01*
X157530109Y-55679786D01*
X157655048Y-55507820D01*
X157655047Y-55507820D01*
X157655051Y-55507816D01*
X157751557Y-55318412D01*
X157817246Y-55116243D01*
X157850500Y-54906287D01*
X157850500Y-54905513D01*
X158299500Y-54905513D01*
X158299500Y-55094486D01*
X158329059Y-55281118D01*
X158387454Y-55460836D01*
X158422751Y-55530109D01*
X158473240Y-55629199D01*
X158584310Y-55782073D01*
X158717927Y-55915690D01*
X158870801Y-56026760D01*
X158945247Y-56064692D01*
X159039163Y-56112545D01*
X159039165Y-56112545D01*
X159039168Y-56112547D01*
X159100614Y-56132512D01*
X159218881Y-56170940D01*
X159405514Y-56200500D01*
X159405519Y-56200500D01*
X159594486Y-56200500D01*
X159781118Y-56170940D01*
X159831339Y-56154622D01*
X159960832Y-56112547D01*
X160129199Y-56026760D01*
X160282073Y-55915690D01*
X160415690Y-55782073D01*
X160517740Y-55641614D01*
X160573071Y-55598949D01*
X160618058Y-55590500D01*
X161265303Y-55590500D01*
X161332342Y-55610185D01*
X161375788Y-55658206D01*
X161387713Y-55681611D01*
X161508028Y-55847213D01*
X161652786Y-55991971D01*
X161760186Y-56070000D01*
X161818390Y-56112287D01*
X161910525Y-56159232D01*
X162000776Y-56205218D01*
X162000778Y-56205218D01*
X162000781Y-56205220D01*
X162105137Y-56239127D01*
X162195465Y-56268477D01*
X162296557Y-56284488D01*
X162397648Y-56300500D01*
X162397649Y-56300500D01*
X162602351Y-56300500D01*
X162602352Y-56300500D01*
X162804534Y-56268477D01*
X162999219Y-56205220D01*
X163181610Y-56112287D01*
X163274590Y-56044732D01*
X163347213Y-55991971D01*
X163347215Y-55991968D01*
X163347219Y-55991966D01*
X163491966Y-55847219D01*
X163491968Y-55847215D01*
X163491971Y-55847213D01*
X163567445Y-55743330D01*
X163612287Y-55681610D01*
X163705220Y-55499219D01*
X163768477Y-55304534D01*
X163800500Y-55102352D01*
X163800500Y-54897682D01*
X166200000Y-54897682D01*
X166200000Y-55102317D01*
X166232009Y-55304417D01*
X166295244Y-55499031D01*
X166388141Y-55681350D01*
X166388147Y-55681359D01*
X166420523Y-55725921D01*
X166420524Y-55725922D01*
X167100000Y-55046446D01*
X167100000Y-55052661D01*
X167127259Y-55154394D01*
X167179920Y-55245606D01*
X167254394Y-55320080D01*
X167345606Y-55372741D01*
X167447339Y-55400000D01*
X167453553Y-55400000D01*
X166774076Y-56079474D01*
X166818650Y-56111859D01*
X167000968Y-56204755D01*
X167195582Y-56267990D01*
X167397683Y-56300000D01*
X167602317Y-56300000D01*
X167804417Y-56267990D01*
X167999031Y-56204755D01*
X168181349Y-56111859D01*
X168225921Y-56079474D01*
X167546447Y-55400000D01*
X167552661Y-55400000D01*
X167654394Y-55372741D01*
X167745606Y-55320080D01*
X167820080Y-55245606D01*
X167872741Y-55154394D01*
X167900000Y-55052661D01*
X167900000Y-55046447D01*
X168579474Y-55725921D01*
X168611859Y-55681349D01*
X168704755Y-55499031D01*
X168767990Y-55304417D01*
X168800000Y-55102317D01*
X168800000Y-54897682D01*
X168767990Y-54695582D01*
X168704755Y-54500968D01*
X168611859Y-54318650D01*
X168579474Y-54274077D01*
X168579474Y-54274076D01*
X167900000Y-54953551D01*
X167900000Y-54947339D01*
X167872741Y-54845606D01*
X167820080Y-54754394D01*
X167745606Y-54679920D01*
X167654394Y-54627259D01*
X167552661Y-54600000D01*
X167546446Y-54600000D01*
X168225922Y-53920524D01*
X168225921Y-53920523D01*
X168181359Y-53888147D01*
X168181350Y-53888141D01*
X167999031Y-53795244D01*
X167804417Y-53732009D01*
X167602317Y-53700000D01*
X167397683Y-53700000D01*
X167195582Y-53732009D01*
X167000968Y-53795244D01*
X166818644Y-53888143D01*
X166774077Y-53920523D01*
X166774077Y-53920524D01*
X167453554Y-54600000D01*
X167447339Y-54600000D01*
X167345606Y-54627259D01*
X167254394Y-54679920D01*
X167179920Y-54754394D01*
X167127259Y-54845606D01*
X167100000Y-54947339D01*
X167100000Y-54953553D01*
X166420524Y-54274077D01*
X166420523Y-54274077D01*
X166388143Y-54318644D01*
X166295244Y-54500968D01*
X166232009Y-54695582D01*
X166200000Y-54897682D01*
X163800500Y-54897682D01*
X163800500Y-54897648D01*
X163781848Y-54779888D01*
X163768477Y-54695465D01*
X163720240Y-54547007D01*
X163705220Y-54500781D01*
X163705218Y-54500778D01*
X163705218Y-54500776D01*
X163650666Y-54393713D01*
X163612287Y-54318390D01*
X163580092Y-54274077D01*
X163491971Y-54152786D01*
X163347213Y-54008028D01*
X163181613Y-53887714D01*
X163158203Y-53875786D01*
X163107408Y-53827810D01*
X163090500Y-53765302D01*
X163090500Y-51428057D01*
X163110185Y-51361018D01*
X163141615Y-51327739D01*
X163151974Y-51320213D01*
X163155182Y-51317882D01*
X167345669Y-51317882D01*
X167345670Y-51317883D01*
X167371059Y-51336329D01*
X167539362Y-51422085D01*
X167718997Y-51480451D01*
X167905553Y-51510000D01*
X168094447Y-51510000D01*
X168281002Y-51480451D01*
X168460637Y-51422085D01*
X168628937Y-51336331D01*
X168654328Y-51317883D01*
X168654328Y-51317882D01*
X168000001Y-50663554D01*
X168000000Y-50663554D01*
X167345669Y-51317882D01*
X163155182Y-51317882D01*
X163282073Y-51225690D01*
X163415690Y-51092073D01*
X163526760Y-50939199D01*
X163612547Y-50770832D01*
X163670940Y-50591118D01*
X163681427Y-50524905D01*
X163700500Y-50404486D01*
X163700500Y-50215552D01*
X166800000Y-50215552D01*
X166800000Y-50404447D01*
X166829548Y-50591002D01*
X166887914Y-50770637D01*
X166973666Y-50938933D01*
X166992116Y-50964328D01*
X167646446Y-50310000D01*
X167646446Y-50309999D01*
X167600369Y-50263922D01*
X167650000Y-50263922D01*
X167650000Y-50356078D01*
X167673852Y-50445095D01*
X167719930Y-50524905D01*
X167785095Y-50590070D01*
X167864905Y-50636148D01*
X167953922Y-50660000D01*
X168046078Y-50660000D01*
X168135095Y-50636148D01*
X168214905Y-50590070D01*
X168280070Y-50524905D01*
X168326148Y-50445095D01*
X168350000Y-50356078D01*
X168350000Y-50309999D01*
X168353554Y-50309999D01*
X168353554Y-50310000D01*
X169007882Y-50964328D01*
X169007883Y-50964328D01*
X169026331Y-50938937D01*
X169112085Y-50770637D01*
X169170451Y-50591002D01*
X169200000Y-50404447D01*
X169200000Y-50215552D01*
X169170451Y-50028997D01*
X169112085Y-49849362D01*
X169026329Y-49681059D01*
X169007883Y-49655670D01*
X169007882Y-49655669D01*
X168353554Y-50309999D01*
X168350000Y-50309999D01*
X168350000Y-50263922D01*
X168326148Y-50174905D01*
X168280070Y-50095095D01*
X168214905Y-50029930D01*
X168135095Y-49983852D01*
X168046078Y-49960000D01*
X167953922Y-49960000D01*
X167864905Y-49983852D01*
X167785095Y-50029930D01*
X167719930Y-50095095D01*
X167673852Y-50174905D01*
X167650000Y-50263922D01*
X167600369Y-50263922D01*
X166992116Y-49655669D01*
X166992116Y-49655670D01*
X166973669Y-49681060D01*
X166887914Y-49849362D01*
X166829548Y-50028997D01*
X166800000Y-50215552D01*
X163700500Y-50215552D01*
X163700500Y-50215513D01*
X163670940Y-50028881D01*
X163612545Y-49849163D01*
X163533802Y-49694622D01*
X163526760Y-49680801D01*
X163415690Y-49527927D01*
X163282073Y-49394310D01*
X163155179Y-49302116D01*
X167345669Y-49302116D01*
X168000000Y-49956446D01*
X168000001Y-49956446D01*
X168654328Y-49302116D01*
X168628933Y-49283666D01*
X168460637Y-49197914D01*
X168281002Y-49139548D01*
X168094447Y-49110000D01*
X167905553Y-49110000D01*
X167718997Y-49139548D01*
X167539362Y-49197914D01*
X167371060Y-49283669D01*
X167345670Y-49302116D01*
X167345669Y-49302116D01*
X163155179Y-49302116D01*
X163129199Y-49283240D01*
X162960836Y-49197454D01*
X162781118Y-49139059D01*
X162594486Y-49109500D01*
X162594481Y-49109500D01*
X162405519Y-49109500D01*
X162405514Y-49109500D01*
X162218881Y-49139059D01*
X162039163Y-49197454D01*
X161870800Y-49283240D01*
X161787507Y-49343757D01*
X161717927Y-49394310D01*
X161717925Y-49394312D01*
X161717924Y-49394312D01*
X161584312Y-49527924D01*
X161584312Y-49527925D01*
X161584310Y-49527927D01*
X161536610Y-49593579D01*
X161473240Y-49680800D01*
X161387454Y-49849163D01*
X161329059Y-50028881D01*
X161299500Y-50215513D01*
X161299500Y-50404486D01*
X161329059Y-50591118D01*
X161387454Y-50770836D01*
X161440555Y-50875051D01*
X161473240Y-50939199D01*
X161584310Y-51092073D01*
X161717927Y-51225690D01*
X161848019Y-51320208D01*
X161858385Y-51327739D01*
X161901051Y-51383069D01*
X161909500Y-51428057D01*
X161909500Y-53765302D01*
X161889815Y-53832341D01*
X161841797Y-53875786D01*
X161818386Y-53887714D01*
X161652786Y-54008028D01*
X161508028Y-54152786D01*
X161387713Y-54318388D01*
X161375788Y-54341794D01*
X161327814Y-54392590D01*
X161265303Y-54409500D01*
X160618058Y-54409500D01*
X160551019Y-54389815D01*
X160517740Y-54358386D01*
X160488870Y-54318650D01*
X160415690Y-54217927D01*
X160282073Y-54084310D01*
X160129199Y-53973240D01*
X159960836Y-53887454D01*
X159781118Y-53829059D01*
X159594486Y-53799500D01*
X159594481Y-53799500D01*
X159405519Y-53799500D01*
X159405514Y-53799500D01*
X159218881Y-53829059D01*
X159039163Y-53887454D01*
X158870800Y-53973240D01*
X158822911Y-54008034D01*
X158717927Y-54084310D01*
X158717925Y-54084312D01*
X158717924Y-54084312D01*
X158584312Y-54217924D01*
X158584312Y-54217925D01*
X158584310Y-54217927D01*
X158538060Y-54281585D01*
X158473240Y-54370800D01*
X158387454Y-54539163D01*
X158329059Y-54718881D01*
X158299500Y-54905513D01*
X157850500Y-54905513D01*
X157850500Y-54693713D01*
X157817246Y-54483757D01*
X157751557Y-54281588D01*
X157655051Y-54092184D01*
X157655049Y-54092181D01*
X157655048Y-54092179D01*
X157530109Y-53920213D01*
X157379786Y-53769890D01*
X157207820Y-53644951D01*
X157207115Y-53644591D01*
X157199054Y-53640485D01*
X157148259Y-53592512D01*
X157131463Y-53524692D01*
X157153999Y-53458556D01*
X157199054Y-53419515D01*
X157207816Y-53415051D01*
X157249554Y-53384727D01*
X157379786Y-53290109D01*
X157379788Y-53290106D01*
X157379792Y-53290104D01*
X157530104Y-53139792D01*
X157530106Y-53139788D01*
X157530109Y-53139786D01*
X157655048Y-52967820D01*
X157655047Y-52967820D01*
X157655051Y-52967816D01*
X157751557Y-52778412D01*
X157817246Y-52576243D01*
X157850500Y-52366287D01*
X157850500Y-52153713D01*
X157817246Y-51943757D01*
X157751557Y-51741588D01*
X157655051Y-51552184D01*
X157655049Y-51552181D01*
X157655048Y-51552179D01*
X157530109Y-51380213D01*
X157379786Y-51229890D01*
X157207820Y-51104951D01*
X157207115Y-51104591D01*
X157199054Y-51100485D01*
X157148259Y-51052512D01*
X157131463Y-50984692D01*
X157153999Y-50918556D01*
X157199054Y-50879515D01*
X157207816Y-50875051D01*
X157284257Y-50819514D01*
X157379786Y-50750109D01*
X157379788Y-50750106D01*
X157379792Y-50750104D01*
X157530104Y-50599792D01*
X157530106Y-50599788D01*
X157530109Y-50599786D01*
X157655048Y-50427820D01*
X157655047Y-50427820D01*
X157655051Y-50427816D01*
X157751557Y-50238412D01*
X157817246Y-50036243D01*
X157850500Y-49826287D01*
X157850500Y-49613713D01*
X157817246Y-49403757D01*
X157751557Y-49201588D01*
X157655051Y-49012184D01*
X157655049Y-49012181D01*
X157655048Y-49012179D01*
X157530109Y-48840213D01*
X157379786Y-48689890D01*
X157207820Y-48564951D01*
X157207115Y-48564591D01*
X157199054Y-48560485D01*
X157148259Y-48512512D01*
X157131463Y-48444692D01*
X157153999Y-48378556D01*
X157199054Y-48339515D01*
X157207816Y-48335051D01*
X157289725Y-48275541D01*
X157379786Y-48210109D01*
X157379788Y-48210106D01*
X157379792Y-48210104D01*
X157530104Y-48059792D01*
X157530106Y-48059788D01*
X157530109Y-48059786D01*
X157655048Y-47887820D01*
X157655047Y-47887820D01*
X157655051Y-47887816D01*
X157751557Y-47698412D01*
X157817246Y-47496243D01*
X157850500Y-47286287D01*
X157850500Y-47073713D01*
X157817246Y-46863757D01*
X157751557Y-46661588D01*
X157655051Y-46472184D01*
X157655049Y-46472181D01*
X157655048Y-46472179D01*
X157530109Y-46300213D01*
X157379786Y-46149890D01*
X157207820Y-46024951D01*
X157207115Y-46024591D01*
X157199054Y-46020485D01*
X157148259Y-45972512D01*
X157131463Y-45904692D01*
X157153999Y-45838556D01*
X157199054Y-45799515D01*
X157207816Y-45795051D01*
X157284257Y-45739514D01*
X157379786Y-45670109D01*
X157379788Y-45670106D01*
X157379792Y-45670104D01*
X157530104Y-45519792D01*
X157530106Y-45519788D01*
X157530109Y-45519786D01*
X157655048Y-45347820D01*
X157655047Y-45347820D01*
X157655051Y-45347816D01*
X157751557Y-45158412D01*
X157817246Y-44956243D01*
X157850500Y-44746287D01*
X157850500Y-44533713D01*
X157817246Y-44323757D01*
X157751557Y-44121588D01*
X157655051Y-43932184D01*
X157655049Y-43932181D01*
X157655048Y-43932179D01*
X157530109Y-43760213D01*
X157379786Y-43609890D01*
X157207820Y-43484951D01*
X157207115Y-43484591D01*
X157199054Y-43480485D01*
X157148259Y-43432512D01*
X157131463Y-43364692D01*
X157153999Y-43298556D01*
X157199054Y-43259515D01*
X157207816Y-43255051D01*
X157284257Y-43199514D01*
X157379786Y-43130109D01*
X157379788Y-43130106D01*
X157379792Y-43130104D01*
X157530104Y-42979792D01*
X157530106Y-42979788D01*
X157530109Y-42979786D01*
X157655048Y-42807820D01*
X157655047Y-42807820D01*
X157655051Y-42807816D01*
X157751557Y-42618412D01*
X157758997Y-42595513D01*
X161299500Y-42595513D01*
X161299500Y-42784486D01*
X161329059Y-42971118D01*
X161387454Y-43150836D01*
X161440992Y-43255909D01*
X161473240Y-43319199D01*
X161584310Y-43472073D01*
X161717927Y-43605690D01*
X161870801Y-43716760D01*
X161950347Y-43757290D01*
X162039163Y-43802545D01*
X162039165Y-43802545D01*
X162039168Y-43802547D01*
X162135497Y-43833846D01*
X162218881Y-43860940D01*
X162405514Y-43890500D01*
X162405519Y-43890500D01*
X162594486Y-43890500D01*
X162781118Y-43860940D01*
X162960832Y-43802547D01*
X163129199Y-43716760D01*
X163282073Y-43605690D01*
X163415690Y-43472073D01*
X163526760Y-43319199D01*
X163612547Y-43150832D01*
X163670940Y-42971118D01*
X163696804Y-42807820D01*
X163700500Y-42784486D01*
X163700500Y-42595513D01*
X163670940Y-42408881D01*
X163612545Y-42229163D01*
X163526759Y-42060800D01*
X163478017Y-41993713D01*
X163415690Y-41907927D01*
X163282073Y-41774310D01*
X163129199Y-41663240D01*
X163119963Y-41658534D01*
X162960836Y-41577454D01*
X162781118Y-41519059D01*
X162594486Y-41489500D01*
X162594481Y-41489500D01*
X162405519Y-41489500D01*
X162405514Y-41489500D01*
X162218881Y-41519059D01*
X162039163Y-41577454D01*
X161870800Y-41663240D01*
X161787507Y-41723757D01*
X161717927Y-41774310D01*
X161717925Y-41774312D01*
X161717924Y-41774312D01*
X161584312Y-41907924D01*
X161584312Y-41907925D01*
X161584310Y-41907927D01*
X161536610Y-41973579D01*
X161473240Y-42060800D01*
X161387454Y-42229163D01*
X161329059Y-42408881D01*
X161299500Y-42595513D01*
X157758997Y-42595513D01*
X157817246Y-42416243D01*
X157850500Y-42206287D01*
X157850500Y-41993713D01*
X157817246Y-41783757D01*
X157800038Y-41730799D01*
X157798044Y-41660960D01*
X157830287Y-41604804D01*
X159625985Y-39809106D01*
X159687306Y-39775623D01*
X159756998Y-39780607D01*
X159801345Y-39809108D01*
X159907927Y-39915690D01*
X160060801Y-40026760D01*
X160140347Y-40067290D01*
X160229163Y-40112545D01*
X160229165Y-40112545D01*
X160229168Y-40112547D01*
X160325497Y-40143846D01*
X160408881Y-40170940D01*
X160595514Y-40200500D01*
X160595519Y-40200500D01*
X160784486Y-40200500D01*
X160971118Y-40170940D01*
X161150832Y-40112547D01*
X161319199Y-40026760D01*
X161472073Y-39915690D01*
X161605690Y-39782073D01*
X161716760Y-39629199D01*
X161802547Y-39460832D01*
X161860940Y-39281118D01*
X161890500Y-39094486D01*
X161890500Y-38905513D01*
X161860940Y-38718881D01*
X161802545Y-38539163D01*
X161736478Y-38409500D01*
X161716760Y-38370801D01*
X161605690Y-38217927D01*
X161472073Y-38084310D01*
X161319199Y-37973240D01*
X161312263Y-37969706D01*
X161150836Y-37887454D01*
X160971118Y-37829059D01*
X160784486Y-37799500D01*
X160784481Y-37799500D01*
X160595519Y-37799500D01*
X160595514Y-37799500D01*
X160408881Y-37829059D01*
X160229163Y-37887454D01*
X160060800Y-37973240D01*
X159973579Y-38036610D01*
X159907927Y-38084310D01*
X159907925Y-38084312D01*
X159907924Y-38084312D01*
X159774311Y-38217925D01*
X159672260Y-38358386D01*
X159616929Y-38401051D01*
X159571942Y-38409500D01*
X159522259Y-38409500D01*
X159403813Y-38441236D01*
X159403812Y-38441237D01*
X159387943Y-38445489D01*
X159372073Y-38449742D01*
X159237431Y-38527477D01*
X159237423Y-38527483D01*
X158062180Y-39702726D01*
X158000857Y-39736211D01*
X157931165Y-39731227D01*
X157875232Y-39689355D01*
X157850815Y-39623891D01*
X157850499Y-39615045D01*
X157850499Y-38662129D01*
X157850498Y-38662123D01*
X157850497Y-38662116D01*
X157844091Y-38602517D01*
X157842084Y-38597137D01*
X157793797Y-38467671D01*
X157793793Y-38467664D01*
X157707547Y-38352455D01*
X157707544Y-38352452D01*
X157592335Y-38266206D01*
X157592328Y-38266202D01*
X157457482Y-38215908D01*
X157457483Y-38215908D01*
X157397883Y-38209501D01*
X157397881Y-38209500D01*
X157397873Y-38209500D01*
X157397864Y-38209500D01*
X155602129Y-38209500D01*
X155602123Y-38209501D01*
X155542516Y-38215908D01*
X155407671Y-38266202D01*
X155407664Y-38266206D01*
X155292455Y-38352452D01*
X155292452Y-38352455D01*
X155206206Y-38467664D01*
X155206202Y-38467671D01*
X155155908Y-38602517D01*
X155152071Y-38638211D01*
X155149501Y-38662123D01*
X155149500Y-38662135D01*
X155149500Y-40457870D01*
X155149501Y-40457876D01*
X155155908Y-40517483D01*
X155206202Y-40652328D01*
X155206206Y-40652335D01*
X155292452Y-40767544D01*
X155292455Y-40767547D01*
X155407664Y-40853793D01*
X155407671Y-40853797D01*
X155539082Y-40902810D01*
X155595016Y-40944681D01*
X155619433Y-41010145D01*
X155604582Y-41078418D01*
X155583431Y-41106673D01*
X155469889Y-41220215D01*
X155344951Y-41392179D01*
X155248444Y-41581585D01*
X155182753Y-41783760D01*
X155163087Y-41907927D01*
X155149500Y-41993713D01*
X155149500Y-42206287D01*
X155182754Y-42416243D01*
X155228948Y-42558414D01*
X155248444Y-42618414D01*
X155344951Y-42807820D01*
X155469890Y-42979786D01*
X155620213Y-43130109D01*
X155792182Y-43255050D01*
X155800946Y-43259516D01*
X155851742Y-43307491D01*
X155868536Y-43375312D01*
X155845998Y-43441447D01*
X155800946Y-43480484D01*
X155792182Y-43484949D01*
X155620213Y-43609890D01*
X155469890Y-43760213D01*
X155344951Y-43932179D01*
X155248444Y-44121585D01*
X155182753Y-44323760D01*
X155149500Y-44533713D01*
X155149500Y-44746286D01*
X155180248Y-44940426D01*
X155182754Y-44956243D01*
X155230155Y-45102129D01*
X155248444Y-45158414D01*
X155344951Y-45347820D01*
X155469890Y-45519786D01*
X155620213Y-45670109D01*
X155792182Y-45795050D01*
X155800946Y-45799516D01*
X155851742Y-45847491D01*
X155868536Y-45915312D01*
X155845998Y-45981447D01*
X155800946Y-46020484D01*
X155792182Y-46024949D01*
X155620213Y-46149890D01*
X155469890Y-46300213D01*
X155344951Y-46472179D01*
X155248444Y-46661585D01*
X155182753Y-46863760D01*
X155167909Y-46957482D01*
X155149500Y-47073713D01*
X155149500Y-47286287D01*
X155182754Y-47496243D01*
X155228948Y-47638414D01*
X155248444Y-47698414D01*
X155344951Y-47887820D01*
X155469890Y-48059786D01*
X155620213Y-48210109D01*
X155792182Y-48335050D01*
X155800946Y-48339516D01*
X155851742Y-48387491D01*
X155868536Y-48455312D01*
X155845998Y-48521447D01*
X155800946Y-48560484D01*
X155792182Y-48564949D01*
X155620213Y-48689890D01*
X155469890Y-48840213D01*
X155344951Y-49012179D01*
X155248444Y-49201585D01*
X155182753Y-49403760D01*
X155163087Y-49527927D01*
X155149500Y-49613713D01*
X155149500Y-49826287D01*
X155153123Y-49849163D01*
X155181430Y-50027887D01*
X155182754Y-50036243D01*
X155241015Y-50215552D01*
X155248444Y-50238414D01*
X155344951Y-50427820D01*
X155469890Y-50599786D01*
X155620213Y-50750109D01*
X155792182Y-50875050D01*
X155800946Y-50879516D01*
X155851742Y-50927491D01*
X155868536Y-50995312D01*
X155845998Y-51061447D01*
X155800946Y-51100484D01*
X155792182Y-51104949D01*
X155620213Y-51229890D01*
X155469890Y-51380213D01*
X155344951Y-51552179D01*
X155248444Y-51741585D01*
X155182753Y-51943760D01*
X155180215Y-51959786D01*
X155149500Y-52153713D01*
X155149500Y-52366287D01*
X155159534Y-52429644D01*
X155181637Y-52569195D01*
X155182754Y-52576243D01*
X155221404Y-52695196D01*
X155248444Y-52778414D01*
X155344951Y-52967820D01*
X155469890Y-53139786D01*
X155620213Y-53290109D01*
X155792182Y-53415050D01*
X155800946Y-53419516D01*
X155851742Y-53467491D01*
X155868536Y-53535312D01*
X155845998Y-53601447D01*
X155800946Y-53640484D01*
X155792182Y-53644949D01*
X155620213Y-53769890D01*
X155469890Y-53920213D01*
X155344951Y-54092179D01*
X155248444Y-54281585D01*
X155182753Y-54483760D01*
X155149500Y-54693713D01*
X155149500Y-54906286D01*
X155182753Y-55116240D01*
X155182754Y-55116244D01*
X155206128Y-55188183D01*
X155208123Y-55258024D01*
X155172042Y-55317857D01*
X155109341Y-55348684D01*
X155088197Y-55350500D01*
X145824700Y-55350500D01*
X145757661Y-55330815D01*
X145711906Y-55278011D01*
X145701962Y-55208853D01*
X145714215Y-55170205D01*
X145746803Y-55106246D01*
X145791557Y-55018412D01*
X145857246Y-54816243D01*
X145890500Y-54606287D01*
X145890500Y-54393713D01*
X145857246Y-54183757D01*
X145791557Y-53981588D01*
X145695051Y-53792184D01*
X145695049Y-53792181D01*
X145695048Y-53792179D01*
X145570109Y-53620213D01*
X145419786Y-53469890D01*
X145247820Y-53344951D01*
X145058414Y-53248444D01*
X145058413Y-53248443D01*
X145058412Y-53248443D01*
X144856243Y-53182754D01*
X144856241Y-53182753D01*
X144856240Y-53182753D01*
X144694957Y-53157208D01*
X144646287Y-53149500D01*
X144433713Y-53149500D01*
X144385042Y-53157208D01*
X144223760Y-53182753D01*
X144021585Y-53248444D01*
X143832179Y-53344951D01*
X143660213Y-53469890D01*
X143509890Y-53620213D01*
X143384949Y-53792182D01*
X143380202Y-53801499D01*
X143332227Y-53852293D01*
X143264405Y-53869087D01*
X143198271Y-53846548D01*
X143159234Y-53801495D01*
X143154626Y-53792452D01*
X143115270Y-53738282D01*
X143115269Y-53738282D01*
X142482962Y-54370589D01*
X142465925Y-54307007D01*
X142400099Y-54192993D01*
X142307007Y-54099901D01*
X142192993Y-54034075D01*
X142129409Y-54017037D01*
X142761716Y-53384728D01*
X142707550Y-53345375D01*
X142518217Y-53248904D01*
X142316129Y-53183242D01*
X142106246Y-53150000D01*
X141893754Y-53150000D01*
X141683872Y-53183242D01*
X141683869Y-53183242D01*
X141481782Y-53248904D01*
X141292439Y-53345380D01*
X141238282Y-53384727D01*
X141238282Y-53384728D01*
X141870591Y-54017037D01*
X141807007Y-54034075D01*
X141692993Y-54099901D01*
X141599901Y-54192993D01*
X141534075Y-54307007D01*
X141517037Y-54370591D01*
X140884728Y-53738282D01*
X140884727Y-53738282D01*
X140845380Y-53792440D01*
X140845376Y-53792446D01*
X140840760Y-53801505D01*
X140792781Y-53852297D01*
X140724959Y-53869087D01*
X140658826Y-53846543D01*
X140619794Y-53801493D01*
X140615051Y-53792184D01*
X140615049Y-53792181D01*
X140615048Y-53792179D01*
X140490109Y-53620213D01*
X140339786Y-53469890D01*
X140167820Y-53344951D01*
X139978414Y-53248444D01*
X139978413Y-53248443D01*
X139978412Y-53248443D01*
X139776243Y-53182754D01*
X139776241Y-53182753D01*
X139776240Y-53182753D01*
X139614957Y-53157208D01*
X139566287Y-53149500D01*
X139353713Y-53149500D01*
X139305042Y-53157208D01*
X139143760Y-53182753D01*
X138941585Y-53248444D01*
X138752179Y-53344951D01*
X138580213Y-53469890D01*
X138429890Y-53620213D01*
X138304949Y-53792182D01*
X138300484Y-53800946D01*
X138252509Y-53851742D01*
X138184688Y-53868536D01*
X138118553Y-53845998D01*
X138079516Y-53800946D01*
X138075050Y-53792182D01*
X137950109Y-53620213D01*
X137799786Y-53469890D01*
X137627820Y-53344951D01*
X137438414Y-53248444D01*
X137438413Y-53248443D01*
X137438412Y-53248443D01*
X137236243Y-53182754D01*
X137236241Y-53182753D01*
X137236240Y-53182753D01*
X137074957Y-53157208D01*
X137026287Y-53149500D01*
X136813713Y-53149500D01*
X136765042Y-53157208D01*
X136603760Y-53182753D01*
X136401585Y-53248444D01*
X136212179Y-53344951D01*
X136040213Y-53469890D01*
X135889890Y-53620213D01*
X135764949Y-53792182D01*
X135760484Y-53800946D01*
X135712509Y-53851742D01*
X135644688Y-53868536D01*
X135578553Y-53845998D01*
X135539516Y-53800946D01*
X135535050Y-53792182D01*
X135410109Y-53620213D01*
X135259786Y-53469890D01*
X135087820Y-53344951D01*
X134898414Y-53248444D01*
X134898413Y-53248443D01*
X134898412Y-53248443D01*
X134696243Y-53182754D01*
X134696241Y-53182753D01*
X134696240Y-53182753D01*
X134534957Y-53157208D01*
X134486287Y-53149500D01*
X134273713Y-53149500D01*
X134225042Y-53157208D01*
X134063760Y-53182753D01*
X133861585Y-53248444D01*
X133672179Y-53344951D01*
X133500213Y-53469890D01*
X133349890Y-53620213D01*
X133224949Y-53792182D01*
X133220484Y-53800946D01*
X133172509Y-53851742D01*
X133104688Y-53868536D01*
X133038553Y-53845998D01*
X132999516Y-53800946D01*
X132995050Y-53792182D01*
X132870109Y-53620213D01*
X132719786Y-53469890D01*
X132547820Y-53344951D01*
X132358414Y-53248444D01*
X132358413Y-53248443D01*
X132358412Y-53248443D01*
X132156243Y-53182754D01*
X132156241Y-53182753D01*
X132156240Y-53182753D01*
X131994957Y-53157208D01*
X131946287Y-53149500D01*
X131733713Y-53149500D01*
X131685042Y-53157208D01*
X131523760Y-53182753D01*
X131321585Y-53248444D01*
X131132179Y-53344951D01*
X130960215Y-53469889D01*
X130846673Y-53583431D01*
X130785350Y-53616915D01*
X130715658Y-53611931D01*
X130659725Y-53570059D01*
X130642810Y-53539082D01*
X130593797Y-53407671D01*
X130593793Y-53407664D01*
X130507547Y-53292455D01*
X130507544Y-53292452D01*
X130392335Y-53206206D01*
X130392328Y-53206202D01*
X130257482Y-53155908D01*
X130257483Y-53155908D01*
X130197883Y-53149501D01*
X130197881Y-53149500D01*
X130197873Y-53149500D01*
X130197864Y-53149500D01*
X128402129Y-53149500D01*
X128402123Y-53149501D01*
X128342516Y-53155908D01*
X128207671Y-53206202D01*
X128207664Y-53206206D01*
X128092455Y-53292452D01*
X128092452Y-53292455D01*
X128006206Y-53407664D01*
X128006202Y-53407671D01*
X127955908Y-53542517D01*
X127949501Y-53602116D01*
X127949500Y-53602135D01*
X114000000Y-53602135D01*
X114000000Y-43702135D01*
X127949500Y-43702135D01*
X127949500Y-45497870D01*
X127949501Y-45497876D01*
X127955908Y-45557483D01*
X128006202Y-45692328D01*
X128006206Y-45692335D01*
X128092452Y-45807544D01*
X128092455Y-45807547D01*
X128207664Y-45893793D01*
X128207671Y-45893797D01*
X128342517Y-45944091D01*
X128342516Y-45944091D01*
X128349444Y-45944835D01*
X128402127Y-45950500D01*
X130197872Y-45950499D01*
X130257483Y-45944091D01*
X130392331Y-45893796D01*
X130507546Y-45807546D01*
X130593796Y-45692331D01*
X130642810Y-45560916D01*
X130684681Y-45504984D01*
X130750145Y-45480566D01*
X130818418Y-45495417D01*
X130846673Y-45516569D01*
X130960213Y-45630109D01*
X131132179Y-45755048D01*
X131132181Y-45755049D01*
X131132184Y-45755051D01*
X131321588Y-45851557D01*
X131523757Y-45917246D01*
X131733713Y-45950500D01*
X131733714Y-45950500D01*
X131946286Y-45950500D01*
X131946287Y-45950500D01*
X132156243Y-45917246D01*
X132358412Y-45851557D01*
X132547816Y-45755051D01*
X132634138Y-45692335D01*
X132719786Y-45630109D01*
X132719788Y-45630106D01*
X132719792Y-45630104D01*
X132870104Y-45479792D01*
X132870106Y-45479788D01*
X132870109Y-45479786D01*
X132995048Y-45307820D01*
X132995047Y-45307820D01*
X132995051Y-45307816D01*
X132999514Y-45299054D01*
X133047488Y-45248259D01*
X133115308Y-45231463D01*
X133181444Y-45253999D01*
X133220486Y-45299056D01*
X133224951Y-45307820D01*
X133349890Y-45479786D01*
X133500213Y-45630109D01*
X133672179Y-45755048D01*
X133672181Y-45755049D01*
X133672184Y-45755051D01*
X133861588Y-45851557D01*
X134063757Y-45917246D01*
X134273713Y-45950500D01*
X134273714Y-45950500D01*
X134486286Y-45950500D01*
X134486287Y-45950500D01*
X134696243Y-45917246D01*
X134898412Y-45851557D01*
X135087816Y-45755051D01*
X135174138Y-45692335D01*
X135259786Y-45630109D01*
X135259788Y-45630106D01*
X135259792Y-45630104D01*
X135410104Y-45479792D01*
X135410106Y-45479788D01*
X135410109Y-45479786D01*
X135535048Y-45307820D01*
X135535047Y-45307820D01*
X135535051Y-45307816D01*
X135539514Y-45299054D01*
X135587488Y-45248259D01*
X135655308Y-45231463D01*
X135721444Y-45253999D01*
X135760486Y-45299056D01*
X135764951Y-45307820D01*
X135889890Y-45479786D01*
X136040213Y-45630109D01*
X136212179Y-45755048D01*
X136212181Y-45755049D01*
X136212184Y-45755051D01*
X136401588Y-45851557D01*
X136603757Y-45917246D01*
X136813713Y-45950500D01*
X136813714Y-45950500D01*
X137026286Y-45950500D01*
X137026287Y-45950500D01*
X137236243Y-45917246D01*
X137438412Y-45851557D01*
X137627816Y-45755051D01*
X137714138Y-45692335D01*
X137799786Y-45630109D01*
X137799788Y-45630106D01*
X137799792Y-45630104D01*
X137950104Y-45479792D01*
X137950106Y-45479788D01*
X137950109Y-45479786D01*
X138075048Y-45307820D01*
X138075047Y-45307820D01*
X138075051Y-45307816D01*
X138079514Y-45299054D01*
X138127488Y-45248259D01*
X138195308Y-45231463D01*
X138261444Y-45253999D01*
X138300486Y-45299056D01*
X138304951Y-45307820D01*
X138429890Y-45479786D01*
X138580213Y-45630109D01*
X138752179Y-45755048D01*
X138752181Y-45755049D01*
X138752184Y-45755051D01*
X138941588Y-45851557D01*
X139143757Y-45917246D01*
X139353713Y-45950500D01*
X139353714Y-45950500D01*
X139566286Y-45950500D01*
X139566287Y-45950500D01*
X139776243Y-45917246D01*
X139978412Y-45851557D01*
X140167816Y-45755051D01*
X140254138Y-45692335D01*
X140339786Y-45630109D01*
X140339788Y-45630106D01*
X140339792Y-45630104D01*
X140490104Y-45479792D01*
X140490106Y-45479788D01*
X140490109Y-45479786D01*
X140615048Y-45307820D01*
X140615047Y-45307820D01*
X140615051Y-45307816D01*
X140619514Y-45299054D01*
X140667488Y-45248259D01*
X140735308Y-45231463D01*
X140801444Y-45253999D01*
X140840486Y-45299056D01*
X140844951Y-45307820D01*
X140969890Y-45479786D01*
X141120213Y-45630109D01*
X141292179Y-45755048D01*
X141292181Y-45755049D01*
X141292184Y-45755051D01*
X141481588Y-45851557D01*
X141683757Y-45917246D01*
X141893713Y-45950500D01*
X141893714Y-45950500D01*
X142106286Y-45950500D01*
X142106287Y-45950500D01*
X142316243Y-45917246D01*
X142518412Y-45851557D01*
X142707816Y-45755051D01*
X142794138Y-45692335D01*
X142879786Y-45630109D01*
X142879788Y-45630106D01*
X142879792Y-45630104D01*
X143030104Y-45479792D01*
X143030106Y-45479788D01*
X143030109Y-45479786D01*
X143155048Y-45307820D01*
X143155047Y-45307820D01*
X143155051Y-45307816D01*
X143159514Y-45299054D01*
X143207488Y-45248259D01*
X143275308Y-45231463D01*
X143341444Y-45253999D01*
X143380486Y-45299056D01*
X143384951Y-45307820D01*
X143509890Y-45479786D01*
X143660213Y-45630109D01*
X143832179Y-45755048D01*
X143832181Y-45755049D01*
X143832184Y-45755051D01*
X144021588Y-45851557D01*
X144223757Y-45917246D01*
X144433713Y-45950500D01*
X144433714Y-45950500D01*
X144646286Y-45950500D01*
X144646287Y-45950500D01*
X144856243Y-45917246D01*
X145058412Y-45851557D01*
X145247816Y-45755051D01*
X145334138Y-45692335D01*
X145419786Y-45630109D01*
X145419788Y-45630106D01*
X145419792Y-45630104D01*
X145570104Y-45479792D01*
X145570106Y-45479788D01*
X145570109Y-45479786D01*
X145695048Y-45307820D01*
X145695047Y-45307820D01*
X145695051Y-45307816D01*
X145791557Y-45118412D01*
X145857246Y-44916243D01*
X145890500Y-44706287D01*
X145890500Y-44493713D01*
X145857246Y-44283757D01*
X145791557Y-44081588D01*
X145695051Y-43892184D01*
X145695049Y-43892181D01*
X145695048Y-43892179D01*
X145570109Y-43720213D01*
X145419786Y-43569890D01*
X145247820Y-43444951D01*
X145058414Y-43348444D01*
X145058413Y-43348443D01*
X145058412Y-43348443D01*
X144856243Y-43282754D01*
X144856241Y-43282753D01*
X144856240Y-43282753D01*
X144694957Y-43257208D01*
X144646287Y-43249500D01*
X144433713Y-43249500D01*
X144385042Y-43257208D01*
X144223760Y-43282753D01*
X144021585Y-43348444D01*
X143832179Y-43444951D01*
X143660213Y-43569890D01*
X143509890Y-43720213D01*
X143384949Y-43892182D01*
X143380484Y-43900946D01*
X143332509Y-43951742D01*
X143264688Y-43968536D01*
X143198553Y-43945998D01*
X143159516Y-43900946D01*
X143155050Y-43892182D01*
X143030109Y-43720213D01*
X142879786Y-43569890D01*
X142707820Y-43444951D01*
X142518414Y-43348444D01*
X142518413Y-43348443D01*
X142518412Y-43348443D01*
X142316243Y-43282754D01*
X142316241Y-43282753D01*
X142316240Y-43282753D01*
X142154957Y-43257208D01*
X142106287Y-43249500D01*
X141893713Y-43249500D01*
X141845042Y-43257208D01*
X141683760Y-43282753D01*
X141481585Y-43348444D01*
X141292179Y-43444951D01*
X141120213Y-43569890D01*
X140969890Y-43720213D01*
X140844949Y-43892182D01*
X140840484Y-43900946D01*
X140792509Y-43951742D01*
X140724688Y-43968536D01*
X140658553Y-43945998D01*
X140619516Y-43900946D01*
X140615050Y-43892182D01*
X140490109Y-43720213D01*
X140339786Y-43569890D01*
X140167820Y-43444951D01*
X139978414Y-43348444D01*
X139978413Y-43348443D01*
X139978412Y-43348443D01*
X139776243Y-43282754D01*
X139776241Y-43282753D01*
X139776240Y-43282753D01*
X139614957Y-43257208D01*
X139566287Y-43249500D01*
X139353713Y-43249500D01*
X139305042Y-43257208D01*
X139143760Y-43282753D01*
X138941585Y-43348444D01*
X138752179Y-43444951D01*
X138580213Y-43569890D01*
X138429890Y-43720213D01*
X138304949Y-43892182D01*
X138300484Y-43900946D01*
X138252509Y-43951742D01*
X138184688Y-43968536D01*
X138118553Y-43945998D01*
X138079516Y-43900946D01*
X138075050Y-43892182D01*
X137950109Y-43720213D01*
X137799786Y-43569890D01*
X137627820Y-43444951D01*
X137438414Y-43348444D01*
X137438413Y-43348443D01*
X137438412Y-43348443D01*
X137236243Y-43282754D01*
X137236241Y-43282753D01*
X137236240Y-43282753D01*
X137074957Y-43257208D01*
X137026287Y-43249500D01*
X136813713Y-43249500D01*
X136765042Y-43257208D01*
X136603760Y-43282753D01*
X136401585Y-43348444D01*
X136212179Y-43444951D01*
X136040213Y-43569890D01*
X135889890Y-43720213D01*
X135764949Y-43892182D01*
X135760484Y-43900946D01*
X135712509Y-43951742D01*
X135644688Y-43968536D01*
X135578553Y-43945998D01*
X135539516Y-43900946D01*
X135535050Y-43892182D01*
X135410109Y-43720213D01*
X135259786Y-43569890D01*
X135087820Y-43444951D01*
X134898414Y-43348444D01*
X134898413Y-43348443D01*
X134898412Y-43348443D01*
X134696243Y-43282754D01*
X134696241Y-43282753D01*
X134696240Y-43282753D01*
X134534957Y-43257208D01*
X134486287Y-43249500D01*
X134273713Y-43249500D01*
X134225042Y-43257208D01*
X134063760Y-43282753D01*
X133861585Y-43348444D01*
X133672179Y-43444951D01*
X133500213Y-43569890D01*
X133349890Y-43720213D01*
X133224949Y-43892182D01*
X133220484Y-43900946D01*
X133172509Y-43951742D01*
X133104688Y-43968536D01*
X133038553Y-43945998D01*
X132999516Y-43900946D01*
X132995050Y-43892182D01*
X132870109Y-43720213D01*
X132719786Y-43569890D01*
X132547820Y-43444951D01*
X132358414Y-43348444D01*
X132358413Y-43348443D01*
X132358412Y-43348443D01*
X132156243Y-43282754D01*
X132156241Y-43282753D01*
X132156240Y-43282753D01*
X131994957Y-43257208D01*
X131946287Y-43249500D01*
X131733713Y-43249500D01*
X131685042Y-43257208D01*
X131523760Y-43282753D01*
X131321585Y-43348444D01*
X131132179Y-43444951D01*
X130960215Y-43569889D01*
X130846673Y-43683431D01*
X130785350Y-43716915D01*
X130715658Y-43711931D01*
X130659725Y-43670059D01*
X130642810Y-43639082D01*
X130593797Y-43507671D01*
X130593793Y-43507664D01*
X130507547Y-43392455D01*
X130507544Y-43392452D01*
X130392335Y-43306206D01*
X130392328Y-43306202D01*
X130257482Y-43255908D01*
X130257483Y-43255908D01*
X130197883Y-43249501D01*
X130197881Y-43249500D01*
X130197873Y-43249500D01*
X130197864Y-43249500D01*
X128402129Y-43249500D01*
X128402123Y-43249501D01*
X128342516Y-43255908D01*
X128207671Y-43306202D01*
X128207664Y-43306206D01*
X128092455Y-43392452D01*
X128092452Y-43392455D01*
X128006206Y-43507664D01*
X128006202Y-43507671D01*
X127955908Y-43642517D01*
X127949501Y-43702116D01*
X127949500Y-43702135D01*
X114000000Y-43702135D01*
X114000000Y-38878711D01*
X115649500Y-38878711D01*
X115649500Y-39121288D01*
X115681161Y-39361785D01*
X115743947Y-39596104D01*
X115835132Y-39816243D01*
X115836776Y-39820212D01*
X115958064Y-40030289D01*
X115958066Y-40030292D01*
X115958067Y-40030293D01*
X116105733Y-40222736D01*
X116105739Y-40222743D01*
X116277256Y-40394260D01*
X116277262Y-40394265D01*
X116469711Y-40541936D01*
X116679788Y-40663224D01*
X116903900Y-40756054D01*
X117138211Y-40818838D01*
X117318586Y-40842584D01*
X117378711Y-40850500D01*
X117378712Y-40850500D01*
X117621289Y-40850500D01*
X117669388Y-40844167D01*
X117861789Y-40818838D01*
X118096100Y-40756054D01*
X118320212Y-40663224D01*
X118530289Y-40541936D01*
X118722738Y-40394265D01*
X118894265Y-40222738D01*
X119041936Y-40030289D01*
X119163224Y-39820212D01*
X119256054Y-39596100D01*
X119318838Y-39361789D01*
X119350500Y-39121288D01*
X119350500Y-38878712D01*
X119318838Y-38638211D01*
X119256054Y-38403900D01*
X119163224Y-38179788D01*
X119041936Y-37969711D01*
X118894265Y-37777262D01*
X118894260Y-37777256D01*
X118722743Y-37605739D01*
X118722736Y-37605733D01*
X118530293Y-37458067D01*
X118530292Y-37458066D01*
X118530289Y-37458064D01*
X118320212Y-37336776D01*
X118320205Y-37336773D01*
X118096104Y-37243947D01*
X117861785Y-37181161D01*
X117621289Y-37149500D01*
X117621288Y-37149500D01*
X117378712Y-37149500D01*
X117378711Y-37149500D01*
X117138214Y-37181161D01*
X116903895Y-37243947D01*
X116679794Y-37336773D01*
X116679785Y-37336777D01*
X116469706Y-37458067D01*
X116277263Y-37605733D01*
X116277256Y-37605739D01*
X116105739Y-37777256D01*
X116105733Y-37777263D01*
X115958067Y-37969706D01*
X115836777Y-38179785D01*
X115836773Y-38179794D01*
X115743947Y-38403895D01*
X115681161Y-38638214D01*
X115649500Y-38878711D01*
X114000000Y-38878711D01*
X114000000Y-35624500D01*
X114019685Y-35557461D01*
X114072489Y-35511706D01*
X114124000Y-35500500D01*
X185675500Y-35500500D01*
X185742539Y-35520185D01*
G37*
%TD.AperFunction*%
%TD*%
M02*
