%TF.GenerationSoftware,KiCad,Pcbnew,10.0.5*%
%TF.CreationDate,2026-08-01T20:43:47+02:00*%
%TF.ProjectId,TX_Modul,54585f4d-6f64-4756-9c2e-6b696361645f,rev?*%
%TF.SameCoordinates,Original*%
%TF.FileFunction,Copper,L1,Top*%
%TF.FilePolarity,Positive*%
%FSLAX46Y46*%
G04 Gerber Fmt 4.6, Leading zero omitted, Abs format (unit mm)*
G04 Created by KiCad (PCBNEW 10.0.5) date 2026-08-01 20:43:47*
%MOMM*%
%LPD*%
G01*
G04 APERTURE LIST*
%ADD10C,0.300000*%
%TA.AperFunction,NonConductor*%
%ADD11C,0.300000*%
%TD*%
%TA.AperFunction,ComponentPad*%
%ADD12R,1.700000X1.700000*%
%TD*%
%TA.AperFunction,ComponentPad*%
%ADD13C,1.700000*%
%TD*%
%TA.AperFunction,ComponentPad*%
%ADD14C,1.400000*%
%TD*%
%TA.AperFunction,ComponentPad*%
%ADD15C,1.600000*%
%TD*%
%TA.AperFunction,Conductor*%
%ADD16C,0.200000*%
%TD*%
%TA.AperFunction,Conductor*%
%ADD17C,1.500000*%
%TD*%
%TA.AperFunction,Conductor*%
%ADD18C,0.180000*%
%TD*%
G04 APERTURE END LIST*
D10*
D11*
X129054510Y-40515114D02*
X128554510Y-40515114D01*
X128554510Y-41300828D02*
X128554510Y-39800828D01*
X128554510Y-39800828D02*
X129268796Y-39800828D01*
X129625939Y-39800828D02*
X130483082Y-39800828D01*
X130054510Y-41300828D02*
X130054510Y-39800828D01*
X131197367Y-40443685D02*
X131054510Y-40372257D01*
X131054510Y-40372257D02*
X130983081Y-40300828D01*
X130983081Y-40300828D02*
X130911653Y-40157971D01*
X130911653Y-40157971D02*
X130911653Y-40086542D01*
X130911653Y-40086542D02*
X130983081Y-39943685D01*
X130983081Y-39943685D02*
X131054510Y-39872257D01*
X131054510Y-39872257D02*
X131197367Y-39800828D01*
X131197367Y-39800828D02*
X131483081Y-39800828D01*
X131483081Y-39800828D02*
X131625939Y-39872257D01*
X131625939Y-39872257D02*
X131697367Y-39943685D01*
X131697367Y-39943685D02*
X131768796Y-40086542D01*
X131768796Y-40086542D02*
X131768796Y-40157971D01*
X131768796Y-40157971D02*
X131697367Y-40300828D01*
X131697367Y-40300828D02*
X131625939Y-40372257D01*
X131625939Y-40372257D02*
X131483081Y-40443685D01*
X131483081Y-40443685D02*
X131197367Y-40443685D01*
X131197367Y-40443685D02*
X131054510Y-40515114D01*
X131054510Y-40515114D02*
X130983081Y-40586542D01*
X130983081Y-40586542D02*
X130911653Y-40729400D01*
X130911653Y-40729400D02*
X130911653Y-41015114D01*
X130911653Y-41015114D02*
X130983081Y-41157971D01*
X130983081Y-41157971D02*
X131054510Y-41229400D01*
X131054510Y-41229400D02*
X131197367Y-41300828D01*
X131197367Y-41300828D02*
X131483081Y-41300828D01*
X131483081Y-41300828D02*
X131625939Y-41229400D01*
X131625939Y-41229400D02*
X131697367Y-41157971D01*
X131697367Y-41157971D02*
X131768796Y-41015114D01*
X131768796Y-41015114D02*
X131768796Y-40729400D01*
X131768796Y-40729400D02*
X131697367Y-40586542D01*
X131697367Y-40586542D02*
X131625939Y-40515114D01*
X131625939Y-40515114D02*
X131483081Y-40443685D01*
X132411652Y-40729400D02*
X133554510Y-40729400D01*
X134054510Y-39800828D02*
X134911653Y-39800828D01*
X134483081Y-41300828D02*
X134483081Y-39800828D01*
X135268795Y-39800828D02*
X136268795Y-41300828D01*
X136268795Y-39800828D02*
X135268795Y-41300828D01*
X136840223Y-40729400D02*
X137983081Y-40729400D01*
X138697366Y-41300828D02*
X138697366Y-39800828D01*
X138697366Y-39800828D02*
X139197366Y-40872257D01*
X139197366Y-40872257D02*
X139697366Y-39800828D01*
X139697366Y-39800828D02*
X139697366Y-41300828D01*
X140625938Y-41300828D02*
X140483081Y-41229400D01*
X140483081Y-41229400D02*
X140411652Y-41157971D01*
X140411652Y-41157971D02*
X140340224Y-41015114D01*
X140340224Y-41015114D02*
X140340224Y-40586542D01*
X140340224Y-40586542D02*
X140411652Y-40443685D01*
X140411652Y-40443685D02*
X140483081Y-40372257D01*
X140483081Y-40372257D02*
X140625938Y-40300828D01*
X140625938Y-40300828D02*
X140840224Y-40300828D01*
X140840224Y-40300828D02*
X140983081Y-40372257D01*
X140983081Y-40372257D02*
X141054510Y-40443685D01*
X141054510Y-40443685D02*
X141125938Y-40586542D01*
X141125938Y-40586542D02*
X141125938Y-41015114D01*
X141125938Y-41015114D02*
X141054510Y-41157971D01*
X141054510Y-41157971D02*
X140983081Y-41229400D01*
X140983081Y-41229400D02*
X140840224Y-41300828D01*
X140840224Y-41300828D02*
X140625938Y-41300828D01*
X142411653Y-41300828D02*
X142411653Y-39800828D01*
X142411653Y-41229400D02*
X142268795Y-41300828D01*
X142268795Y-41300828D02*
X141983081Y-41300828D01*
X141983081Y-41300828D02*
X141840224Y-41229400D01*
X141840224Y-41229400D02*
X141768795Y-41157971D01*
X141768795Y-41157971D02*
X141697367Y-41015114D01*
X141697367Y-41015114D02*
X141697367Y-40586542D01*
X141697367Y-40586542D02*
X141768795Y-40443685D01*
X141768795Y-40443685D02*
X141840224Y-40372257D01*
X141840224Y-40372257D02*
X141983081Y-40300828D01*
X141983081Y-40300828D02*
X142268795Y-40300828D01*
X142268795Y-40300828D02*
X142411653Y-40372257D01*
X143768796Y-40300828D02*
X143768796Y-41300828D01*
X143125938Y-40300828D02*
X143125938Y-41086542D01*
X143125938Y-41086542D02*
X143197367Y-41229400D01*
X143197367Y-41229400D02*
X143340224Y-41300828D01*
X143340224Y-41300828D02*
X143554510Y-41300828D01*
X143554510Y-41300828D02*
X143697367Y-41229400D01*
X143697367Y-41229400D02*
X143768796Y-41157971D01*
X144697367Y-41300828D02*
X144554510Y-41229400D01*
X144554510Y-41229400D02*
X144483081Y-41086542D01*
X144483081Y-41086542D02*
X144483081Y-39800828D01*
X145840224Y-41229400D02*
X145697367Y-41300828D01*
X145697367Y-41300828D02*
X145411653Y-41300828D01*
X145411653Y-41300828D02*
X145268795Y-41229400D01*
X145268795Y-41229400D02*
X145197367Y-41086542D01*
X145197367Y-41086542D02*
X145197367Y-40515114D01*
X145197367Y-40515114D02*
X145268795Y-40372257D01*
X145268795Y-40372257D02*
X145411653Y-40300828D01*
X145411653Y-40300828D02*
X145697367Y-40300828D01*
X145697367Y-40300828D02*
X145840224Y-40372257D01*
X145840224Y-40372257D02*
X145911653Y-40515114D01*
X145911653Y-40515114D02*
X145911653Y-40657971D01*
X145911653Y-40657971D02*
X145197367Y-40800828D01*
D10*
D11*
X133554510Y-38300828D02*
X133554510Y-36800828D01*
X133554510Y-36800828D02*
X133911653Y-36800828D01*
X133911653Y-36800828D02*
X134125939Y-36872257D01*
X134125939Y-36872257D02*
X134268796Y-37015114D01*
X134268796Y-37015114D02*
X134340225Y-37157971D01*
X134340225Y-37157971D02*
X134411653Y-37443685D01*
X134411653Y-37443685D02*
X134411653Y-37657971D01*
X134411653Y-37657971D02*
X134340225Y-37943685D01*
X134340225Y-37943685D02*
X134268796Y-38086542D01*
X134268796Y-38086542D02*
X134125939Y-38229400D01*
X134125939Y-38229400D02*
X133911653Y-38300828D01*
X133911653Y-38300828D02*
X133554510Y-38300828D01*
X135768796Y-38300828D02*
X135054510Y-38300828D01*
X135054510Y-38300828D02*
X135054510Y-36800828D01*
X137054511Y-38300828D02*
X136197368Y-38300828D01*
X136625939Y-38300828D02*
X136625939Y-36800828D01*
X136625939Y-36800828D02*
X136483082Y-37015114D01*
X136483082Y-37015114D02*
X136340225Y-37157971D01*
X136340225Y-37157971D02*
X136197368Y-37229400D01*
X137625939Y-38229400D02*
X137840225Y-38300828D01*
X137840225Y-38300828D02*
X138197367Y-38300828D01*
X138197367Y-38300828D02*
X138340225Y-38229400D01*
X138340225Y-38229400D02*
X138411653Y-38157971D01*
X138411653Y-38157971D02*
X138483082Y-38015114D01*
X138483082Y-38015114D02*
X138483082Y-37872257D01*
X138483082Y-37872257D02*
X138411653Y-37729400D01*
X138411653Y-37729400D02*
X138340225Y-37657971D01*
X138340225Y-37657971D02*
X138197367Y-37586542D01*
X138197367Y-37586542D02*
X137911653Y-37515114D01*
X137911653Y-37515114D02*
X137768796Y-37443685D01*
X137768796Y-37443685D02*
X137697367Y-37372257D01*
X137697367Y-37372257D02*
X137625939Y-37229400D01*
X137625939Y-37229400D02*
X137625939Y-37086542D01*
X137625939Y-37086542D02*
X137697367Y-36943685D01*
X137697367Y-36943685D02*
X137768796Y-36872257D01*
X137768796Y-36872257D02*
X137911653Y-36800828D01*
X137911653Y-36800828D02*
X138268796Y-36800828D01*
X138268796Y-36800828D02*
X138483082Y-36872257D01*
X139125938Y-38300828D02*
X139125938Y-36800828D01*
X139983081Y-38300828D02*
X139340224Y-37443685D01*
X139983081Y-36800828D02*
X139125938Y-37657971D01*
X140625938Y-38300828D02*
X140625938Y-36800828D01*
X140625938Y-36800828D02*
X140983081Y-36800828D01*
X140983081Y-36800828D02*
X141197367Y-36872257D01*
X141197367Y-36872257D02*
X141340224Y-37015114D01*
X141340224Y-37015114D02*
X141411653Y-37157971D01*
X141411653Y-37157971D02*
X141483081Y-37443685D01*
X141483081Y-37443685D02*
X141483081Y-37657971D01*
X141483081Y-37657971D02*
X141411653Y-37943685D01*
X141411653Y-37943685D02*
X141340224Y-38086542D01*
X141340224Y-38086542D02*
X141197367Y-38229400D01*
X141197367Y-38229400D02*
X140983081Y-38300828D01*
X140983081Y-38300828D02*
X140625938Y-38300828D01*
D12*
%TO.P,5V1,1,Pin_1_1*%
%TO.N,GND*%
X181500000Y-72500000D03*
D13*
%TO.P,5V1,2,Pin_2_2*%
%TO.N,Net-(5V1-Pin_2)*%
X181500000Y-75040000D03*
%TD*%
D14*
%TO.P,R2,1,+_1*%
%TO.N,Net-(C3--)*%
X168000000Y-42690000D03*
%TO.P,R2,2,-_2*%
%TO.N,GND*%
X168000000Y-50310000D03*
%TD*%
D12*
%TO.P,Si1,1,Pin_1_1*%
%TO.N,unconnected-(Si1-Pin_1-Pad1)*%
X129300000Y-44600000D03*
D13*
%TO.P,Si1,2,Pin_2_2*%
%TO.N,unconnected-(Si1-Pin_2-Pad2)*%
X131840000Y-44600000D03*
%TO.P,Si1,3,Pin_3_3*%
%TO.N,unconnected-(Si1-Pin_3-Pad3)*%
X134380000Y-44600000D03*
%TO.P,Si1,4,Pin_4_4*%
%TO.N,unconnected-(Si1-Pin_4-Pad4)*%
X136920000Y-44600000D03*
%TO.P,Si1,5,Pin_5_5*%
%TO.N,unconnected-(Si1-Pin_5-Pad5)*%
X139460000Y-44600000D03*
%TO.P,Si1,6,Pin_6_6*%
%TO.N,unconnected-(Si1-Pin_6-Pad6)*%
X142000000Y-44600000D03*
%TO.P,Si1,7,Pin_7_7*%
%TO.N,unconnected-(Si1-Pin_7-Pad7)*%
X144540000Y-44600000D03*
%TD*%
D14*
%TO.P,R1,1,+_1*%
%TO.N,Net-(J1-Pin_2)*%
X160690000Y-39000000D03*
%TO.P,R1,2,-_2*%
%TO.N,Net-(C3--)*%
X168310000Y-39000000D03*
%TD*%
D15*
%TO.P,C3,1,+_1*%
%TO.N,Net-(C3-+)*%
X162500000Y-74500000D03*
%TO.P,C3,2,-_2*%
%TO.N,Net-(C3--)*%
X162500000Y-69500000D03*
%TD*%
D12*
%TO.P,J3,1,Pin_1_1*%
%TO.N,Net-(C3-+)*%
X181500000Y-60080000D03*
D13*
%TO.P,J3,2,Pin_2_2*%
X181500000Y-57540000D03*
%TO.P,J3,3,Pin_3_3*%
%TO.N,GND*%
X181500000Y-55000000D03*
%TD*%
D15*
%TO.P,C2,1,+_1*%
%TO.N,Net-(C2-+)*%
X162500000Y-62600000D03*
%TO.P,C2,2,-_2*%
%TO.N,GND*%
X167500000Y-62600000D03*
%TD*%
D14*
%TO.P,R3,1,+_1*%
%TO.N,Net-(C3--)*%
X162500000Y-42690000D03*
%TO.P,R3,2,-_2*%
%TO.N,Net-(C1-+)*%
X162500000Y-50310000D03*
%TD*%
D12*
%TO.P,J7,1,Pin_1_1*%
%TO.N,Net-(J2-Pin_1)*%
X144525000Y-62500000D03*
D13*
%TO.P,J7,2,Pin_2_2*%
%TO.N,Net-(J2-Pin_2)*%
X144525000Y-65040000D03*
%TO.P,J7,3,Pin_3_3*%
%TO.N,GND*%
X144525000Y-67580000D03*
%TO.P,J7,4,Pin_4_4*%
%TO.N,Net-(5V1-Pin_2)*%
X144525000Y-70120000D03*
%TO.P,J7,5,Pin_5_5*%
%TO.N,unconnected-(J7-Pin_5-Pad5)*%
X144525000Y-72660000D03*
%TO.P,J7,6,Pin_6_6*%
%TO.N,unconnected-(J7-Pin_6-Pad6)*%
X144525000Y-75200000D03*
%TD*%
D12*
%TO.P,J1,1,Pin_1_1*%
%TO.N,unconnected-(J1-Pin_1-Pad1)*%
X156500000Y-39560000D03*
D13*
%TO.P,J1,2,Pin_2_2*%
%TO.N,Net-(J1-Pin_2)*%
X156500000Y-42100000D03*
%TO.P,J1,3,Pin_3_3*%
%TO.N,unconnected-(J1-Pin_3-Pad3)*%
X156500000Y-44640000D03*
%TO.P,J1,4,Pin_4_4*%
%TO.N,unconnected-(J1-Pin_4-Pad4)*%
X156500000Y-47180000D03*
%TO.P,J1,5,Pin_5_5*%
%TO.N,unconnected-(J1-Pin_5-Pad5)*%
X156500000Y-49720000D03*
%TO.P,J1,6,Pin_6_6*%
%TO.N,unconnected-(J1-Pin_6-Pad6)*%
X156500000Y-52260000D03*
%TO.P,J1,7,Pin_7_7*%
%TO.N,unconnected-(J1-Pin_7-Pad7)*%
X156500000Y-54800000D03*
%TO.P,J1,8,Pin_8_8*%
%TO.N,Net-(J1-Pin_8)*%
X156500000Y-57340000D03*
%TO.P,J1,9,Pin_9_9*%
%TO.N,Net-(J1-Pin_9)*%
X156500000Y-59880000D03*
%TO.P,J1,10,Pin_10_10*%
%TO.N,unconnected-(J1-Pin_10-Pad10)*%
X156500000Y-62420000D03*
%TO.P,J1,11,Pin_11_11*%
%TO.N,unconnected-(J1-Pin_11-Pad11)*%
X156500000Y-64960000D03*
%TO.P,J1,12,Pin_12_12*%
%TO.N,unconnected-(J1-Pin_12-Pad12)*%
X156500000Y-67500000D03*
%TO.P,J1,13,Pin_13_13*%
%TO.N,unconnected-(J1-Pin_13-Pad13)*%
X156500000Y-70040000D03*
%TO.P,J1,14,Pin_14_14*%
%TO.N,GND*%
X156500000Y-72580000D03*
%TO.P,J1,15,Pin_15_15*%
%TO.N,Net-(5V1-Pin_2)*%
X156500000Y-75120000D03*
%TD*%
D12*
%TO.P,J2,1,Pin_1_1*%
%TO.N,Net-(J2-Pin_1)*%
X171500000Y-75060000D03*
D13*
%TO.P,J2,2,Pin_2_2*%
%TO.N,Net-(J2-Pin_2)*%
X171500000Y-72520000D03*
%TO.P,J2,3,Pin_3_3*%
%TO.N,unconnected-(J2-Pin_3-Pad3)*%
X171500000Y-69980000D03*
%TO.P,J2,4,Pin_4_4*%
%TO.N,Net-(C2-+)*%
X171500000Y-67440000D03*
%TO.P,J2,5,Pin_5_5*%
%TO.N,unconnected-(J2-Pin_5-Pad5)*%
X171500000Y-64900000D03*
%TO.P,J2,6,Pin_6_6*%
%TO.N,unconnected-(J2-Pin_6-Pad6)*%
X171500000Y-62360000D03*
%TO.P,J2,7,Pin_7_7*%
%TO.N,Net-(J2-Pin_12)*%
X171500000Y-59820000D03*
%TO.P,J2,8,Pin_8_8*%
%TO.N,Net-(J2-Pin_8)*%
X171500000Y-57280000D03*
%TO.P,J2,9,Pin_9_9*%
%TO.N,GND*%
X171500000Y-54740000D03*
%TO.P,J2,10,Pin_10_10*%
%TO.N,Net-(C2-+)*%
X171500000Y-52200000D03*
%TO.P,J2,11,Pin_11_11*%
%TO.N,unconnected-(J2-Pin_11-Pad11)*%
X171500000Y-49660000D03*
%TO.P,J2,12,Pin_12_12*%
%TO.N,Net-(J2-Pin_12)*%
X171500000Y-47120000D03*
%TO.P,J2,13,Pin_13_13*%
%TO.N,unconnected-(J2-Pin_13-Pad13)*%
X171500000Y-44580000D03*
%TO.P,J2,14,Pin_14_14*%
%TO.N,unconnected-(J2-Pin_14-Pad14)*%
X171500000Y-42040000D03*
%TO.P,J2,15,Pin_15_15*%
%TO.N,unconnected-(J2-Pin_15-Pad15)*%
X171500000Y-39500000D03*
%TD*%
D12*
%TO.P,J9,1,Pin_1_1*%
%TO.N,Net-(J2-Pin_12)*%
X181500000Y-63795000D03*
D13*
%TO.P,J9,2,Pin_2_2*%
%TO.N,Net-(C2-+)*%
X181500000Y-66335000D03*
%TO.P,J9,3,Pin_3_3*%
%TO.N,Net-(J2-Pin_8)*%
X181500000Y-68875000D03*
%TD*%
D15*
%TO.P,C1,1,+_1*%
%TO.N,Net-(C1-+)*%
X162500000Y-55000000D03*
%TO.P,C1,2,-_2*%
%TO.N,GND*%
X167500000Y-55000000D03*
%TD*%
D12*
%TO.P,J8,1,Pin_1_1*%
%TO.N,Net-(J6-Pin_1)*%
X118000000Y-62500000D03*
D13*
%TO.P,J8,2,Pin_2_2*%
%TO.N,Net-(J6-Pin_2)*%
X118000000Y-65040000D03*
%TO.P,J8,3,Pin_3_3*%
%TO.N,GND*%
X118000000Y-67580000D03*
%TO.P,J8,4,Pin_4_4*%
%TO.N,Net-(J6-Pin_4)*%
X118000000Y-70120000D03*
%TO.P,J8,5,Pin_5_5*%
%TO.N,Net-(J6-Pin_5)*%
X118000000Y-72660000D03*
%TO.P,J8,6,Pin_6_6*%
%TO.N,Net-(J6-Pin_6)*%
X118000000Y-75200000D03*
%TD*%
D14*
%TO.P,R4,1,+_1*%
%TO.N,Net-(C1-+)*%
X159500000Y-55000000D03*
%TO.P,R4,2,-_2*%
%TO.N,Net-(C2-+)*%
X159500000Y-62620000D03*
%TD*%
D12*
%TO.P,J4,1,Pin_1_1*%
%TO.N,Net-(5V1-Pin_2)*%
X181500000Y-46000000D03*
D13*
%TO.P,J4,2,Pin_2_2*%
%TO.N,GND*%
X181500000Y-48540000D03*
%TO.P,J4,3,Pin_3_3*%
%TO.N,Net-(J2-Pin_12)*%
X181500000Y-51080000D03*
%TD*%
D12*
%TO.P,Si5351,1,Pin_1_1*%
%TO.N,unconnected-(Si5351-Pin_1-Pad1)*%
X129300000Y-54500000D03*
D13*
%TO.P,Si5351,2,Pin_2_2*%
%TO.N,unconnected-(Si5351-Pin_2-Pad2)*%
X131840000Y-54500000D03*
%TO.P,Si5351,3,Pin_3_3*%
%TO.N,unconnected-(Si5351-Pin_3-Pad3)*%
X134380000Y-54500000D03*
%TO.P,Si5351,4,Pin_4_4*%
%TO.N,Net-(J1-Pin_9)*%
X136920000Y-54500000D03*
%TO.P,Si5351,5,Pin_5_5*%
%TO.N,Net-(J1-Pin_8)*%
X139460000Y-54500000D03*
%TO.P,Si5351,6,Pin_6_6*%
%TO.N,GND*%
X142000000Y-54500000D03*
%TO.P,Si5351,7,Pin_7_7*%
%TO.N,Net-(5V1-Pin_2)*%
X144540000Y-54500000D03*
%TD*%
D12*
%TO.P,J6,1,Pin_1_1*%
%TO.N,Net-(J6-Pin_1)*%
X134000000Y-62500000D03*
D13*
%TO.P,J6,2,Pin_2_2*%
%TO.N,Net-(J6-Pin_2)*%
X134000000Y-65040000D03*
%TO.P,J6,3,Pin_3_3*%
%TO.N,GND*%
X134000000Y-67580000D03*
%TO.P,J6,4,Pin_4_4*%
%TO.N,Net-(J6-Pin_4)*%
X134000000Y-70120000D03*
%TO.P,J6,5,Pin_5_5*%
%TO.N,Net-(J6-Pin_5)*%
X134000000Y-72660000D03*
%TO.P,J6,6,Pin_6_6*%
%TO.N,Net-(J6-Pin_6)*%
X134000000Y-75200000D03*
%TD*%
%TO.N,GND*%
D16*
X167760000Y-54740000D02*
X167500000Y-55000000D01*
D17*
X156631000Y-72449000D02*
X156500000Y-72580000D01*
D16*
X171500000Y-54740000D02*
X167760000Y-54740000D01*
%TO.N,Net-(5V1-Pin_2)*%
D18*
X127859000Y-55859000D02*
X131000000Y-59000000D01*
X144540000Y-54500000D02*
X143099000Y-53059000D01*
X162621000Y-81241000D02*
X176741000Y-81241000D01*
X136500000Y-64500000D02*
X141500000Y-69500000D01*
X147000000Y-77500000D02*
X147000000Y-75120000D01*
X136500000Y-59000000D02*
X136500000Y-64500000D01*
X147000000Y-75120000D02*
X156500000Y-75120000D01*
X141500000Y-69500000D02*
X141500000Y-77500000D01*
D16*
X181500000Y-75040000D02*
X176741000Y-79799000D01*
X144525000Y-70120000D02*
X142120000Y-70120000D01*
D18*
X131000000Y-59000000D02*
X136500000Y-59000000D01*
X127859000Y-53059000D02*
X127859000Y-55859000D01*
X143099000Y-53059000D02*
X127859000Y-53059000D01*
X176741000Y-81241000D02*
X176741000Y-79799000D01*
D16*
X142120000Y-70120000D02*
X141500000Y-69500000D01*
D18*
X156500000Y-75120000D02*
X162621000Y-81241000D01*
X141500000Y-77500000D02*
X147000000Y-77500000D01*
%TO.N,Net-(C3--)*%
X168000000Y-42690000D02*
X162500000Y-42690000D01*
X163891000Y-44081000D02*
X163891000Y-68109000D01*
X162500000Y-42690000D02*
X163891000Y-44081000D01*
X163891000Y-68109000D02*
X162500000Y-69500000D01*
%TO.N,Net-(C3-+)*%
X170903532Y-38060000D02*
X176440000Y-38060000D01*
X162500000Y-74500000D02*
X170060000Y-66940000D01*
D16*
X184920000Y-60080000D02*
X185000000Y-60000000D01*
D18*
X185000000Y-46620000D02*
X185000000Y-60000000D01*
X166110000Y-54424243D02*
X170060000Y-50474243D01*
X170060000Y-38903532D02*
X170903532Y-38060000D01*
D16*
X181500000Y-60080000D02*
X184920000Y-60080000D01*
D18*
X170060000Y-66940000D02*
X170060000Y-61763532D01*
X170060000Y-50474243D02*
X170060000Y-38903532D01*
X170060000Y-61763532D02*
X170733532Y-61090000D01*
D16*
X181500000Y-57540000D02*
X181500000Y-60080000D01*
D18*
X176440000Y-38060000D02*
X185000000Y-46620000D01*
X170733532Y-61090000D02*
X166110000Y-56466468D01*
X166110000Y-56466468D02*
X166110000Y-54424243D01*
%TO.N,Net-(C2-+)*%
D16*
X181500000Y-66335000D02*
X172605000Y-66335000D01*
X172605000Y-66335000D02*
X171500000Y-67440000D01*
%TO.N,Net-(J1-Pin_9)*%
D18*
X136920000Y-54500000D02*
X141201000Y-58781000D01*
X141201000Y-58781000D02*
X155401000Y-58781000D01*
X155401000Y-58781000D02*
X156500000Y-59880000D01*
%TO.N,Net-(J2-Pin_12)*%
X175475000Y-63795000D02*
X180820000Y-63795000D01*
X171500000Y-59820000D02*
X175475000Y-63795000D01*
D16*
X171500000Y-47120000D02*
X177540000Y-47120000D01*
D18*
X177540000Y-53780000D02*
X177540000Y-47120000D01*
X171500000Y-59820000D02*
X177540000Y-53780000D01*
D16*
X177540000Y-47120000D02*
X181500000Y-51080000D01*
%TO.N,Net-(J6-Pin_1)*%
X118000000Y-63175000D02*
X134000000Y-63175000D01*
X118000000Y-63175000D02*
X134000000Y-63175000D01*
%TO.N,Net-(J6-Pin_2)*%
X134000000Y-65715000D02*
X118000000Y-65715000D01*
%TO.N,Net-(J6-Pin_4)*%
X118000000Y-70795000D02*
X134000000Y-70795000D01*
%TO.N,Net-(J6-Pin_5)*%
X118000000Y-73335000D02*
X134000000Y-73335000D01*
%TO.N,Net-(J6-Pin_6)*%
X118000000Y-75875000D02*
X134000000Y-75875000D01*
%TD*%
M02*
